<?xml version="1.0" standalone="no"?>
<!DOCTYPE svg PUBLIC "-//W3C//DTD SVG 1.1//EN" "http://www.w3.org/Graphics/SVG/1.1/DTD/svg11.dtd" >
<svg xmlns="http://www.w3.org/2000/svg">
<metadata>
This is a custom SVG webfont generated by Font Squirrel.
Copyright   : c Dutch Design AlbertJan Pool 1995 Published by FontShop International FontFont release 15
</metadata>
<defs>
<font id="DINRegular" horiz-adv-x="1069" >
<font-face units-per-em="2048" ascent="1585" descent="-463" />
<missing-glyph horiz-adv-x="509" />
<glyph unicode=" "  horiz-adv-x="509" />
<glyph unicode="&#x09;" horiz-adv-x="509" />
<glyph unicode="&#xa0;" horiz-adv-x="509" />
<glyph unicode="!" horiz-adv-x="647" d="M266 0v172h176v-172h-176zM270 1458h170l-22 -1048h-127z" />
<glyph unicode="&#x22;" horiz-adv-x="866" d="M180 1110v348h162v-348h-162zM524 1110v348h162v-348h-162z" />
<glyph unicode="#" horiz-adv-x="1337" d="M158 465v131h204l48 289h-189v135h207l70 440h153l-71 -440h325l70 440h149l-69 -440h178v-135h-197l-47 -289h182v-131h-202l-74 -465h-152l74 465h-328l-71 -465h-152l74 465h-182zM512 596h326l47 289h-326z" />
<glyph unicode="$" horiz-adv-x="1220" d="M86 180l107 107q150 -150 352 -158v543l-41 4q-154 14 -266 110q-113 100 -113 273q0 174 110.5 284.5t301.5 124.5v183h122v-183q217 -10 381 -157l-100 -101q-125 113 -287 123v-530l64 -10q180 -31 264 -103q125 -106 125 -289q0 -176 -121 -285.5t-326 -123.5v-225 h-122v221q-143 6 -249 51t-202 141zM279 1065q0 -111 65 -168q74 -61 201 -80v516q-127 -10 -196.5 -81.5t-69.5 -186.5zM653 129q139 10 218 81t79 187q0 121 -71 183q-14 12 -27.5 21t-33 17.5t-29 12.5t-34 8t-30.5 6t-37 6t-35 4v-526z" />
<glyph unicode="%" horiz-adv-x="1705" d="M133 981v215q0 125 78 201t198.5 76t198.5 -76t78 -201v-215q0 -123 -78 -198.5t-198.5 -75.5t-198.5 75.5t-78 198.5zM250 985q0 -176 159.5 -176t159.5 176v207q0 178 -159.5 178t-159.5 -178v-207zM451 0l684 1458h122l-684 -1458h-122zM1022 262v215q0 125 78 201 t198.5 76t198.5 -76t78 -201v-215q0 -125 -78 -200.5t-198.5 -75.5t-198.5 75.5t-78 200.5zM1139 266q0 -178 159.5 -178t159.5 178v207q0 178 -159.5 178t-159.5 -178v-207z" />
<glyph unicode="&#x26;" horiz-adv-x="1513" d="M158 412q0 78 24.5 143.5t75.5 119.5t95 88t120 85q-51 61 -75.5 95t-53.5 97.5t-29 124.5q0 131 91.5 218t230.5 87q137 0 227 -88t90 -219q0 -150 -161 -260q-74 -49 -109 -74l373 -448q45 68 62.5 139.5t19.5 194.5h147q-4 -289 -135 -447l223 -268h-194l-131 160 q-184 -172 -431 -172q-211 0 -335.5 115.5t-124.5 308.5zM309 416q0 -129 86 -210t221 -81q186 0 345 141l-402 484q-66 -45 -95.5 -68t-73.5 -67t-62.5 -92t-18.5 -107zM469 1167q0 -49 27.5 -99t103.5 -140l78 53q63 43 97 84t34 98q0 74 -49 124t-123 50t-121 -48 t-47 -122z" />
<glyph unicode="'" horiz-adv-x="522" d="M180 1110v348h162v-348h-162z" />
<glyph unicode="(" horiz-adv-x="610" d="M188 195v1069q0 133 43 211q35 63 148 176l100 -101q-88 -88 -110 -133q-33 -66 -33 -166v-1044q0 -100 33 -166q23 -45 110 -133l-100 -101q-113 113 -148 177q-43 78 -43 211z" />
<glyph unicode=")" horiz-adv-x="610" d="M127 -88q92 92 113 133q29 57 28 162v1044q0 104 -28 162q-20 41 -113 133l104 105q113 -113 148 -176q41 -76 41 -211v-1069q0 -135 -41 -211q-35 -63 -148 -177z" />
<glyph unicode="*" horiz-adv-x="970" d="M137 967l246 133l-246 135l60 98l237 -145l-8 280h119l-8 -280l239 145l58 -98l-246 -135l246 -133l-58 -101l-239 146l8 -281h-119l8 281l-237 -146z" />
<glyph unicode="+" d="M106 479v137h361v357h137v-357h359v-137h-359v-360h-137v360h-361z" />
<glyph unicode="," horiz-adv-x="540" d="M180 180h180v-313l-180 -162v475z" />
<glyph unicode="-" horiz-adv-x="872" d="M156 483v138h561v-138h-561z" />
<glyph unicode="." horiz-adv-x="552" d="M180 0v193h193v-193h-193z" />
<glyph unicode="/" horiz-adv-x="727" d="M0 -152l584 1762h145l-584 -1762h-145z" />
<glyph unicode="0" d="M135 389v680q0 178 113.5 289.5t286 111.5t286 -111.5t113.5 -289.5v-680q0 -178 -113.5 -289.5t-286 -111.5t-286 111.5t-113.5 289.5zM283 397q0 -123 66.5 -200.5t185 -77.5t185 77.5t66.5 200.5v664q0 123 -66.5 200.5t-185 77.5t-185 -77.5t-66.5 -200.5v-664z" />
<glyph unicode="1" d="M256 1055v168l272 235h148v-1458h-148v1294z" />
<glyph unicode="2" d="M139 0v131l576 731q82 106 82 215q0 119 -67.5 190.5t-186.5 71.5q-111 0 -182.5 -65.5t-71.5 -198.5h-148q0 174 110.5 284.5t291 110.5t291 -107.5t110.5 -285.5q0 -84 -26.5 -149.5t-90.5 -145.5l-510 -651h627v-131h-805z" />
<glyph unicode="3" d="M86 371h147q8 -129 87 -191.5t194 -62.5q121 0 201 75.5t80 206.5q0 283 -287 283h-31v129h31q131 0 195.5 68.5t64.5 195.5t-71.5 196.5t-182.5 69.5q-115 0 -183.5 -65.5t-78.5 -177.5h-148q12 174 126 274.5t284 100.5q178 0 289.5 -109t111.5 -287q0 -233 -196 -323 q223 -84 223 -357q0 -195 -121 -303t-307 -108q-182 0 -301 97.5t-127 287.5z" />
<glyph unicode="4" d="M82 231v134l526 1093h158l-526 -1093h424v413h145v-413h178v-134h-178v-231h-145v231h-582z" />
<glyph unicode="5" d="M143 344h148q29 -227 248 -227q113 0 180 67q80 80 80 297q0 76 -9.5 132.5t-34 110.5t-75.5 83t-127 29q-94 0 -156.5 -39t-85.5 -105h-133v766h737v-131h-604v-463q90 100 262 101q160 0 252 -93q121 -121 121 -391q0 -131 -22.5 -223t-94.5 -164q-109 -109 -290 -108 q-188 0 -293 104q-91 92 -103 254z" />
<glyph unicode="6" d="M133 408q0 143 92 327l359 723h151l-325 -655q68 31 153 31q170 0 274.5 -116t104.5 -298q0 -188 -110.5 -310t-292.5 -122q-184 0 -295 115t-111 305zM281 414q0 -133 69.5 -214t186 -81t187.5 81t71 214q0 127 -69 211t-189 84q-117 0 -186.5 -80t-69.5 -215z" />
<glyph unicode="7" d="M156 1098v360h809v-131l-506 -1327h-156l506 1327h-508v-229h-145z" />
<glyph unicode="8" d="M104 401q0 229 220 355q-190 109 -191 323q0 170 113.5 280.5t288 110.5t288 -110.5t113.5 -280.5q0 -215 -188 -323q217 -123 217 -355q0 -182 -123 -297.5t-307.5 -115.5t-307.5 115.5t-123 297.5zM252 403.5q0 -120.5 81 -202.5t201.5 -82t201.5 82t81 202.5 t-81 202.5t-201.5 82t-201.5 -82t-81 -202.5zM281 1077.5q0 -114.5 70.5 -187.5t183 -73t183 73t70.5 187.5t-70.5 188t-183 73.5t-183 -73.5t-70.5 -188z" />
<glyph unicode="9" d="M127 1038q0 188 110.5 310t292.5 122q184 0 295 -114.5t111 -304.5q0 -143 -92 -328l-359 -723h-153l327 655q-68 -31 -155 -30q-168 0 -272.5 115.5t-104.5 297.5zM274 1044q0 -127 68 -210.5t188 -83.5q117 0 187.5 79.5t70.5 214.5q0 133 -70.5 214t-187 81 t-186.5 -81t-70 -214z" />
<glyph unicode=":" horiz-adv-x="608" d="M236 0v193h192v-193h-192zM236 616v193h192v-193h-192z" />
<glyph unicode=";" horiz-adv-x="608" d="M236 616v193h192v-193h-192zM240 180h180v-313l-180 -162v475z" />
<glyph unicode="&#x3c;" horiz-adv-x="2103" d="M113 551l817 817h192l-747 -745h1616v-144h-1616l747 -745h-192z" />
<glyph unicode="=" d="M106 309v135h857v-135h-857zM106 655v138h857v-138h-857z" />
<glyph unicode="&#x3e;" horiz-adv-x="2103" d="M113 479v144h1616l-748 745h193l817 -817l-817 -817h-193l748 745h-1616z" />
<glyph unicode="?" horiz-adv-x="1017" d="M156 1096q0 158 110.5 266t274.5 108t273.5 -105t109.5 -267q0 -113 -93 -248l-167 -242q-37 -55 -37 -119v-79h-148v82q0 102 64 192l166 240q68 100 67 174q0 104 -66.5 172.5t-168.5 68.5q-106 0 -172 -71.5t-66 -171.5h-147zM465 0v172h176v-172h-176z" />
<glyph unicode="@" horiz-adv-x="1460" d="M147 328v688q0 213 115 330q113 115 316 114h303q201 0 315 -114q117 -117 117 -330v-1018l-142 2v113q-100 -127 -274 -127q-180 0 -279 125q-51 63 -70.5 148t-19.5 228q0 264 84 375q94 127 283 127q170 0 274 -129v160q0 152 -79 233q-82 82 -228 82h-266 q-141 0 -223 -82q-45 -45 -63.5 -97t-18.5 -136v-690q0 -96 23.5 -146.5t93.5 -101.5l-101 -100q-94 70 -127 140.5t-33 205.5zM674 487q0 -80 9 -140t33.5 -116.5t76 -87t129.5 -30.5q145 0 196 101t51 273q0 80 -9 140.5t-33.5 117t-76 87t-128.5 30.5 q-145 0 -196.5 -101.5t-51.5 -273.5z" />
<glyph unicode="A" horiz-adv-x="1251" d="M25 0l536 1458h131l535 -1458h-166l-117 330h-637l-117 -330h-165zM354 465h545l-270 770z" />
<glyph unicode="B" horiz-adv-x="1368" d="M211 0v1458h549q193 0 311.5 -104.5t118.5 -284.5q0 -113 -60.5 -199t-154.5 -120q109 -39 173 -129.5t64 -217.5q0 -195 -117.5 -299t-316.5 -104h-567zM367 139h397q135 0 214 73t79 195.5t-79 194.5t-214 72h-397v-535zM367 813h381q127 0 206.5 64.5t79.5 189.5 t-78.5 188.5t-207.5 63.5h-381v-506z" />
<glyph unicode="C" horiz-adv-x="1304" d="M156 729q0 268 21.5 382t115.5 208q151 151 370 151h3q199 0 334 -114.5t171 -319.5h-159q-29 135 -120 215t-226 80q-154 0 -252 -102q-66 -68 -84.5 -164t-18.5 -336t18.5 -336t84.5 -164q98 -102 252 -102q135 0 228 80t122 215h155q-35 -203 -172 -318.5t-333 -115.5 q-221 0 -373 151q-94 94 -115.5 208t-21.5 382z" />
<glyph unicode="D" horiz-adv-x="1378" d="M211 0v1458h500q233 0 368 -135q43 -43 73 -103.5t43 -102.5t20.5 -129t7.5 -114v-129q0 -274 -27 -387q-35 -141 -117 -223q-135 -135 -368 -135h-500zM367 139h317q182 0 287 107q47 49 69.5 145t24.5 158.5t2 195.5q0 127 -2 185.5t-24.5 145.5t-69.5 136 q-104 106 -287 107h-317v-1180z" />
<glyph unicode="E" horiz-adv-x="1228" d="M211 0v1458h905v-139h-749v-514h639v-139h-639v-527h749v-139h-905z" />
<glyph unicode="F" horiz-adv-x="1187" d="M211 0v1458h905v-139h-749v-537h639v-139h-639v-643h-156z" />
<glyph unicode="G" horiz-adv-x="1331" d="M156 729q0 268 21.5 382t115.5 208q151 151 370 151h3q205 0 341 -119.5t169 -316.5h-156q-31 139 -125 218t-229 79q-152 0 -252 -104q-66 -68 -84.5 -163t-18.5 -335t18.5 -336t84.5 -164q98 -102 252 -102q174 0 276 125q82 98 82 264v111h-358v137h514v-232 q0 -244 -125 -376q-156 -168 -389 -168q-221 0 -373 151q-94 94 -115.5 208t-21.5 382z" />
<glyph unicode="H" horiz-adv-x="1425" d="M211 0v1458h156v-653h692v653h155v-1458h-155v666h-692v-666h-156z" />
<glyph unicode="I" horiz-adv-x="577" d="M211 0v1458h156v-1458h-156z" />
<glyph unicode="J" horiz-adv-x="1026" d="M47 119l105 104q47 -47 97 -71.5t132 -24.5q143 0 221 87t78 249v995h156v-1016q0 -209 -126 -331.5t-329 -122.5t-334 131z" />
<glyph unicode="K" horiz-adv-x="1331" d="M211 0v1458h156v-837l680 837h190l-459 -563l525 -895h-185l-444 776l-307 -368v-408h-156z" />
<glyph unicode="L" horiz-adv-x="1173" d="M211 0v1458h156v-1319h745v-139h-901z" />
<glyph unicode="M" horiz-adv-x="1671" d="M211 0v1458h156l475 -1034l463 1034h155v-1458h-155v1108l-400 -879h-133l-405 879v-1108h-156z" />
<glyph unicode="N" horiz-adv-x="1499" d="M211 0v1458h147l775 -1165v1165h155v-1458h-147l-774 1169v-1169h-156z" />
<glyph unicode="O" horiz-adv-x="1331" d="M156 729q0 268 21.5 382t115.5 208q152 152 372 152l1 -1q221 0 372 -151q94 -94 116 -208t22 -382t-21.5 -382t-116.5 -208q-152 -152 -372 -152l-1 1q-221 0 -372 151q-94 94 -115.5 208t-21.5 382zM311 729q0 -240 18.5 -335t84.5 -163q100 -104 251.5 -104t252.5 104 q66 68 84 163t18 335t-18.5 335t-83.5 163q-100 104 -252 104t-252 -104q-66 -68 -84.5 -163t-18.5 -335z" />
<glyph unicode="P" horiz-adv-x="1290" d="M211 0v1458h543q201 0 325.5 -116.5t124.5 -311t-125 -312.5t-325 -118h-387v-600h-156zM367 739h372q141 0 225.5 75t84.5 216t-84 215t-226 74h-372v-580z" />
<glyph unicode="Q" horiz-adv-x="1329" d="M156 729q0 268 21.5 382t115.5 208q152 152 372 152l1 -1q221 0 372 -151q94 -94 116 -208t22 -382q0 -170 -4.5 -244.5t-26 -158.5t-70.5 -144l160 -159l-94 -95l-162 162q-133 -102 -313 -102q-221 0 -373 151q-94 94 -115.5 208t-21.5 382zM311 729q0 -240 18.5 -335 t84.5 -163q100 -104 252 -104q115 0 206 70l-184 184l94 94l179 -178q37 61 48 151.5t11 280.5q0 240 -18.5 335t-83.5 163q-100 104 -252 104t-252 -104q-66 -68 -84.5 -163t-18.5 -335z" />
<glyph unicode="R" horiz-adv-x="1343" d="M211 0v1458h559q193 0 312.5 -109.5t119.5 -295.5q0 -156 -86 -258.5t-231 -132.5l346 -662h-182l-332 647h-350v-647h-156zM367 784h389q133 0 212 69t79 198t-80 198.5t-211 69.5h-389v-535z" />
<glyph unicode="S" horiz-adv-x="1204" d="M86 180l107 107q88 -88 179 -124t218 -36q160 0 252 71.5t92 198.5q0 121 -70 183q-35 31 -71.5 44t-118.5 25l-170 27q-174 29 -268 110q-111 98 -111 273q0 186 126 298.5t341 112.5q139 0 239.5 -36.5t194.5 -122.5l-100 -101q-137 125 -340 125q-143 0 -225 -73.5 t-82 -196.5q0 -111 65 -168q68 -59 197 -80l159 -24q178 -27 267 -103q123 -104 123 -289q0 -190 -137.5 -301.5t-366.5 -111.5q-164 0 -281 45t-219 147z" />
<glyph unicode="T" horiz-adv-x="1122" d="M61 1319v139h1000v-139h-422v-1319h-156v1319h-422z" />
<glyph unicode="U" horiz-adv-x="1398" d="M190 481v977h156v-964q0 -166 96.5 -266.5t256 -100.5t257 100.5t97.5 266.5v964h155v-977q0 -217 -144 -355t-365.5 -138t-365 138t-143.5 355z" />
<glyph unicode="V" horiz-adv-x="1118" d="M16 1458h164l379 -1179l379 1179h164l-479 -1458h-127z" />
<glyph unicode="W" horiz-adv-x="1748" d="M33 1458h166l284 -1175l322 1175h139l322 -1175l284 1175h166l-373 -1458h-145l-324 1167l-323 -1167h-145z" />
<glyph unicode="X" horiz-adv-x="1128" d="M31 0l446 748l-418 710h181l323 -575l324 575h180l-420 -710l451 -748h-180l-355 612l-356 -612h-176z" />
<glyph unicode="Y" horiz-adv-x="1052" d="M16 1458h168l344 -698l340 698h168l-430 -856v-602h-155v602z" />
<glyph unicode="Z" horiz-adv-x="1138" d="M117 0v147l729 1172h-701v139h877v-131l-735 -1188h735v-139h-905z" />
<glyph unicode="[" horiz-adv-x="641" d="M188 -152v1762h363v-131h-215v-1499h215v-132h-363z" />
<glyph unicode="\" horiz-adv-x="727" d="M0 1604h145l582 -1756h-145z" />
<glyph unicode="]" horiz-adv-x="641" d="M90 -25h221v1508h-221v127h363v-1762h-363v127z" />
<glyph unicode="^" horiz-adv-x="1099" d="M147 846l336 624h135l334 -624h-151l-250 467l-252 -467h-152z" />
<glyph unicode="_" horiz-adv-x="1099" d="M0 -233h1100v-105h-1100v105z" />
<glyph unicode="`" horiz-adv-x="1024" d="M256 1530h176l180 -313h-135z" />
<glyph unicode="a" horiz-adv-x="1077" d="M104 285q0 135 91.5 212.5t257.5 77.5h303v97q0 113 -61.5 167t-196.5 54q-96 0 -152.5 -25.5t-101.5 -89.5l-101 92q66 84 148 117t209 33q403 0 403 -336v-684h-147v96q-61 -61 -125 -84.5t-166 -23.5q-195 0 -285 92q-76 76 -76 205zM248 287q0 -172 231 -172 q156 0 226 67q51 49 51 174v109h-283q-225 0 -225 -178z" />
<glyph unicode="b" horiz-adv-x="1116" d="M184 0v1458h148v-567q100 129 284 129q158 0 246 -88q123 -123 123 -428t-123 -428q-88 -88 -246 -88q-182 0 -284 133v-121h-148zM332 504q0 -84 9 -145.5t34.5 -120t79 -89t131.5 -30.5t131 30.5t77.5 89t34 120t9.5 145.5t-9.5 145.5t-34 119.5t-77.5 89t-131 31 t-131.5 -31t-79 -89t-34.5 -119.5t-9 -145.5z" />
<glyph unicode="c" horiz-adv-x="1003" d="M129 504q0 250 124 383t322 133q106 0 180 -33t152 -117l-100 -94q-57 63 -108.5 88t-123.5 25q-154 0 -233 -115q-66 -92 -66 -270t66 -271q79 -114 230 -114h3q72 0 123.5 25.5t108.5 88.5l100 -96q-78 -84 -151.5 -116.5t-180.5 -32.5q-199 0 -322.5 133t-123.5 383z " />
<glyph unicode="d" horiz-adv-x="1116" d="M131 504q0 305 123 428q88 88 246 88q184 0 284 -129v567h148v-1458h-146v121q-102 -133 -286 -133q-158 0 -246 88q-123 123 -123 428zM279 504q0 -84 9 -145.5t34.5 -120t79 -89t131 -30.5t131 30.5t78 89t33.5 120t9 145.5t-9 145.5t-33.5 119.5t-78 89t-131 31 t-131 -31t-79 -89t-34.5 -119.5t-9 -145.5z" />
<glyph unicode="e" horiz-adv-x="1085" d="M129 504q0 244 110.5 380t303.5 136q195 0 304 -131t109 -357v-67h-680q0 -166 77 -257t220 -91q86 0 144.5 26.5t120.5 87.5l100 -88q-82 -82 -164 -118.5t-205 -36.5q-207 0 -323.5 128t-116.5 388zM276 575h533q-6 106 -31 168q-29 70 -92 111t-143 41t-143.5 -41 t-92.5 -111q-25 -62 -31 -168z" />
<glyph unicode="f" horiz-adv-x="643" d="M88 889v112h129v191q0 119 66.5 194.5t189.5 75.5h107v-127h-80q-135 0 -135 -147v-187h215v-112h-215v-889h-148v889h-129z" />
<glyph unicode="g" horiz-adv-x="1112" d="M131 512q0 297 123 420q88 88 246 88q182 0 282 -131v119h146v-1039q0 -190 -113 -311t-307 -121q-111 0 -185.5 31t-156.5 104l96 95q61 -55 110.5 -78t131.5 -23q139 0 207.5 86t68.5 223v158q-102 -131 -282 -131q-154 0 -244 90q-123 123 -123 420zM279 512 q0 -80 9 -139.5t33.5 -117.5t78 -89t131 -31t130 31t77 89t33.5 117.5t9 139.5t-9 139.5t-33.5 117.5t-77 89t-130 31t-131 -31t-78 -89t-33.5 -117.5t-9 -139.5z" />
<glyph unicode="h" horiz-adv-x="1150" d="M184 0v1458h148v-561q109 123 282 123q170 0 266.5 -100.5t96.5 -272.5v-647h-148v623q0 129 -64.5 197.5t-181 68.5t-184 -68.5t-67.5 -197.5v-623h-148z" />
<glyph unicode="i" horiz-adv-x="518" d="M176 1294v166h166v-166h-166zM184 0v1008h148v-1008h-148z" />
<glyph unicode="j" horiz-adv-x="518" d="M-31 -324h80q74 0 104.5 36t30.5 112v1177h148v-1183q0 -121 -64.5 -196t-191.5 -75h-107v129zM176 1294v166h166v-166h-166z" />
<glyph unicode="k" horiz-adv-x="1097" d="M184 0v1458h148v-975l454 525h185l-342 -385l401 -623h-182l-320 516l-196 -225v-291h-148z" />
<glyph unicode="l" horiz-adv-x="608" d="M180 268v1190h148v-1184q0 -76 30.5 -111.5t104.5 -35.5h80v-127h-107q-127 0 -191.5 73.5t-64.5 194.5z" />
<glyph unicode="m" horiz-adv-x="1800" d="M184 0v1008h148v-111q106 123 284 123q215 0 310 -168q119 168 331 168q162 0 261 -94q109 -104 108 -281v-645h-147v621q0 131 -65.5 199.5t-182.5 68.5q-113 0 -182.5 -67.5t-69.5 -184.5v-637h-148v621q0 131 -65.5 199.5t-182 68.5t-184 -69.5t-67.5 -198.5v-621 h-148z" />
<glyph unicode="n" horiz-adv-x="1150" d="M184 0v1008h148v-111q106 123 282 123q164 0 258 -94q104 -102 105 -281v-645h-148v621q0 131 -65.5 199.5t-182 68.5t-183 -69.5t-66.5 -198.5v-621h-148z" />
<glyph unicode="o" horiz-adv-x="1085" d="M131 503.5q0 276.5 123 401.5q115 115 289 115t288 -115q123 -125 123 -401.5t-123 -401.5q-115 -115 -287 -115l-2 1q-174 0 -288 114q-123 125 -123 401.5zM279 503.5q0 -229.5 81 -310.5q74 -74 183 -74q111 0 184 74q80 80 80 311t-80 311q-74 74 -184 74 q-109 0 -183 -74q-81 -82 -81 -311.5z" />
<glyph unicode="p" horiz-adv-x="1116" d="M184 -451v1459h148v-119q100 131 284 131q158 0 246 -88q123 -123 123 -428t-123 -428q-88 -88 -246 -88q-182 0 -284 131v-570h-148zM332 504q0 -84 9 -145.5t34.5 -120t79 -89t131.5 -30.5t131 30.5t77.5 89t34 120t9.5 145.5t-9.5 145.5t-34 119.5t-77.5 89t-131 31 t-131.5 -31t-79 -89t-34.5 -119.5t-9 -145.5z" />
<glyph unicode="q" horiz-adv-x="1116" d="M131 504q0 305 123 428q88 88 246 88q186 0 286 -131v119h146v-1459h-148v570q-102 -131 -284 -131q-158 0 -246 88q-123 123 -123 428zM279 504q0 -84 9 -145.5t34.5 -120t79 -89t131 -30.5t131 30.5t78 89t33.5 120t9 145.5t-9 145.5t-33.5 119.5t-78 89t-131 31 t-131 -31t-79 -89t-34.5 -119.5t-9 -145.5z" />
<glyph unicode="r" horiz-adv-x="862" d="M184 0v1008h148v-123q41 63 117.5 99t164.5 36q147 0 242 -94l-108 -111q-41 41 -79 57.5t-96 16.5q-109 0 -175 -77t-66 -194v-618h-148z" />
<glyph unicode="s" horiz-adv-x="1015" d="M88 133l98 98q110 -116 311 -116h3q127 0 197.5 45t70.5 133q0 133 -168 147l-166 15q-301 25 -301 270q0 135 103.5 215t267.5 80q229 0 362 -109l-96 -96q-104 80 -268 80q-109 0 -167.5 -44t-58.5 -122q0 -133 177 -147l161 -15q143 -12 220 -75.5t77 -196.5 q0 -143 -111.5 -225t-297.5 -82q-262 0 -414 145z" />
<glyph unicode="t" horiz-adv-x="679" d="M82 889v112h127v316h147v-316h215v-112h-215v-615q0 -147 138 -147h77v-127h-104q-125 0 -191.5 76t-66.5 194v619h-127z" />
<glyph unicode="u" horiz-adv-x="1150" d="M174 365v643h148v-621q0 -131 64.5 -199.5t181 -68.5t184 69.5t67.5 198.5v621h148v-1008h-146v113q-109 -125 -284 -125q-166 0 -261 94q-102 101 -102 283z" />
<glyph unicode="v" horiz-adv-x="915" d="M23 1008h159l275 -809l276 809h160l-371 -1008h-131z" />
<glyph unicode="w" horiz-adv-x="1482" d="M23 1008h159l232 -809l264 809h127l266 -809l229 809h160l-317 -1008h-137l-265 782l-262 -782h-137z" />
<glyph unicode="x" horiz-adv-x="978" d="M68 0l342 514l-328 494h178l232 -373l227 373h178l-328 -494l342 -514h-178l-241 391l-246 -391h-178z" />
<glyph unicode="y" horiz-adv-x="915" d="M23 1008h159l277 -809l274 809h160l-459 -1252q-29 -80 -72 -118q-72 -70 -196 -70h-64v131h45q74 0 108 26.5t58 98.5l72 196z" />
<glyph unicode="z" horiz-adv-x="940" d="M102 0v127l562 750h-531v131h701v-125l-564 -752h564v-131h-732z" />
<glyph unicode="{" horiz-adv-x="724" d="M98 664v131h54q55 0 92 36.5t37 122.5v392q0 141 61 202.5t207 61.5h76v-131h-47q-94 0 -121 -27q-29 -29 -29 -133v-385q0 -82 -33 -128t-96 -77q63 -31 96 -77t33 -128v-385q0 -104 29 -133q27 -27 121 -26h47v-132h-76q-145 0 -206.5 61.5t-61.5 203.5v391 q0 86 -37 123t-92 37h-54z" />
<glyph unicode="|" horiz-adv-x="667" d="M260 -152v1762h148v-1762h-148z" />
<glyph unicode="}" horiz-adv-x="724" d="M98 -20h49q92 0 119 26q31 31 31 133v385q0 82 32.5 128t96.5 77q-63 31 -96 77t-33 128v385q0 102 -31 133q-27 27 -119 27h-49v131h78q145 0 206.5 -61.5t61.5 -202.5v-392q0 -86 37 -122.5t92 -36.5h52v-131h-52q-55 0 -92 -37t-37 -123v-391q0 -141 -61 -203 t-207 -62h-78v132z" />
<glyph unicode="~" horiz-adv-x="1103" d="M100 543q84 84 138.5 111.5t126.5 27.5q74 0 215 -64q106 -49 159 -49q45 0 80 17.5t92 75.5l93 -93q-84 -84 -138.5 -111.5t-126.5 -27.5q-76 0 -217 64q-106 49 -160 49q-45 0 -79.5 -17.5t-92.5 -74.5z" />
<glyph unicode="&#xa1;" horiz-adv-x="647" d="M203 836v172h176v-172h-176zM207 -451l20 1049h127l23 -1049h-170z" />
<glyph unicode="&#xa2;" horiz-adv-x="1019" d="M129 749.5q0 217.5 99.5 351.5t271.5 159v198h121v-194q90 -6 158.5 -41t138.5 -111l-101 -94q-92 104 -205 112v-761q113 8 205 112l101 -94q-70 -76 -138.5 -110.5t-158.5 -40.5v-236h-121v240q-172 25 -271.5 158.5t-99.5 351zM276 749.5q0 -176.5 68 -270.5 q63 -88 164 -106v753q-100 -18 -164 -106q-68 -94 -68 -270.5z" />
<glyph unicode="&#xa3;" horiz-adv-x="1122" d="M96 676v110h129v230q0 207 127 330.5t330 123.5t334 -131l-107 -104q-49 49 -97 72.5t-130 23.5q-143 0 -221 -87t-78 -249v-209h299v-110h-299v-537h633v-139h-791v676h-129z" />
<glyph unicode="&#xa4;" horiz-adv-x="1351" d="M160 133l151 152q-90 121 -90 270.5t90 269.5l-151 150l94 94l152 -149q117 88 270 88q152 0 268 -88l154 149l94 -94l-152 -150q90 -121 90 -270t-90 -270l152 -152l-94 -94l-154 151q-121 -90 -268 -90q-150 0 -270 90l-152 -151zM356 555q0 -133 94.5 -226t225.5 -93 t224 93t93 226t-93 225t-224 92q-133 0 -226.5 -93t-93.5 -224z" />
<glyph unicode="&#xa5;" horiz-adv-x="1052" d="M16 1458h168l344 -698l342 698h166l-321 -637h205v-110h-261l-53 -109v-106h314v-113h-314v-383h-157v383h-316v113h316v106l-54 109h-262v110h205z" />
<glyph unicode="&#xa6;" horiz-adv-x="686" d="M260 -152v717h148v-717h-148zM260 893v717h148v-717h-148z" />
<glyph unicode="&#xa7;" horiz-adv-x="1140" d="M178 516q0 119 61.5 205t153.5 131q-190 86 -190 283q0 150 103.5 242.5t265 92.5t264 -87t108.5 -234h-147q-14 190 -226 190q-104 0 -162.5 -52t-58.5 -150q0 -147 172 -197l160 -45q133 -39 207 -137.5t74 -237.5q0 -117 -61.5 -204t-151.5 -132q90 -33 144 -109.5 t54 -185.5q0 -158 -107.5 -255t-269.5 -97q-160 0 -269 86t-118 244h150q8 -94 70.5 -144.5t166.5 -50.5q106 0 167 56.5t61 158.5q0 72 -48.5 128.5t-132.5 80.5l-159 45q-135 39 -208 136.5t-73 238.5zM328 518q0 -115 67.5 -188.5t176 -73.5t176.5 74q66 72 65 188 q0 123 -65 189q-74 74 -177 73q-109 0 -176 -73.5t-67 -188.5z" />
<glyph unicode="&#xa8;" horiz-adv-x="1024" d="M221 1233v182h148v-182h-148zM655 1233v182h148v-182h-148z" />
<glyph unicode="&#xa9;" horiz-adv-x="1804" d="M160 729q0 307 217 524t524 217t524 -217t217 -524t-217 -524t-524 -217t-524 217t-217 524zM281 729q0 -260 181 -445.5t439 -185.5t440.5 185.5t182.5 445.5t-182.5 445.5t-440.5 185.5t-439 -185.5t-181 -445.5zM547 729q0 186 95 302t269 116q145 0 269 -109l-74 -73 q-90 80 -195 79q-131 0 -190 -87t-59 -228t59 -227t190 -86q106 0 195 78l74 -74q-119 -106 -269 -107q-174 0 -269 115t-95 301z" />
<glyph unicode="&#xaa;" horiz-adv-x="919" d="M115 879q0 109 72.5 171t203.5 62h236v74q0 88 -46 130t-153 42q-76 0 -120 -19.5t-81 -70.5l-84 75q53 68 120 95.5t167 27.5q317 0 318 -270v-543h-119v74q-86 -84 -228 -84q-152 0 -225 74q-61 66 -61 162zM236 883q0 -133 176 -133q123 0 176 51q39 37 39 137v82 h-219q-172 0 -172 -137z" />
<glyph unicode="&#xab;" horiz-adv-x="1134" d="M82 549l430 430v-184l-246 -246l246 -248v-182zM545 549l430 430v-184l-248 -246l248 -248v-182z" />
<glyph unicode="&#xac;" d="M104 492v137h861v-418h-138v281h-723z" />
<glyph unicode="&#xad;" horiz-adv-x="872" d="M156 483v138h561v-138h-561z" />
<glyph unicode="&#xae;" horiz-adv-x="1804" d="M160 729q0 307 217 524t524 217t524 -217t217 -524t-217 -524t-524 -217t-524 217t-217 524zM279 729q0 -262 182 -447.5t440 -185.5t441.5 185.5t183.5 447.5t-183.5 447.5t-441.5 185.5t-440 -185.5t-182 -447.5zM659 324v813h277q106 0 181 -71t75 -173 q0 -170 -174 -223l194 -346h-131l-186 331h-123v-331h-113zM772 752h152q68 0 110.5 39.5t42.5 101t-43 102.5t-110 41h-152v-284z" />
<glyph unicode="&#xaf;" horiz-adv-x="1024" d="M203 1257v117h618v-117h-618z" />
<glyph unicode="&#xb0;" horiz-adv-x="948" d="M137 1140.5q0 139.5 99.5 238t238.5 98.5t237.5 -98.5t98.5 -238t-98.5 -237.5t-237.5 -98t-238.5 98t-99.5 237.5zM262 1141q0 -92 61.5 -154.5t151.5 -62.5t150.5 62.5t60.5 154.5t-61.5 154.5t-151.5 62.5t-150.5 -62.5t-60.5 -154.5z" />
<glyph unicode="&#xb1;" d="M106 0v137h857v-137h-857zM106 592v137h361v358h137v-358h359v-137h-359v-363h-137v363h-361z" />
<glyph unicode="&#xb2;" horiz-adv-x="700" d="M98 584v106l338 414q47 59 47 119q0 61 -35.5 99t-97.5 38q-57 0 -95 -34t-38 -103h-119q0 111 71 177t181 66q113 0 182.5 -66.5t69.5 -176.5q0 -90 -80 -189l-282 -344h362v-106h-504z" />
<glyph unicode="&#xb3;" horiz-adv-x="729" d="M98 817h119q2 -68 45 -102.5t105 -34.5q66 0 106.5 40t40.5 109.5t-39 109.5t-115 40h-18v102h18q70 0 105 37t35 102.5t-39 102.5t-96 37q-59 0 -96.5 -35t-41.5 -94h-116q6 109 77.5 172t176.5 63q111 0 181 -67.5t70 -175.5q0 -137 -110 -189q125 -53 125 -205 q0 -121 -75 -188.5t-189 -67.5q-113 0 -189 62.5t-80 181.5z" />
<glyph unicode="&#xb4;" horiz-adv-x="1024" d="M412 1217l180 313h176l-221 -313h-135z" />
<glyph unicode="&#xb5;" horiz-adv-x="1148" d="M170 -451v1459h147v-621q0 -131 66 -199.5t182.5 -68.5t184 69.5t67.5 198.5v621h148v-1008h-148v113q-109 -125 -282 -125q-135 0 -218 75v-514h-147z" />
<glyph unicode="&#xb6;" horiz-adv-x="1234" d="M86 1061q0 170 120 283.5t324 113.5h494v-1909h-147v1770h-240v-1770h-148v1119q-178 0 -290.5 117.5t-112.5 275.5z" />
<glyph unicode="&#xb7;" horiz-adv-x="552" d="M180 457v192h193v-192h-193z" />
<glyph unicode="&#xb8;" horiz-adv-x="1024" d="M358 -442l146 305h137l-121 -305h-162z" />
<glyph unicode="&#xb9;" horiz-adv-x="534" d="M88 1178v135l170 145h117v-874h-117v743z" />
<glyph unicode="&#xba;" horiz-adv-x="931" d="M137 1055q0 219 99 319q92 92 229 92t229 -92q98 -100 98.5 -319t-98.5 -320q-90 -90 -229 -90t-229 90q-99 101 -99 320zM260 1055q0 -180 62 -242q59 -59 143 -59t143 59q63 63 64 242q0 180 -64 243q-57 57 -143 57.5t-143 -57.5q-62 -61 -62 -243z" />
<glyph unicode="&#xbb;" horiz-adv-x="1134" d="M160 119v182l248 248l-248 246v184l430 -430zM623 119v182l245 248l-245 246v184l430 -430z" />
<glyph unicode="&#xbc;" horiz-adv-x="1591" d="M88 1178v135l170 145h117v-874h-117v743zM354 0l682 1458h123l-682 -1458h-123zM946 131v109l309 634h127l-307 -634h223v215h115v-215h96v-109h-96v-131h-115v131h-352z" />
<glyph unicode="&#xbd;" horiz-adv-x="1617" d="M88 1178v135l170 145h117v-874h-117v743zM330 0l682 1458h123l-682 -1458h-123zM1016 0v106l338 414q47 59 47 119q0 61 -36 99t-97 38q-57 0 -95 -33.5t-38 -103.5h-119q0 111 70.5 177.5t181.5 66.5q113 0 182.5 -66.5t69.5 -177.5q0 -90 -80 -188l-281 -345h361v-106 h-504z" />
<glyph unicode="&#xbe;" horiz-adv-x="1683" d="M98 817h119q2 -68 45 -102.5t105 -34.5q66 0 106.5 40t40.5 109.5t-39 109.5t-115 40h-18v102h18q70 0 105 37t35 102.5t-39 102.5t-96 37q-59 0 -96.5 -35t-41.5 -94h-116q6 109 77.5 172t176.5 63q111 0 181 -67.5t70 -175.5q0 -137 -110 -189q125 -53 125 -205 q0 -121 -75 -188.5t-189 -67.5q-113 0 -189 62.5t-80 181.5zM461 0l684 1458h123l-684 -1458h-123zM1038 131v109l310 634h127l-310 -634h226v215h114v-215h97v-109h-97v-131h-114v131h-353z" />
<glyph unicode="&#xbf;" horiz-adv-x="1017" d="M94 -88q0 109 94 246l168 241q37 55 37 119v82h148v-84q0 -98 -66 -192l-166 -238q-68 -100 -67 -174q0 -102 67.5 -172t169.5 -70q106 0 171 71t65 171h147q0 -158 -109.5 -266.5t-273.5 -108.5t-274.5 106.5t-110.5 268.5zM379 836v172h174v-172h-174z" />
<glyph unicode="&#xc0;" horiz-adv-x="1251" d="M25 0l536 1458h131l535 -1458h-166l-117 330h-637l-117 -330h-165zM354 465h545l-270 770zM362 1913h176l180 -313h-135z" />
<glyph unicode="&#xc1;" horiz-adv-x="1251" d="M25 0l536 1458h131l535 -1458h-166l-117 330h-637l-117 -330h-165zM354 465h545l-270 770zM518 1600l180 313h176l-221 -313h-135z" />
<glyph unicode="&#xc2;" horiz-adv-x="1251" d="M25 0l536 1458h131l535 -1458h-166l-117 330h-637l-117 -330h-165zM354 465h545l-270 770zM292 1600l256 313h140l256 -313h-142l-184 213l-184 -213h-142z" />
<glyph unicode="&#xc3;" horiz-adv-x="1251" d="M25 0l536 1458h131l535 -1458h-166l-117 330h-637l-117 -330h-165zM354 465h545l-270 770zM288 1726q104 104 195 105q63 0 145 -49q66 -41 115 -41q55 0 121 65l76 -73q-104 -104 -195 -105q-66 0 -145 47q-74 43 -115 43q-55 0 -121 -65z" />
<glyph unicode="&#xc4;" horiz-adv-x="1251" d="M25 0l536 1458h131l535 -1458h-166l-117 330h-637l-117 -330h-165zM354 465h545l-270 770zM327 1616v182h148v-182h-148zM761 1616v182h148v-182h-148z" />
<glyph unicode="&#xc5;" horiz-adv-x="1251" d="M25 0l536 1458h131l535 -1458h-166l-117 330h-637l-117 -330h-165zM354 465h545l-270 770zM376 1776q0 100 71 171t171 71t171 -71t71 -171t-71 -172t-171 -72t-171 72t-71 172zM477 1776q0 -59 42 -100t99 -41t99 41t42 100q0 57 -41 98t-100 41t-100 -41t-41 -98z" />
<glyph unicode="&#xc6;" horiz-adv-x="1888" d="M16 0l770 1458h990v-139h-750v-518h639v-139h-639v-523h750v-139h-904v346h-505l-181 -346h-170zM434 481h438v838z" />
<glyph unicode="&#xc7;" horiz-adv-x="1304" d="M156 729q0 268 21.5 382t115.5 208q151 151 370 151h3q199 0 334 -114.5t171 -319.5h-159q-29 135 -120 215t-226 80q-154 0 -252 -102q-66 -68 -84.5 -164t-18.5 -336t18.5 -336t84.5 -164q98 -102 252 -102q135 0 228 80t122 215h155q-35 -203 -172 -318.5t-333 -115.5 q-221 0 -373 151q-94 94 -115.5 208t-21.5 382zM475 -442l146 305h137l-121 -305h-162z" />
<glyph unicode="&#xc8;" horiz-adv-x="1228" d="M211 0v1458h905v-139h-749v-514h639v-139h-639v-527h749v-139h-905zM385 1913h176l180 -313h-135z" />
<glyph unicode="&#xc9;" horiz-adv-x="1228" d="M211 0v1458h905v-139h-749v-514h639v-139h-639v-527h749v-139h-905zM541 1600l180 313h176l-221 -313h-135z" />
<glyph unicode="&#xca;" horiz-adv-x="1228" d="M211 0v1458h905v-139h-749v-514h639v-139h-639v-527h749v-139h-905zM315 1600l256 313h140l256 -313h-142l-184 213l-184 -213h-142z" />
<glyph unicode="&#xcb;" horiz-adv-x="1228" d="M211 0v1458h905v-139h-749v-514h639v-139h-639v-527h749v-139h-905zM350 1616v182h148v-182h-148zM784 1616v182h148v-182h-148z" />
<glyph unicode="&#xcc;" horiz-adv-x="577" d="M211 0v1458h156v-1458h-156zM63 1913h176l180 -313h-135z" />
<glyph unicode="&#xcd;" horiz-adv-x="577" d="M211 0v1458h156v-1458h-156zM162 1600l180 313h176l-221 -313h-135z" />
<glyph unicode="&#xce;" horiz-adv-x="577" d="M211 0v1458h156v-1458h-156zM-41 1600l256 313h140l256 -313h-142l-184 213l-184 -213h-142z" />
<glyph unicode="&#xcf;" horiz-adv-x="577" d="M211 0v1458h156v-1458h-156zM-4 1616v182h148v-182h-148zM430 1616v182h148v-182h-148z" />
<glyph unicode="&#xd0;" horiz-adv-x="1406" d="M80 676v121h160v661h501q276 0 420 -219q61 -94 75.5 -180t14.5 -330q0 -250 -16 -341t-74 -173q-154 -215 -432 -215h-489v676h-160zM397 137h316q217 0 319 152q43 66 53.5 139.5t10.5 292.5t-12.5 301t-61.5 152q-109 147 -309 147h-316v-524h330v-121h-330v-539z" />
<glyph unicode="&#xd1;" horiz-adv-x="1499" d="M211 0v1458h147l775 -1165v1165h155v-1458h-147l-774 1169v-1169h-156zM420 1726q104 104 195 105q63 0 145 -49q66 -41 115 -41q55 0 121 65l76 -73q-104 -104 -195 -105q-66 0 -145 47q-74 43 -115 43q-55 0 -121 -65z" />
<glyph unicode="&#xd2;" horiz-adv-x="1331" d="M156 729q0 268 21.5 382t115.5 208q152 152 372 152l1 -1q221 0 372 -151q94 -94 116 -208t22 -382t-21.5 -382t-116.5 -208q-152 -152 -372 -152l-1 1q-221 0 -372 151q-94 94 -115.5 208t-21.5 382zM311 729q0 -240 18.5 -335t84.5 -163q100 -104 251.5 -104t252.5 104 q66 68 84 163t18 335t-18.5 335t-83.5 163q-100 104 -252 104t-252 -104q-66 -68 -84.5 -163t-18.5 -335zM410 1913h176l180 -313h-135z" />
<glyph unicode="&#xd3;" horiz-adv-x="1331" d="M156 729q0 268 21.5 382t115.5 208q152 152 372 152l1 -1q221 0 372 -151q94 -94 116 -208t22 -382t-21.5 -382t-116.5 -208q-152 -152 -372 -152l-1 1q-221 0 -372 151q-94 94 -115.5 208t-21.5 382zM311 729q0 -240 18.5 -335t84.5 -163q100 -104 251.5 -104t252.5 104 q66 68 84 163t18 335t-18.5 335t-83.5 163q-100 104 -252 104t-252 -104q-66 -68 -84.5 -163t-18.5 -335zM566 1600l180 313h176l-221 -313h-135z" />
<glyph unicode="&#xd4;" horiz-adv-x="1331" d="M156 729q0 268 21.5 382t115.5 208q152 152 372 152l1 -1q221 0 372 -151q94 -94 116 -208t22 -382t-21.5 -382t-116.5 -208q-152 -152 -372 -152l-1 1q-221 0 -372 151q-94 94 -115.5 208t-21.5 382zM311 729q0 -240 18.5 -335t84.5 -163q100 -104 251.5 -104t252.5 104 q66 68 84 163t18 335t-18.5 335t-83.5 163q-100 104 -252 104t-252 -104q-66 -68 -84.5 -163t-18.5 -335zM340 1600l256 313h140l256 -313h-142l-184 213l-184 -213h-142z" />
<glyph unicode="&#xd5;" horiz-adv-x="1331" d="M156 729q0 268 21.5 382t115.5 208q152 152 372 152l1 -1q221 0 372 -151q94 -94 116 -208t22 -382t-21.5 -382t-116.5 -208q-152 -152 -372 -152l-1 1q-221 0 -372 151q-94 94 -115.5 208t-21.5 382zM311 729q0 -240 18.5 -335t84.5 -163q100 -104 251.5 -104t252.5 104 q66 68 84 163t18 335t-18.5 335t-83.5 163q-100 104 -252 104t-252 -104q-66 -68 -84.5 -163t-18.5 -335zM336 1726q104 104 195 105q63 0 145 -49q66 -41 115 -41q55 0 121 65l76 -73q-104 -104 -195 -105q-66 0 -145 47q-74 43 -115 43q-55 0 -121 -65z" />
<glyph unicode="&#xd6;" horiz-adv-x="1331" d="M156 729q0 268 21.5 382t115.5 208q152 152 372 152l1 -1q221 0 372 -151q94 -94 116 -208t22 -382t-21.5 -382t-116.5 -208q-152 -152 -372 -152l-1 1q-221 0 -372 151q-94 94 -115.5 208t-21.5 382zM311 729q0 -240 18.5 -335t84.5 -163q100 -104 251.5 -104t252.5 104 q66 68 84 163t18 335t-18.5 335t-83.5 163q-100 104 -252 104t-252 -104q-66 -68 -84.5 -163t-18.5 -335zM375 1616v182h148v-182h-148zM809 1616v182h148v-182h-148z" />
<glyph unicode="&#xd7;" d="M133 244l309 309l-309 309l92 92l310 -311l309 311l92 -92l-311 -309l311 -309l-92 -92l-309 309l-310 -309z" />
<glyph unicode="&#xd8;" horiz-adv-x="1335" d="M156 729q0 268 21.5 382t115.5 208q152 152 373 151q143 0 256 -63l69 141h133l-102 -213l16 -16q94 -94 116 -208t22 -382t-21.5 -382t-116.5 -208q-152 -152 -372 -151q-143 0 -258 65l-68 -143h-133l102 213l-16 16q-94 94 -115.5 208t-21.5 382zM311 729 q0 -213 13.5 -306t58.5 -155l479 1004q-92 59 -196 59q-152 0 -252 -104q-66 -68 -84.5 -163t-18.5 -335zM469 186q92 -59 197 -59q152 0 252 104q66 68 83 162t17 336q0 215 -12.5 307t-57.5 154z" />
<glyph unicode="&#xd9;" horiz-adv-x="1396" d="M190 481v977h156v-964q0 -166 96.5 -266.5t256 -100.5t257 100.5t97.5 266.5v964h155v-977q0 -217 -144 -355t-365.5 -138t-365 138t-143.5 355zM442 1913h176l180 -313h-135z" />
<glyph unicode="&#xda;" horiz-adv-x="1396" d="M190 481v977h156v-964q0 -166 96.5 -266.5t256 -100.5t257 100.5t97.5 266.5v964h155v-977q0 -217 -144 -355t-365.5 -138t-365 138t-143.5 355zM598 1600l180 313h176l-221 -313h-135z" />
<glyph unicode="&#xdb;" horiz-adv-x="1396" d="M190 481v977h156v-964q0 -166 96.5 -266.5t256 -100.5t257 100.5t97.5 266.5v964h155v-977q0 -217 -144 -355t-365.5 -138t-365 138t-143.5 355zM372 1600l256 313h140l256 -313h-142l-184 213l-184 -213h-142z" />
<glyph unicode="&#xdc;" horiz-adv-x="1396" d="M190 481v977h156v-964q0 -166 96.5 -266.5t256 -100.5t257 100.5t97.5 266.5v964h155v-977q0 -217 -144 -355t-365.5 -138t-365 138t-143.5 355zM407 1616v182h148v-182h-148zM841 1616v182h148v-182h-148z" />
<glyph unicode="&#xdd;" horiz-adv-x="1054" d="M16 1458h168l344 -698l340 698h168l-430 -856v-602h-155v602zM426 1600l180 313h176l-221 -313h-135z" />
<glyph unicode="&#xde;" horiz-adv-x="1314" d="M211 0v1458h156v-293h387q201 0 325.5 -117.5t124.5 -312t-125 -311.5t-325 -117h-387v-307h-156zM367 446h372q141 0 225.5 74t84.5 215.5t-84 215t-226 73.5h-372v-578z" />
<glyph unicode="&#xdf;" horiz-adv-x="1138" d="M184 0v1073q0 190 111 295t301 105q174 0 284.5 -86.5t110.5 -253.5q0 -160 -129 -244q74 -39 101.5 -93.5t27.5 -152.5v-354q0 -141 -80 -215t-211 -74h-110v127h82q72 0 121 41q51 41 51 137v346q0 84 -43 127t-121 43h-90v123h74q80 0 130 50t50 136q0 94 -64 154 q-61 59 -192 59q-254 0 -254 -276v-1067h-150z" />
<glyph unicode="&#xe0;" horiz-adv-x="1077" d="M104 285q0 135 91.5 212.5t257.5 77.5h303v97q0 113 -61.5 167t-196.5 54q-96 0 -152.5 -25.5t-101.5 -89.5l-101 92q66 84 148 117t209 33q403 0 403 -336v-684h-147v96q-61 -61 -125 -84.5t-166 -23.5q-195 0 -285 92q-76 76 -76 205zM248 287q0 -172 231 -172 q156 0 226 67q51 49 51 174v109h-283q-225 0 -225 -178zM260 1530h176l180 -313h-135z" />
<glyph unicode="&#xe1;" horiz-adv-x="1077" d="M104 285q0 135 91.5 212.5t257.5 77.5h303v97q0 113 -61.5 167t-196.5 54q-96 0 -152.5 -25.5t-101.5 -89.5l-101 92q66 84 148 117t209 33q403 0 403 -336v-684h-147v96q-61 -61 -125 -84.5t-166 -23.5q-195 0 -285 92q-76 76 -76 205zM248 287q0 -172 231 -172 q156 0 226 67q51 49 51 174v109h-283q-225 0 -225 -178zM416 1217l180 313h176l-221 -313h-135z" />
<glyph unicode="&#xe2;" horiz-adv-x="1077" d="M104 285q0 135 91.5 212.5t257.5 77.5h303v97q0 113 -61.5 167t-196.5 54q-96 0 -152.5 -25.5t-101.5 -89.5l-101 92q66 84 148 117t209 33q403 0 403 -336v-684h-147v96q-61 -61 -125 -84.5t-166 -23.5q-195 0 -285 92q-76 76 -76 205zM248 287q0 -172 231 -172 q156 0 226 67q51 49 51 174v109h-283q-225 0 -225 -178zM190 1217l256 313h140l256 -313h-142l-184 213l-184 -213h-142z" />
<glyph unicode="&#xe3;" horiz-adv-x="1077" d="M104 285q0 135 91.5 212.5t257.5 77.5h303v97q0 113 -61.5 167t-196.5 54q-96 0 -152.5 -25.5t-101.5 -89.5l-101 92q66 84 148 117t209 33q403 0 403 -336v-684h-147v96q-61 -61 -125 -84.5t-166 -23.5q-195 0 -285 92q-76 76 -76 205zM248 287q0 -172 231 -172 q156 0 226 67q51 49 51 174v109h-283q-225 0 -225 -178zM186 1343q104 104 195 105q63 0 145 -49q66 -41 115 -41q55 0 121 65l76 -73q-104 -104 -195 -105q-66 0 -145 47q-74 43 -115 43q-55 0 -121 -65z" />
<glyph unicode="&#xe4;" horiz-adv-x="1077" d="M104 285q0 135 91.5 212.5t257.5 77.5h303v97q0 113 -61.5 167t-196.5 54q-96 0 -152.5 -25.5t-101.5 -89.5l-101 92q66 84 148 117t209 33q403 0 403 -336v-684h-147v96q-61 -61 -125 -84.5t-166 -23.5q-195 0 -285 92q-76 76 -76 205zM248 287q0 -172 231 -172 q156 0 226 67q51 49 51 174v109h-283q-225 0 -225 -178zM225 1233v182h148v-182h-148zM659 1233v182h148v-182h-148z" />
<glyph unicode="&#xe5;" horiz-adv-x="1077" d="M104 285q0 135 91.5 212.5t257.5 77.5h303v97q0 113 -61.5 167t-196.5 54q-96 0 -152.5 -25.5t-101.5 -89.5l-101 92q66 84 148 117t209 33q403 0 403 -336v-684h-147v96q-61 -61 -125 -84.5t-166 -23.5q-195 0 -285 92q-76 76 -76 205zM248 287q0 -172 231 -172 q156 0 226 67q51 49 51 174v109h-283q-225 0 -225 -178zM274 1407q0 100 71 171t171 71t171 -71t71 -171t-71 -172t-171 -72t-171 72t-71 172zM375 1407q0 -59 42 -100t99 -41t99 41t42 100q0 57 -41 98t-100 41t-100 -41t-41 -98z" />
<glyph unicode="&#xe6;" horiz-adv-x="1710" d="M104 285q0 135 91.5 212.5t257.5 77.5h303v97q0 113 -61.5 167t-196.5 54q-96 0 -152.5 -25.5t-101.5 -89.5l-101 92q66 84 148 117t209 33q270 0 354 -158q106 158 315 158q195 0 304.5 -131t109.5 -357v-67h-682q0 -166 78 -257t221 -91q84 0 142.5 26.5t119.5 87.5 l103 -88q-82 -82 -166 -118.5t-207 -36.5q-250 0 -358 174q-68 -96 -152 -135t-217 -39q-195 0 -285 92q-76 76 -76 205zM248 287q0 -172 231 -172q156 0 226 67q51 49 51 174v109h-283q-225 0 -225 -178zM901 575h535q-6 106 -31 168q-29 70 -92.5 111t-143 41t-143 -41 t-92.5 -111q-29 -68 -33 -168z" />
<glyph unicode="&#xe7;" horiz-adv-x="1011" d="M129 504q0 250 124 383t322 133q106 0 180 -33t152 -117l-100 -94q-57 63 -108.5 88t-123.5 25q-154 0 -233 -115q-66 -92 -66 -270t66 -271q79 -114 230 -114h3q72 0 123.5 25.5t108.5 88.5l100 -96q-78 -84 -151.5 -116.5t-180.5 -32.5q-199 0 -322.5 133t-123.5 383z M358 -442l146 305h137l-121 -305h-162z" />
<glyph unicode="&#xe8;" horiz-adv-x="1085" d="M129 504q0 244 110.5 380t303.5 136q195 0 304 -131t109 -357v-67h-680q0 -166 77 -257t220 -91q86 0 144.5 26.5t120.5 87.5l100 -88q-82 -82 -164 -118.5t-205 -36.5q-207 0 -323.5 128t-116.5 388zM276 575h533q-6 106 -31 168q-29 70 -92 111t-143 41t-143.5 -41 t-92.5 -111q-25 -62 -31 -168zM293 1530h176l180 -313h-135z" />
<glyph unicode="&#xe9;" horiz-adv-x="1085" d="M129 504q0 244 110.5 380t303.5 136q195 0 304 -131t109 -357v-67h-680q0 -166 77 -257t220 -91q86 0 144.5 26.5t120.5 87.5l100 -88q-82 -82 -164 -118.5t-205 -36.5q-207 0 -323.5 128t-116.5 388zM276 575h533q-6 106 -31 168q-29 70 -92 111t-143 41t-143.5 -41 t-92.5 -111q-25 -62 -31 -168zM449 1217l180 313h176l-221 -313h-135z" />
<glyph unicode="&#xea;" horiz-adv-x="1085" d="M129 504q0 244 110.5 380t303.5 136q195 0 304 -131t109 -357v-67h-680q0 -166 77 -257t220 -91q86 0 144.5 26.5t120.5 87.5l100 -88q-82 -82 -164 -118.5t-205 -36.5q-207 0 -323.5 128t-116.5 388zM276 575h533q-6 106 -31 168q-29 70 -92 111t-143 41t-143.5 -41 t-92.5 -111q-25 -62 -31 -168zM223 1217l256 313h140l256 -313h-142l-184 213l-184 -213h-142z" />
<glyph unicode="&#xeb;" horiz-adv-x="1085" d="M129 504q0 244 110.5 380t303.5 136q195 0 304 -131t109 -357v-67h-680q0 -166 77 -257t220 -91q86 0 144.5 26.5t120.5 87.5l100 -88q-82 -82 -164 -118.5t-205 -36.5q-207 0 -323.5 128t-116.5 388zM276 575h533q-6 106 -31 168q-29 70 -92 111t-143 41t-143.5 -41 t-92.5 -111q-25 -62 -31 -168zM258 1233v182h148v-182h-148zM692 1233v182h148v-182h-148z" />
<glyph unicode="&#xec;" horiz-adv-x="518" d="M184 0v1008h148v-1008h-148zM37 1530h176l180 -313h-135z" />
<glyph unicode="&#xed;" horiz-adv-x="518" d="M184 0v1008h148v-1008h-148zM136 1217l180 313h176l-221 -313h-135z" />
<glyph unicode="&#xee;" horiz-adv-x="518" d="M184 0v1008h148v-1008h-148zM-68 1217l256 313h140l256 -313h-142l-184 213l-184 -213h-142z" />
<glyph unicode="&#xef;" horiz-adv-x="518" d="M184 0v1008h148v-1008h-148zM-37 1233v182h148v-182h-148zM397 1233v182h148v-182h-148z" />
<glyph unicode="&#xf0;" horiz-adv-x="1085" d="M135 499.5q0 278.5 121 399.5q94 96 250 107q100 4 153 -21l-118 203h-238v106h180l-96 168h154l96 -168h168v-106h-111l129 -227q80 -139 104.5 -231.5t24.5 -229.5q0 -276 -123 -400q-109 -113 -286.5 -112.5t-286.5 112.5q-121 121 -121 399.5zM283 500 q0 -227 79 -307q74 -74 181 -74q109 0 182 74q80 80 80 307q0 229 -80 309q-74 74 -182 74q-106 0 -181 -74q-79 -80 -79 -309z" />
<glyph unicode="&#xf1;" horiz-adv-x="1150" d="M184 0v1008h148v-111q106 123 282 123q164 0 258 -94q104 -102 105 -281v-645h-148v621q0 131 -65.5 199.5t-182 68.5t-183 -69.5t-66.5 -198.5v-621h-148zM254 1343q104 104 195 105q63 0 145 -49q66 -41 115 -41q55 0 121 65l76 -73q-104 -104 -195 -105q-66 0 -145 47 q-74 43 -115 43q-55 0 -121 -65z" />
<glyph unicode="&#xf2;" horiz-adv-x="1085" d="M131 503.5q0 276.5 123 401.5q115 115 289 115t288 -115q123 -125 123 -401.5t-123 -401.5q-115 -115 -287 -115l-2 1q-174 0 -288 114q-123 125 -123 401.5zM279 503.5q0 -229.5 81 -310.5q74 -74 183 -74q111 0 184 74q80 80 80 311t-80 311q-74 74 -184 74 q-109 0 -183 -74q-81 -82 -81 -311.5zM266 1530h176l180 -313h-135z" />
<glyph unicode="&#xf3;" horiz-adv-x="1085" d="M131 503.5q0 276.5 123 401.5q115 115 289 115t288 -115q123 -125 123 -401.5t-123 -401.5q-115 -115 -287 -115l-2 1q-174 0 -288 114q-123 125 -123 401.5zM279 503.5q0 -229.5 81 -310.5q74 -74 183 -74q111 0 184 74q80 80 80 311t-80 311q-74 74 -184 74 q-109 0 -183 -74q-81 -82 -81 -311.5zM443 1217l180 313h176l-221 -313h-135z" />
<glyph unicode="&#xf4;" horiz-adv-x="1085" d="M131 503.5q0 276.5 123 401.5q115 115 289 115t288 -115q123 -125 123 -401.5t-123 -401.5q-115 -115 -287 -115l-2 1q-174 0 -288 114q-123 125 -123 401.5zM279 503.5q0 -229.5 81 -310.5q74 -74 183 -74q111 0 184 74q80 80 80 311t-80 311q-74 74 -184 74 q-109 0 -183 -74q-81 -82 -81 -311.5zM217 1217l256 313h140l256 -313h-142l-184 213l-184 -213h-142z" />
<glyph unicode="&#xf5;" horiz-adv-x="1085" d="M131 503.5q0 276.5 123 401.5q115 115 289 115t288 -115q123 -125 123 -401.5t-123 -401.5q-115 -115 -287 -115l-2 1q-174 0 -288 114q-123 125 -123 401.5zM279 503.5q0 -229.5 81 -310.5q74 -74 183 -74q111 0 184 74q80 80 80 311t-80 311q-74 74 -184 74 q-109 0 -183 -74q-81 -82 -81 -311.5zM213 1343q104 104 195 105q63 0 145 -49q66 -41 115 -41q55 0 121 65l76 -73q-104 -104 -195 -105q-66 0 -145 47q-74 43 -115 43q-55 0 -121 -65z" />
<glyph unicode="&#xf6;" horiz-adv-x="1085" d="M131 503.5q0 276.5 123 401.5q115 115 289 115t288 -115q123 -125 123 -401.5t-123 -401.5q-115 -115 -287 -115l-2 1q-174 0 -288 114q-123 125 -123 401.5zM279 503.5q0 -229.5 81 -310.5q74 -74 183 -74q111 0 184 74q80 80 80 311t-80 311q-74 74 -184 74 q-109 0 -183 -74q-81 -82 -81 -311.5zM252 1233v182h148v-182h-148zM686 1233v182h148v-182h-148z" />
<glyph unicode="&#xf7;" d="M104 483v138h861v-138h-861zM446 100v176h177v-176h-177zM446 827v177h177v-177h-177z" />
<glyph unicode="&#xf8;" horiz-adv-x="1085" d="M131 504q0 276 123 401q115 115 289 115q121 0 215 -55l80 133h114l-116 -197q119 -123 118 -397q0 -276 -123 -402q-115 -115 -288 -114q-121 0 -215 55l-78 -133h-117l117 196q-119 124 -119 398zM279 504q0 -188 51 -273l360 615q-61 43 -147 43q-109 0 -183 -74 q-81 -82 -81 -311zM395 164q63 -45 148 -45q111 0 184 74q80 80 80 311q0 193 -49 272z" />
<glyph unicode="&#xf9;" horiz-adv-x="1153" d="M174 365v643h148v-621q0 -131 64.5 -199.5t181 -68.5t184 69.5t67.5 198.5v621h148v-1008h-146v113q-109 -125 -284 -125q-166 0 -261 94q-102 101 -102 283zM313 1530h176l180 -313h-135z" />
<glyph unicode="&#xfa;" horiz-adv-x="1153" d="M174 365v643h148v-621q0 -131 64.5 -199.5t181 -68.5t184 69.5t67.5 198.5v621h148v-1008h-146v113q-109 -125 -284 -125q-166 0 -261 94q-102 101 -102 283zM469 1217l180 313h176l-221 -313h-135z" />
<glyph unicode="&#xfb;" horiz-adv-x="1153" d="M174 365v643h148v-621q0 -131 64.5 -199.5t181 -68.5t184 69.5t67.5 198.5v621h148v-1008h-146v113q-109 -125 -284 -125q-166 0 -261 94q-102 101 -102 283zM243 1217l256 313h140l256 -313h-142l-184 213l-184 -213h-142z" />
<glyph unicode="&#xfc;" horiz-adv-x="1153" d="M174 365v643h148v-621q0 -131 64.5 -199.5t181 -68.5t184 69.5t67.5 198.5v621h148v-1008h-146v113q-109 -125 -284 -125q-166 0 -261 94q-102 101 -102 283zM278 1233v182h148v-182h-148zM712 1233v182h148v-182h-148z" />
<glyph unicode="&#xfd;" horiz-adv-x="913" d="M23 1008h159l277 -809l274 809h160l-459 -1252q-29 -80 -72 -118q-72 -70 -196 -70h-64v131h45q74 0 108 26.5t58 98.5l72 196zM357 1217l180 313h176l-221 -313h-135z" />
<glyph unicode="&#xfe;" horiz-adv-x="1118" d="M184 -451v1909h148v-567q100 129 284 129q158 0 246 -88q123 -123 123 -428t-123 -428q-88 -88 -246 -88q-182 0 -284 131v-570h-148zM332 504q0 -84 9 -145.5t34.5 -120t79 -89t131.5 -30.5t131 30.5t77.5 89t34 120t9.5 145.5t-9.5 145.5t-34 119.5t-77.5 89t-131 31 t-131.5 -31t-79 -89t-34.5 -119.5t-9 -145.5z" />
<glyph unicode="&#xff;" horiz-adv-x="913" d="M23 1008h159l277 -809l274 809h160l-459 -1252q-29 -80 -72 -118q-72 -70 -196 -70h-64v131h45q74 0 108 26.5t58 98.5l72 196zM166 1233v182h148v-182h-148zM600 1233v182h148v-182h-148z" />
<glyph unicode="&#x131;" horiz-adv-x="518" d="M184 0v1008h148v-1008h-148z" />
<glyph unicode="&#x152;" horiz-adv-x="2025" d="M156 729q0 266 21.5 381t115.5 209q152 152 371 151q221 0 354 -163v151h889v-137h-733q0 -80 1 -261t1 -259h622v-131h-622q0 -80 -1 -266.5t-1 -266.5h737v-137h-893v152q-133 -164 -354 -164q-219 0 -371 151q-94 94 -115.5 209t-21.5 381zM311 729q0 -240 18.5 -335 t84.5 -163q100 -104 251.5 -104t252.5 104q66 68 83 162t17 336t-17.5 336t-82.5 162q-100 104 -252 104t-252 -104q-66 -68 -84.5 -163t-18.5 -335z" />
<glyph unicode="&#x153;" horiz-adv-x="1763" d="M131 503.5q0 276.5 123 401.5q115 115 289 115q115 0 206 -51t138 -144q104 195 334 195q195 0 304 -131t109 -357v-67h-680q0 -166 77 -257t220 -91q86 0 144.5 26.5t120.5 87.5l100 -88q-82 -82 -164 -118.5t-205 -36.5q-254 0 -362 194q-47 -92 -137.5 -143 t-204.5 -51q-174 0 -289 114q-123 125 -123 401.5zM279 503.5q0 -229.5 81 -310.5q74 -74 183 -74q111 0 184 74q80 80 80 311t-80 311q-74 74 -184 74q-109 0 -183 -74q-81 -82 -81 -311.5zM954 575h535q-4 100 -33 168q-29 70 -92.5 111t-143 41t-143 -41t-92.5 -111 q-25 -62 -31 -168z" />
<glyph unicode="&#x178;" horiz-adv-x="1054" d="M16 1458h168l344 -698l340 698h168l-430 -856v-602h-155v602zM235 1616v182h148v-182h-148zM669 1616v182h148v-182h-148z" />
<glyph unicode="&#x2c6;" horiz-adv-x="1024" d="M186 1217l256 313h140l256 -313h-142l-184 213l-184 -213h-142z" />
<glyph unicode="&#x2da;" horiz-adv-x="1024" d="M270 1407q0 100 71 171t171 71t171 -71t71 -171t-71 -172t-171 -72t-171 72t-71 172zM371 1407q0 -59 42 -100t99 -41t99 41t42 100q0 57 -41 98t-100 41t-100 -41t-41 -98z" />
<glyph unicode="&#x2dc;" horiz-adv-x="1024" d="M182 1343q104 104 195 105q63 0 145 -49q66 -41 115 -41q55 0 121 65l76 -73q-104 -104 -195 -105q-66 0 -145 47q-74 43 -115 43q-55 0 -121 -65z" />
<glyph unicode="&#x3bc;" horiz-adv-x="1148" d="M170 -451v1459h147v-621q0 -131 66 -199.5t182.5 -68.5t184 69.5t67.5 198.5v621h148v-1008h-148v113q-109 -125 -282 -125q-135 0 -218 75v-514h-147z" />
<glyph unicode="&#x2000;" horiz-adv-x="1009" />
<glyph unicode="&#x2001;" horiz-adv-x="2018" />
<glyph unicode="&#x2002;" horiz-adv-x="1009" />
<glyph unicode="&#x2003;" horiz-adv-x="2018" />
<glyph unicode="&#x2004;" horiz-adv-x="672" />
<glyph unicode="&#x2005;" horiz-adv-x="504" />
<glyph unicode="&#x2006;" horiz-adv-x="336" />
<glyph unicode="&#x2007;" horiz-adv-x="336" />
<glyph unicode="&#x2008;" horiz-adv-x="252" />
<glyph unicode="&#x2009;" horiz-adv-x="403" />
<glyph unicode="&#x200a;" horiz-adv-x="112" />
<glyph unicode="&#x2010;" horiz-adv-x="872" d="M156 483v138h561v-138h-561z" />
<glyph unicode="&#x2011;" horiz-adv-x="872" d="M156 483v138h561v-138h-561z" />
<glyph unicode="&#x2012;" horiz-adv-x="872" d="M156 483v138h561v-138h-561z" />
<glyph unicode="&#x2013;" d="M106 483v138h857v-138h-857z" />
<glyph unicode="&#x2014;" horiz-adv-x="1871" d="M156 483v140h1560v-140h-1560z" />
<glyph unicode="&#x2018;" horiz-adv-x="538" d="M180 1286v172l178 162v-334h-178z" />
<glyph unicode="&#x2019;" horiz-adv-x="538" d="M180 1124v334h178v-172z" />
<glyph unicode="&#x201a;" horiz-adv-x="538" d="M180 -162v334h178v-172z" />
<glyph unicode="&#x201c;" horiz-adv-x="888" d="M180 1286v172l178 162v-334h-178zM528 1286v172l181 162v-334h-181z" />
<glyph unicode="&#x201d;" horiz-adv-x="888" d="M180 1124v334h178v-172zM528 1124v334h181v-172z" />
<glyph unicode="&#x201e;" horiz-adv-x="888" d="M180 -162v334h178v-172zM528 -162v334h181v-172z" />
<glyph unicode="&#x2022;" horiz-adv-x="1089" d="M211 684q0 139 97.5 236.5t236.5 97.5t236.5 -97.5t97.5 -236.5t-97.5 -236.5t-236.5 -97.5t-236.5 97.5t-97.5 236.5z" />
<glyph unicode="&#x2026;" horiz-adv-x="1550" d="M180 0v188h189v-188h-189zM680 0v188h188v-188h-188zM1182 0v188h188v-188h-188z" />
<glyph unicode="&#x202f;" horiz-adv-x="403" />
<glyph unicode="&#x2039;" horiz-adv-x="671" d="M82 549l430 430v-184l-246 -246l246 -248v-182z" />
<glyph unicode="&#x203a;" horiz-adv-x="671" d="M160 119v182l248 248l-248 246v184l430 -430z" />
<glyph unicode="&#x205f;" horiz-adv-x="504" />
<glyph unicode="&#x2122;" horiz-adv-x="1718" d="M74 1350v108h604v-108h-244v-766h-119v766h-241zM831 584v874h119l267 -530l266 530h116v-874h-116v630l-209 -413h-115l-209 413v-630h-119z" />
<glyph unicode="&#xe000;" horiz-adv-x="1010" d="M0 1010h1010v-1010h-1010v1010z" />
<glyph unicode="&#xfb01;" horiz-adv-x="1150" d="M86 889v112h129v191q0 119 66.5 194.5t189.5 75.5h107v-127h-80q-135 0 -136 -147v-187h216v-112h-216v-889h-147v889h-129zM807 1309v151h168v-151h-168zM817 0v1001h148v-1001h-148z" />
<glyph unicode="&#xfb02;" horiz-adv-x="1232" d="M86 889v112h129v191q0 119 66.5 194.5t189.5 75.5h107v-127h-80q-135 0 -136 -147v-187h216v-112h-216v-889h-147v889h-129zM809 268v1190h147v-1184q0 -76 31 -111.5t105 -35.5h82v-127h-107q-127 0 -192.5 73.5t-65.5 194.5z" />
<glyph unicode="&#xfb03;" horiz-adv-x="1804" d="M1462 1294v166h166v-166h-166zM1470 0v1008h148v-1008h-148zM731 889v112h129v191q0 119 66.5 194.5t189.5 75.5h107v-127h-80q-135 0 -135 -147v-187h215v-112h-215v-889h-148v889h-129zM88 889v112h129v191q0 119 66.5 194.5t189.5 75.5h107v-127h-80q-135 0 -135 -147 v-187h215v-112h-215v-889h-148v889h-129z" />
<glyph unicode="&#xfb04;" horiz-adv-x="1894" d="M1466 268v1190h148v-1184q0 -76 30.5 -111.5t104.5 -35.5h80v-127h-107q-127 0 -191.5 73.5t-64.5 194.5zM731 889v112h129v191q0 119 66.5 194.5t189.5 75.5h107v-127h-80q-135 0 -135 -147v-187h215v-112h-215v-889h-148v889h-129zM88 889v112h129v191 q0 119 66.5 194.5t189.5 75.5h107v-127h-80q-135 0 -135 -147v-187h215v-112h-215v-889h-148v889h-129z" />
</font>
</defs>
</svg>
