<?xml version="1.0" standalone="no"?>
<!DOCTYPE svg PUBLIC "-//W3C//DTD SVG 1.1//EN" "http://www.w3.org/Graphics/SVG/1.1/DTD/svg11.dtd" >
<svg xmlns="http://www.w3.org/2000/svg">
<metadata>
This is a custom SVG webfont generated by Font Squirrel.
Copyright   : c Dutch Design AlbertJan Pool 1995 Published by FontShop International FontFont release 15
</metadata>
<defs>
<font id="DINBlackAlternate" horiz-adv-x="1310" >
<font-face units-per-em="2048" ascent="1667" descent="-381" />
<missing-glyph horiz-adv-x="454" />
<glyph unicode=" "  horiz-adv-x="454" />
<glyph unicode="&#x09;" horiz-adv-x="454" />
<glyph unicode="&#xa0;" horiz-adv-x="454" />
<glyph unicode="!" horiz-adv-x="749" d="M205 1458h422l-90 -973h-242zM221 188.5q0 79.5 57.5 137t137.5 57.5t137 -57.5t57 -137t-57 -137t-137 -57.5t-137.5 57.5t-57.5 137z" />
<glyph unicode="&#x22;" horiz-adv-x="999" d="M117 979v479h301v-479h-301zM582 979v479h301v-479h-301z" />
<glyph unicode="#" horiz-adv-x="1460" d="M100 346v318h170l27 180h-119v317h170l49 314h357l-49 -314h184l49 314h356l-49 -314h119v-317h-170l-27 -180h119v-318h-170l-55 -346h-356l55 346h-185l-55 -346h-356l55 346h-119zM627 664h184l27 180h-185z" />
<glyph unicode="$" horiz-adv-x="1296" d="M10 180l230 230q98 -98 313 -103v271l-80 10q-190 25 -293 129q-100 102 -100 293q0 180 115.5 304t316.5 150v187h258v-183q260 -16 416 -172l-225 -225q-74 74 -232 84v-256l84 -12q193 -27 287 -121q109 -106 108 -320q0 -184 -121.5 -300.5t-316.5 -147.5v-231h-258 v221q-324 10 -502 192zM426 1022q0 -39 29 -68q35 -35 98 -43v242q-63 -12 -95 -49t-32 -82zM729 313q127 25 127 125q0 57 -29 86q-29 31 -98 39v-250z" />
<glyph unicode="%" horiz-adv-x="1755" d="M92 991v195q0 137 89 210.5t220 73.5t220.5 -73.5t89.5 -210.5v-195q0 -137 -89.5 -210.5t-220.5 -73.5t-220 73.5t-89 210.5zM330 999q0 -80 71.5 -79.5t71.5 79.5v179q0 80 -71.5 79.5t-71.5 -79.5v-179zM401 0l695 1458h258l-695 -1458h-258zM1044 272v195 q0 137 89.5 211t220.5 74t220 -74t89 -211v-195q0 -137 -89 -210.5t-220 -73.5t-220.5 73.5t-89.5 210.5zM1282 281q0 -80 71.5 -80t71.5 80v178q0 80 -71.5 80t-71.5 -80v-178z" />
<glyph unicode="&#x26;" horiz-adv-x="1454" d="M100 442q0 211 232 365q-137 154 -137 301q0 166 111.5 264t316.5 98q190 0 298.5 -101t108.5 -265q0 -141 -143 -250q-66 -51 -103 -76l172 -198q55 63 68 211h315q-23 -295 -170 -457l285 -334h-422l-92 106q-53 -39 -81 -57t-101.5 -39.5t-163.5 -21.5 q-494 -1 -494 454zM424 444q0 -66 50 -109.5t120 -43.5q82 0 143 53l-227 260q-86 -60 -86 -160zM530 1100q0 -41 78 -119l49 35q57 41 58 86q0 39 -23.5 62.5t-68.5 23.5q-93 0 -93 -88z" />
<glyph unicode="'" horiz-adv-x="536" d="M117 979v479h303v-479h-303z" />
<glyph unicode="(" horiz-adv-x="733" d="M147 334v790q0 197 60 295q12 20 28.5 44t30 39.5t37 41t32.5 34.5l38 38l35 35l225 -226q-84 -84 -117 -137q-33 -55 -33 -176v-766q0 -121 33 -176q33 -53 117 -137l-225 -226l-35 35l-38 38q-9 9 -32.5 35t-37 41t-30 38.5t-28.5 44.5q-60 98 -60 295z" />
<glyph unicode=")" horiz-adv-x="733" d="M100 33q84 84 117 137q33 55 33 176v766q0 121 -33 176q-33 53 -117 137l226 226l34 -35l38 -38q9 -9 33 -34.5t37 -41t29.5 -39t28.5 -44.5q59 -98 60 -295v-790q0 -197 -60 -295q-12 -20 -28.5 -44t-29.5 -39t-36.5 -41t-33.5 -35l-38 -38l-34 -35z" />
<glyph unicode="*" horiz-adv-x="1036" d="M96 928l215 110l-215 111l115 199l203 -131l-11 241h230l-10 -241l202 131l115 -199l-215 -111l215 -110l-115 -199l-202 131l10 -242h-230l11 242l-203 -131z" />
<glyph unicode="+" horiz-adv-x="1138" d="M100 422v315h312v312h315v-312h311v-315h-311v-311h-315v311h-312z" />
<glyph unicode="," horiz-adv-x="589" d="M117 356h356v-458l-356 -263v721z" />
<glyph unicode="-" horiz-adv-x="872" d="M100 446v316h672v-316h-672z" />
<glyph unicode="." horiz-adv-x="630" d="M100 209q0 90 62.5 152.5t153 62.5t152.5 -62.5t62 -152.5t-62 -152.5t-152.5 -62.5t-153 62.5t-62.5 152.5z" />
<glyph unicode="/" horiz-adv-x="882" d="M0 -152l584 1762h311l-584 -1762h-311z" />
<glyph unicode="0" horiz-adv-x="1138" d="M100 442v338q0 215 137.5 335t332 120t331.5 -120t137 -335v-338q0 -215 -137 -334.5t-331.5 -119.5t-332 119.5t-137.5 334.5zM436 440q0 -74 38 -111.5t95.5 -37.5t95 38t37.5 111v340q0 74 -37.5 113t-95 39t-95.5 -39t-38 -113v-340z" />
<glyph unicode="1" horiz-adv-x="974" d="M113 594v358l311 271h336v-1223h-336v864z" />
<glyph unicode="2" horiz-adv-x="1173" d="M92 0v303l453 354q78 61 113.5 103.5t35.5 87.5q0 57 -34.5 91t-96.5 34q-55 0 -95 -33t-40 -109h-336q0 207 136.5 326t334.5 119q203 0 335 -113.5t132 -306.5q0 -113 -73.5 -206t-227.5 -212l-176 -135h498v-303h-959z" />
<glyph unicode="3" horiz-adv-x="1118" d="M61 209h336q0 -74 42 -114t108 -40q68 0 108.5 40t40.5 116q0 66 -44 110t-111 44h-47v290h47q70 0 104.5 41t34.5 97q0 66 -39 102.5t-94 36.5t-94 -37t-39 -100h-336q0 201 134 320.5t335 119.5q203 0 336 -122t133 -310.5t-152 -284.5q168 -117 168 -317 q0 -217 -139 -333t-346 -116q-129 0 -234.5 44t-178.5 150.5t-73 262.5z" />
<glyph unicode="4" horiz-adv-x="1267" d="M84 61v320l473 946h363l-474 -946h271v233h319v-233h150v-320h-150v-313h-319v313h-633z" />
<glyph unicode="5" horiz-adv-x="1169" d="M129 209h336q16 -154 137 -154q57 0 94 37q43 43 43 170q0 115 -34.5 161t-102.5 46q-35 0 -60.5 -10t-41 -28.5t-21.5 -32t-14 -33.5h-309v858h888v-303h-583v-226q74 57 196 58q180 0 283 -103q82 -82 108.5 -174t26.5 -213q0 -137 -27.5 -222t-107.5 -163 q-125 -125 -338 -125q-219 0 -346 127q-49 49 -77.5 110.5t-36 106.5t-13.5 113z" />
<glyph unicode="6" horiz-adv-x="1150" d="M72 465q0 139 36.5 249.5t124.5 272.5l275 504h362l-338 -592q47 25 144 25q162 0 282.5 -121t120.5 -338q0 -229 -144 -353t-359.5 -124t-359.5 124t-144 353zM408 465q0 -88 48 -137t119.5 -49t119.5 49t48 137t-48 137t-119.5 49t-119.5 -49t-48 -137z" />
<glyph unicode="7" horiz-adv-x="1193" d="M92 690v533h1030v-303l-506 -1156h-364l506 1156h-346v-230h-320z" />
<glyph unicode="8" horiz-adv-x="1179" d="M100 436q0 84 34 155t60.5 97.5t69.5 61.5q-150 125 -149 288q0 199 139 315.5t335.5 116.5t336 -116.5t139.5 -315.5q0 -164 -150 -288q43 -35 70 -61.5t60.5 -97.5t33.5 -155q0 -217 -138 -332.5t-351 -115.5t-351.5 115.5t-138.5 332.5zM436 444.5q0 -63.5 45 -108.5 t108.5 -45t108.5 45t45 108.5t-45 108.5t-108.5 45t-108.5 -45t-45 -108.5zM451 1028q0 -57 40.5 -98t98 -41t98.5 41t41 98t-41 98t-98.5 41t-98 -41t-40.5 -98z" />
<glyph unicode="9" horiz-adv-x="1150" d="M72 758q0 229 144 353t359.5 124t359.5 -124t144 -353q0 -139 -36.5 -250t-124.5 -272l-275 -504h-362l337 592q-47 -25 -143 -25q-162 0 -282.5 121t-120.5 338zM408 758q0 -88 48 -137.5t119.5 -49.5t119.5 49.5t48 137.5t-48 137t-119.5 49t-119.5 -49t-48 -137z" />
<glyph unicode=":" horiz-adv-x="677" d="M147 209q0 90 63.5 152.5t152 62.5t152 -62.5t63.5 -152.5t-63.5 -152.5t-152 -62.5t-152 62.5t-63.5 152.5zM147 721q0 90 63.5 152.5t152 62.5t152 -62.5t63.5 -152.5t-63.5 -152.5t-152 -62.5t-152 62.5t-63.5 152.5z" />
<glyph unicode=";" horiz-adv-x="649" d="M147 721q0 90 63.5 152.5t152 62.5t152 -62.5t63.5 -152.5t-63.5 -152.5t-152 -62.5t-152 62.5t-63.5 152.5zM184 356h357v-458l-357 -263v721z" />
<glyph unicode="&#x3c;" horiz-adv-x="2103" d="M279 422v420l614 -623v1340h315v-1340l615 623v-420l-772 -772z" />
<glyph unicode="=" horiz-adv-x="1138" d="M100 197v315h938v-315h-938zM100 696v316h938v-316h-938z" />
<glyph unicode="&#x3e;" horiz-adv-x="2103" d="M281 369v419l772 773l772 -773v-419l-615 622v-1341h-315v1341z" />
<glyph unicode="?" horiz-adv-x="1101" d="M123 1038q0 201 132 316.5t327 115.5q193 0 325.5 -113.5t132.5 -316.5q0 -127 -104 -262l-141 -178q-37 -45 -37 -96v-19h-336v47q0 129 84 228l143 168q55 63 56 114q0 55 -32 90t-91 35q-123 0 -123 -129h-336zM395 188.5q0 79.5 57.5 137t137.5 57.5t137 -57.5 t57 -137t-57 -137t-137 -57.5t-137.5 57.5t-57.5 137z" />
<glyph unicode="@" horiz-adv-x="1605" d="M100 350v570q0 147 29 246.5t102.5 173t175 102t250.5 28.5h291q147 0 248.5 -27.5t177.5 -103.5q74 -74 102.5 -173t28.5 -246v-928l-309 8v82q-98 -94 -231 -94q-152 0 -246 90q-66 61 -82 143t-16 242t16 240.5t82 144.5q94 90 244 90q135 0 223 -84v53 q0 129 -65.5 194.5t-194.5 65.5h-246q-129 0 -194.5 -65.5t-65.5 -194.5v-536q0 -61 16.5 -98t57.5 -78l-232 -232q-88 88 -125 171t-37 216zM940 462.5q0 -106.5 29.5 -151.5t93 -45t93.5 45t30 151.5t-30 151.5t-93.5 45t-93 -45t-29.5 -151.5z" />
<glyph unicode="A" horiz-adv-x="1337" d="M0 0l530 1458h277l530 -1458h-374l-68 217h-449l-71 -217h-375zM547 516h254l-123 389z" />
<glyph unicode="B" horiz-adv-x="1337" d="M147 0v1458h605q223 0 344 -114.5t121 -307.5q0 -180 -160 -288q33 -20 55.5 -38t55 -56t51 -95t18.5 -129q0 -203 -127 -316.5t-328 -113.5h-635zM506 322h242q68 0 99.5 37.5t31.5 91t-32 90.5t-99 37h-242v-256zM506 899h223q68 0 98.5 35t30.5 84t-30.5 84t-98.5 35 h-223v-238z" />
<glyph unicode="C" horiz-adv-x="1120" d="M100 595v134v134q0 34 7.5 116t21.5 125t44 100.5t75 102.5q164 164 404 164l2 -1q242 0 403 -161l-238 -238q-29 29 -47 43t-49 25.5t-70 11.5q-92 0 -139 -61q-29 -37 -42 -108t-13 -253t13 -252.5t42 -107.5q47 -61 139 -62q55 0 89 18.5t77 61.5l238 -237 q-162 -162 -403.5 -162t-405.5 164q-45 45 -75 102t-44 100t-21.5 125t-7.5 116z" />
<glyph unicode="D" horiz-adv-x="1333" d="M147 0v1458h541q250 0 393 -143q31 -31 55.5 -67t40 -62.5t26.5 -72.5t17.5 -66.5t9.5 -79t3 -71.5v-85v-82v-74v-74q0 -19 -1 -66.5t-6 -69t-11.5 -61.5t-18.5 -65.5t-27.5 -58.5t-37 -60.5t-50.5 -56.5q-143 -143 -393 -143h-541zM506 319h158q117 0 172 82 q23 33 30.5 92.5t7.5 235.5t-8 235.5t-30 92.5q-55 82 -172 82h-158v-820z" />
<glyph unicode="E" horiz-adv-x="1245" d="M147 0v1458h992v-319h-633v-244h541v-320h-541v-256h633v-319h-992z" />
<glyph unicode="F" horiz-adv-x="1220" d="M147 0v1458h992v-319h-633v-256h541v-320h-541v-563h-359z" />
<glyph unicode="G" horiz-adv-x="1296" d="M100 595v134v134q0 34 7.5 116t21.5 125t44 100.5t75 102.5q163 163 402 163h3q154 0 252.5 -39.5t198.5 -140.5l-244 -243q-57 57 -99 80.5t-108 23.5q-92 0 -141 -64q-29 -37 -41 -105.5t-12 -252.5t12 -253.5t41 -106.5q47 -61 142 -61q0 -1 1 -1q93 0 146 58 q53 53 53 159v17h-201v299h557v-197q0 -182 -31.5 -293.5t-111.5 -193.5q-164 -168 -414 -168q-242 0 -405 164q-45 45 -75 102t-44 100t-21.5 125t-7.5 116z" />
<glyph unicode="H" horiz-adv-x="1392" d="M147 0v1458h359v-561h381v561h358v-1458h-358v578h-381v-578h-359z" />
<glyph unicode="I" horiz-adv-x="653" d="M147 0v1458h359v-1458h-359z" />
<glyph unicode="J" horiz-adv-x="1056" d="M-16 147l235 234q74 -74 162 -74t139 50.5t51 150.5v950h359v-958q0 -244 -163 -378t-386 -134q-129 0 -219 35.5t-178 123.5z" />
<glyph unicode="K" horiz-adv-x="1378" d="M147 0v1458h355v-516l422 516h438l-498 -590l514 -868h-417l-336 598l-123 -141v-457h-355z" />
<glyph unicode="L" horiz-adv-x="1179" d="M147 0v1458h359v-1139h612v-319h-971z" />
<glyph unicode="M" horiz-adv-x="1654" d="M147 0v1458h353l327 -643l328 643h352v-1458h-358v698l-207 -360h-229l-207 360v-698h-359z" />
<glyph unicode="N" horiz-adv-x="1433" d="M147 0v1458h314l467 -733v733h358v-1458h-313l-467 733v-733h-359z" />
<glyph unicode="O" d="M100 595v134v134q0 34 7.5 116t21.5 125t44 100.5t75 102.5q164 164 406 164l2 -1q244 0 407 -163q45 -45 74.5 -102.5t44 -100.5t21.5 -125t7 -116v-134v-134q0 -34 -7 -116t-21.5 -125t-44 -100t-74.5 -102q-164 -164 -407.5 -164t-407.5 164q-45 45 -75 102t-44 100 t-21.5 125t-7.5 116zM459 729q0 -184 12 -251.5t41 -104.5q49 -66 143.5 -66t143.5 66q29 37 41 104.5t12 251.5t-12.5 253t-40.5 105q-49 63 -143 63q-1 0 -2 1q-93 0 -142 -64q-29 -37 -41 -105.5t-12 -252.5z" />
<glyph unicode="P" horiz-adv-x="1284" d="M147 0v1458h578q231 0 364.5 -138t133.5 -330.5t-133.5 -331t-364.5 -138.5h-219v-520h-359zM506 842h203q70 0 112.5 44t42.5 103.5t-43 103.5t-112 44h-203v-295z" />
<glyph unicode="Q" d="M100 595v134v134q0 34 7.5 116t21.5 125t44 100.5t75 102.5q164 164 406 164q1 0 2 -1q243 0 407 -163q45 -45 74.5 -102.5t44 -100.5t21.5 -125t7 -116v-134q0 -131 -2 -187.5t-21.5 -150.5t-60.5 -160l107 -106l-182 -182l-113 112q-115 -67 -278 -67h-5 q-244 0 -407 164q-45 45 -75 102t-44 100t-21.5 125t-7.5 116zM459 729q0 -184 12 -251.5t41 -104.5q49 -66 143 -66q18 0 29 2l-92 92l182 183l70 -70q8 98 8 215q0 184 -12.5 253t-40.5 105q-49 63 -143 63q-1 1 -2 1q-93 0 -142 -64q-29 -37 -41 -105.5t-12 -252.5z" />
<glyph unicode="R" horiz-adv-x="1335" d="M147 0v1458h578q231 0 364.5 -138t133.5 -331q0 -137 -70 -234.5t-168 -146.5l315 -608h-415l-258 543h-121v-543h-359zM506 842h203q70 0 112.5 44t42.5 103.5t-43 103.5t-112 44h-203v-295z" />
<glyph unicode="S" horiz-adv-x="1214" d="M10 180l230 230q102 -102 325 -103q209 0 209 131q0 55 -29 86q-31 31 -96 39l-176 25q-195 29 -293 129q-100 102 -100 293q0 203 144.5 331.5t387.5 128.5q317 0 492 -174l-225 -225q-43 43 -104.5 63.5t-88.5 21.5t-84 1q-86 0 -131 -41t-45 -94q0 -39 29 -68 q35 -35 100 -43l176 -24q193 -27 287 -121q109 -106 108 -320q0 -215 -160.5 -336.5t-402.5 -121.5q-180 0 -314.5 41.5t-238.5 150.5z" />
<glyph unicode="T" horiz-adv-x="1198" d="M61 1139v319h1076v-319h-359v-1139h-358v1139h-359z" />
<glyph unicode="U" horiz-adv-x="1351" d="M123 512v946h358v-938q0 -100 51.5 -156.5t141.5 -56.5t143 56.5t53 156.5v938h359v-946q0 -233 -161 -378.5t-394.5 -145.5t-392 145.5t-158.5 378.5z" />
<glyph unicode="V" horiz-adv-x="1230" d="M0 1458h371l245 -815l242 815h373l-483 -1458h-267z" />
<glyph unicode="W" horiz-adv-x="1855" d="M0 1458h375l190 -770l236 770h254l235 -770l191 770h374l-399 -1458h-293l-235 719l-236 -719h-291z" />
<glyph unicode="X" horiz-adv-x="1298" d="M0 0l455 748l-426 710h407l213 -411l213 411h408l-426 -710l454 -748h-409l-240 449l-239 -449h-410z" />
<glyph unicode="Y" horiz-adv-x="1239" d="M0 1458h391l230 -524l227 524h391l-440 -864v-594h-359v594z" />
<glyph unicode="Z" horiz-adv-x="1112" d="M61 0v279l560 860h-535v319h965v-278l-562 -861h562v-319h-990z" />
<glyph unicode="[" horiz-adv-x="851" d="M147 -152v1762h623v-303h-287v-1155h287v-304h-623z" />
<glyph unicode="\" horiz-adv-x="882" d="M0 1573h311l572 -1725h-312z" />
<glyph unicode="]" horiz-adv-x="851" d="M82 -152v304h287v1155h-287v303h623v-1762h-623z" />
<glyph unicode="^" d="M117 768l383 707h311l383 -707h-354l-185 338l-184 -338h-354z" />
<glyph unicode="_" d="M0 -160h1311v-221h-1311v221z" />
<glyph unicode="`" horiz-adv-x="1024" d="M186 1618h344l101 -369h-203z" />
<glyph unicode="a" horiz-adv-x="1097" d="M55 346q0 135 95.5 227.5t279.5 92.5h223v28q0 74 -39 105.5t-127 31.5q-61 0 -98 -16t-78 -57l-209 209q84 84 172 115.5t230 31.5q485 0 485 -399v-715h-327v90q-53 -53 -107.5 -76.5t-138.5 -23.5q-166 0 -264 98q-97 96 -97 258zM377 354q0 -39 28.5 -65.5 t81.5 -26.5q90 0 134 41q33 31 32 111v28h-170q-49 0 -77.5 -24.5t-28.5 -63.5z" />
<glyph unicode="b" horiz-adv-x="1165" d="M127 0v1458h336v-436q92 92 246 92q166 0 266 -100q39 -39 61.5 -89.5t30.5 -129t9 -112.5t1 -132v-25q0 -106 -3 -165.5t-27.5 -142.5t-71.5 -130q-100 -100 -268 -100q-152 0 -254 102v-90h-326zM463 551q0 -137 26.5 -198.5t112.5 -61.5t112.5 61.5t26.5 198.5 t-26.5 198.5t-112.5 61.5t-112.5 -61.5t-26.5 -198.5z" />
<glyph unicode="c" horiz-adv-x="972" d="M78 551q0 137 33.5 242.5t85 165t121 96.5t130 48t125.5 11q221 0 363 -141l-227 -228q-66 66 -136 66q-61 0 -104 -43q-55 -57 -55 -217t55 -217q43 -43 104 -43q70 0 136 65l227 -227q-141 -141 -363 -141q-66 0 -126 11t-129.5 48t-121 96.5t-85 165t-33.5 242.5z" />
<glyph unicode="d" horiz-adv-x="1165" d="M88 551v24q0 106 3 166t27.5 143t71.5 130q100 100 267 100q154 0 245 -92v436h336v-1458h-325v90q-102 -102 -254 -102q-168 0 -269 100q-39 39 -61.5 89t-30.5 129t-9 113t-1 132zM424 551q0 -137 26.5 -198.5t112.5 -61.5t112.5 61.5t26.5 198.5t-26.5 198.5 t-112.5 61.5t-112.5 -61.5t-26.5 -198.5z" />
<glyph unicode="e" horiz-adv-x="1144" d="M78 551q0 264 136 413.5t357 149.5q231 0 363.5 -148.5t132.5 -373.5v-150h-659q0 -72 52 -122t142 -50q82 0 130 21.5t97 70.5l201 -200q-90 -90 -186 -132t-242 -42q-524 0 -524 563zM408 666h327q0 49 -18 86q-37 86 -145.5 86t-145.5 -86q-18 -37 -18 -86z" />
<glyph unicode="f" horiz-adv-x="733" d="M61 801v258h101v96q0 129 86 227.5t256 98.5h178v-283h-117q-68 0 -67 -68v-71h184v-258h-184v-801h-336v801h-101z" />
<glyph unicode="g" horiz-adv-x="1148" d="M88 592q0 178 16.5 266t85.5 158q98 98 261 98q143 0 245 -102v90h326v-1022q0 -197 -137 -323t-361 -126q-137 0 -235.5 32t-177.5 112l208 209q70 -70 189 -70q96 0 137 51t41 117v80q-92 -92 -237 -92q-160 0 -259 98q-70 70 -86 158t-16 266zM424 592q0 -51 3 -83 t15.5 -66.5t40 -52t72.5 -17.5t72.5 17.5t40 52t15.5 66.5t3 83t-3 83t-15.5 66.5t-40 52t-72.5 17.5t-72.5 -17.5t-40 -52t-15.5 -66.5t-3 -83z" />
<glyph unicode="h" horiz-adv-x="1173" d="M127 0v1458h336v-446q102 102 242 102q172 0 262 -111.5t90 -287.5v-715h-336v668q0 78 -42 110.5t-87 32.5t-87 -33t-42 -110v-668h-336z" />
<glyph unicode="i" horiz-adv-x="589" d="M90 1356q0 84 60.5 144.5t144.5 60.5t144.5 -60.5t60.5 -144.5t-60.5 -144.5t-144.5 -60.5t-144.5 60.5t-60.5 144.5zM127 0v1059h336v-1059h-336z" />
<glyph unicode="j" horiz-adv-x="589" d="M-57 -86h116q68 0 68 68v1077h336v-1102q0 -129 -86 -227.5t-256 -98.5h-178v283zM90 1356q0 84 60.5 144.5t144.5 60.5t144.5 -60.5t60.5 -144.5t-60.5 -144.5t-144.5 -60.5t-144.5 60.5t-60.5 144.5z" />
<glyph unicode="k" horiz-adv-x="1173" d="M127 0v1458h336v-741l297 385h403l-405 -457l416 -645h-416l-230 403l-65 -71v-332h-336z" />
<glyph unicode="l" horiz-adv-x="698" d="M117 326v1132h336v-1108q0 -67 65 -67h2h117v-283h-178q-170 0 -256 98.5t-86 227.5z" />
<glyph unicode="m" horiz-adv-x="1792" d="M127 0v1102h328v-90q102 102 256 102q166 0 268 -117q133 117 311 117q170 0 264 -94q121 -121 121 -315v-705h-336v659q0 84 -43 118t-92 34t-92 -34t-43 -118v-659h-336v659q0 84 -43 118t-92 34t-92 -34t-43 -118v-659h-336z" />
<glyph unicode="n" horiz-adv-x="1185" d="M127 0v1102h328v-90q102 102 255.5 102t247.5 -94q111 -111 111 -315v-705h-336v659q0 84 -43 118t-92 34t-92 -34t-43 -118v-659h-336z" />
<glyph unicode="o" horiz-adv-x="1126" d="M88 551q0 162 26.5 255t94.5 167q133 141 354 141t355 -141q68 -74 94 -167t26 -255q0 -164 -25.5 -255t-94.5 -167q-133 -141 -354.5 -141t-354.5 141q-70 76 -95.5 167t-25.5 255zM424 551q0 -180 49 -229q31 -31 90.5 -31t89.5 31q49 49 49 229t-49 229q-31 31 -90 31 t-90 -31q-49 -49 -49 -229z" />
<glyph unicode="p" horiz-adv-x="1165" d="M127 -356v1458h326v-90q102 102 254 102q168 0 268 -100q39 -39 61.5 -89.5t30.5 -129t9 -112.5t1 -132v-25q0 -106 -3 -165.5t-27.5 -142.5t-71.5 -130q-100 -100 -266 -100q-154 0 -246 92v-436h-336zM463 551q0 -137 26.5 -198.5t112.5 -61.5t112.5 61.5t26.5 198.5 t-26.5 198.5t-112.5 61.5t-112.5 -61.5t-26.5 -198.5z" />
<glyph unicode="q" horiz-adv-x="1165" d="M88 551v24q0 106 3 166t27.5 143t71.5 130q100 100 269 100q152 0 254 -102v90h325v-1458h-336v436q-92 -92 -245 -92q-166 0 -267 100q-39 39 -61.5 89t-30.5 129t-9 113t-1 132zM424 551q0 -137 26.5 -198.5t112.5 -61.5t112.5 61.5t26.5 198.5t-26.5 198.5 t-112.5 61.5t-112.5 -61.5t-26.5 -198.5z" />
<glyph unicode="r" horiz-adv-x="972" d="M127 0v1102h328v-90q102 102 260 102q156 0 258 -102l-254 -258q-57 57 -121 57q-47 0 -91 -35t-44 -117v-659h-336z" />
<glyph unicode="s" horiz-adv-x="1032" d="M20 147l218 218q92 -92 268 -93q51 0 97 16.5t46 55.5q0 61 -80 70l-170 16q-319 31 -319 320q0 172 130 268t308 96q299 0 434 -135l-207 -207q-66 66 -233 66q-55 0 -82 -20.5t-27 -43.5q0 -12 1.5 -20.5t18.5 -22.5t52 -18l170 -17q166 -16 249 -106t83 -230 q0 -184 -135 -278t-342 -94q-102 0 -168 7t-153 43.5t-159 108.5z" />
<glyph unicode="t" horiz-adv-x="743" d="M51 801v258h101v315h335v-315h175v-258h-175v-451q0 -67 66 -67h2h107v-283h-168q-170 0 -256 98.5t-86 227.5v475h-101z" />
<glyph unicode="u" horiz-adv-x="1185" d="M117 397v705h336v-660q0 -84 43 -117.5t92 -33.5t92 33.5t43 117.5v660h336v-1102h-328v90q-102 -102 -255.5 -102t-248.5 94q-110 110 -110 315z" />
<glyph unicode="v" horiz-adv-x="1067" d="M0 1102h352l183 -572l180 572h352l-405 -1102h-256z" />
<glyph unicode="w" horiz-adv-x="1597" d="M0 1102h354l138 -572l190 572h233l191 -572l137 572h354l-331 -1102h-269l-198 604l-199 -604h-268z" />
<glyph unicode="x" horiz-adv-x="1138" d="M0 0l383 563l-369 539h404l149 -266l154 266h403l-368 -539l383 -563h-404l-168 279l-164 -279h-403z" />
<glyph unicode="y" horiz-adv-x="1052" d="M0 1102h352l187 -572l178 572h352l-457 -1233q-33 -92 -86 -145q-86 -92 -247 -93h-127v303h71q47 0 71.5 16.5t41.5 65.5l31 93z" />
<glyph unicode="z" horiz-adv-x="1001" d="M61 0v248l420 551h-395v303h834v-248l-428 -551h428v-303h-859z" />
<glyph unicode="{" horiz-adv-x="1060" d="M82 578v303h119q78 0 114 37q35 35 35 122v244q0 141 99 240q86 86 243 86h287v-303h-143q-88 0 -117 -29q-33 -33 -33 -131v-213q0 -166 -149 -205q150 -39 149 -205v-213q0 -98 33 -131q29 -29 117 -28h143v-304h-287q-158 0 -243 86q-98 98 -99 240v244q0 88 -35 123 q-37 37 -114 37h-119z" />
<glyph unicode="|" horiz-adv-x="745" d="M205 -152v1762h336v-1762h-336z" />
<glyph unicode="}" horiz-adv-x="1060" d="M82 -152v304h143q88 0 117 28q33 33 33 131v213q0 166 149 205q-150 39 -149 205v213q0 98 -33 131q-29 29 -117 29h-143v303h287q158 0 243 -86q98 -98 99 -240v-244q0 -88 34 -122q37 -37 115 -37h119v-303h-119q-78 0 -115 -37q-35 -35 -34 -123v-244q0 -141 -99 -240 q-86 -86 -243 -86h-287z" />
<glyph unicode="~" horiz-adv-x="1323" d="M61 633q104 104 189.5 150t189.5 46q133 0 252 -69q88 -51 172 -51q96 0 180 84l218 -213q-104 -104 -191.5 -150.5t-191.5 -46.5q-133 0 -252 70q-88 51 -172 51q-96 0 -181 -84z" />
<glyph unicode="&#xa1;" horiz-adv-x="749" d="M205 -356l90 972h242l90 -972h-422zM221 913.5q0 79.5 57.5 137t137.5 57.5t137 -57.5t57 -137t-57 -137t-137 -57.5t-137.5 57.5t-57.5 137z" />
<glyph unicode="&#xa2;" horiz-adv-x="1021" d="M78 749.5q0 233.5 106.5 372t274.5 176.5v160h258v-160q147 -35 268 -155l-219 -219q-51 51 -90 67v-483q39 16 90 67l219 -219q-121 -121 -268 -155v-201h-258v201q-168 39 -274.5 177t-106.5 371.5zM414 750q0 -150 59 -215q16 -16 27 -23v475q-16 -12 -25 -20 q-61 -65 -61 -217z" />
<glyph unicode="&#xa3;" horiz-adv-x="1222" d="M72 569v258h123v131q0 244 162.5 378t385.5 134q129 0 219.5 -35.5t178.5 -123.5l-236 -234q-74 74 -162 74t-139 -50t-51 -151v-123h190v-258h-190v-250h588v-319h-946v569h-123z" />
<glyph unicode="&#xa4;" horiz-adv-x="1380" d="M96 233l150 150q-53 111 -53 221.5t53 220.5l-150 150l223 223l150 -149q111 53 221.5 53t220.5 -53l150 149l223 -223l-149 -150q53 -111 53 -221t-53 -221l149 -150l-223 -223l-150 150q-111 -53 -221 -53.5t-221 53.5l-150 -150zM496 604q0 -80 57 -137t137 -57 t137.5 57t57.5 137t-57.5 137.5t-137.5 57.5t-137 -57.5t-57 -137.5z" />
<glyph unicode="&#xa5;" horiz-adv-x="1239" d="M0 1458h391l230 -524l227 524h391l-256 -504h123v-258h-256l-51 -102v-102h307v-259h-307v-233h-359v233h-307v259h307v102l-51 102h-256v258h123z" />
<glyph unicode="&#xa6;" horiz-adv-x="745" d="M205 -152v717h336v-717h-336zM205 893v717h336v-717h-336z" />
<glyph unicode="&#xa7;" horiz-adv-x="1056" d="M92 559q0 96 54.5 172t115.5 115q-135 82 -135 258q0 150 101.5 258t306.5 108q209 0 308 -104t99 -266h-311q0 86 -96 86q-47 0 -72 -21.5t-25 -50.5q0 -57 115 -98l111 -41q166 -61 237.5 -143t71.5 -248q0 -94 -53.5 -170t-112.5 -117q145 -88 145 -277 q0 -193 -127 -291t-295 -98q-80 0 -150.5 20.5t-134 62.5t-100 120t-36.5 180h319q0 -37 27.5 -63.5t74.5 -26.5q49 0 76 24.5t27 59.5q0 74 -121 119l-111 41q-166 61 -237.5 143t-71.5 248zM412 571.5q0 -71.5 41 -108.5q31 -27 80 -27t79 27q41 37 41 108.5t-41 108.5 q-31 27 -80 27t-79 -27q-41 -37 -41 -108.5z" />
<glyph unicode="&#xa8;" horiz-adv-x="1024" d="M109 1392.5q0 67.5 48 115.5t115.5 48t115.5 -48t48 -115.5t-48 -115.5t-115.5 -48t-115.5 48t-48 115.5zM588 1392.5q0 67.5 48 115.5t115.5 48t115.5 -48t48 -115.5t-48 -115.5t-115.5 -48t-115.5 48t-48 115.5z" />
<glyph unicode="&#xa9;" horiz-adv-x="1683" d="M100 729q0 307 217.5 524t524.5 217t524 -217t217 -524t-217 -524t-524 -217t-524.5 217t-217.5 524zM311 729.5q0 -237.5 150.5 -390.5t380 -153t380 153t150.5 390.5t-150.5 390t-380 152.5t-380 -152.5t-150.5 -390zM489 729.5q0 194.5 109 293.5t262 99 q147 0 270 -106l-137 -137q-68 55 -133 55q-74 0 -117 -52.5t-43 -152.5t43 -152.5t117 -52.5q66 0 133 56l137 -138q-123 -106 -270 -106q-154 0 -262.5 99.5t-108.5 294z" />
<glyph unicode="&#xaa;" horiz-adv-x="935" d="M88 856q0 109 76 182.5t223 73.5h178v23q0 59 -30.5 84.5t-102.5 25.5q-49 0 -76.5 -12t-62.5 -47l-168 168q68 68 137.5 92t183.5 24q387 0 388 -319v-571h-263v71q-80 -80 -196 -80q-129 0 -209 80q-78 78 -78 205zM348 864.5q0 -30.5 22.5 -51t61.5 -20.5q76 0 107 30 q27 27 26 86v25h-135q-39 0 -60.5 -19.5t-21.5 -50z" />
<glyph unicode="&#xab;" horiz-adv-x="1376" d="M61 573l560 553v-395l-162 -158l162 -159v-396zM694 573l559 553v-395l-166 -158l166 -159v-396z" />
<glyph unicode="&#xac;" horiz-adv-x="1138" d="M88 487v316h963v-623h-316v307h-647z" />
<glyph unicode="&#xad;" horiz-adv-x="872" d="M100 446v316h672v-316h-672z" />
<glyph unicode="&#xae;" horiz-adv-x="1683" d="M100 729q0 307 217.5 524t524.5 217t524 -217t217 -524t-217 -524t-524 -217t-524.5 217t-217.5 524zM311 729.5q0 -237.5 150.5 -390.5t380 -153t380 153t150.5 390.5t-150.5 390t-380 152.5t-380 -152.5t-150.5 -390zM557 342v774h346q123 0 193.5 -73.5t70.5 -176.5 q0 -137 -125 -200l146 -324h-240l-117 289h-63v-289h-211zM768 788h106q37 0 59.5 23t22.5 55.5t-22.5 55t-59.5 22.5h-106v-156z" />
<glyph unicode="&#xaf;" horiz-adv-x="1024" d="M178 1309v215h668v-215h-668z" />
<glyph unicode="&#xb0;" horiz-adv-x="995" d="M96 1094q0 166 118 283.5t284 117.5t283.5 -117.5t117.5 -283.5t-117.5 -284t-283.5 -118t-284 118t-118 284zM365 1093.5q0 -55.5 38.5 -94t94 -38.5t94.5 38.5t39 94t-39 94.5t-94.5 39t-94 -39t-38.5 -94.5z" />
<glyph unicode="&#xb1;" horiz-adv-x="1138" d="M100 0v315h938v-315h-938zM100 760v315h312v311h315v-311h311v-315h-311v-311h-315v311h-312z" />
<glyph unicode="&#xb2;" horiz-adv-x="751" d="M82 584v213l309 315q45 45 45 82q0 27 -16.5 43t-42.5 16q-57 0 -58 -61h-237q0 131 85 202.5t210 71.5q129 0 211 -72.5t82 -199.5q0 -70 -28 -117t-93 -110l-178 -170h299v-213h-588z" />
<glyph unicode="&#xb3;" horiz-adv-x="768" d="M82 862h235q-2 -35 16.5 -54.5t49.5 -19.5q66 0 66 72q0 29 -20.5 49.5t-47.5 20.5h-33v203h33q31 0 46 19t15 40q0 29 -17 45t-40 16q-25 0 -42 -16t-15 -47h-238q-2 125 84 200.5t211 75.5q127 0 210 -75.5t83 -190.5q0 -100 -82 -164q90 -84 90 -184q0 -135 -87 -206 t-216 -71q-125 0 -214 71t-87 216z" />
<glyph unicode="&#xb4;" horiz-adv-x="1024" d="M393 1249l101 369h344l-242 -369h-203z" />
<glyph unicode="&#xb5;" horiz-adv-x="1196" d="M127 -356v1458h336v-660q0 -84 43 -117.5t92 -33.5t92 33.5t43 117.5v660h336v-1102h-328v90q-102 -102 -256 -102h-22v-344h-336z" />
<glyph unicode="&#xb6;" horiz-adv-x="1447" d="M61 1030q0 213 135.5 320.5t358.5 107.5h745v-1814h-335v1495h-185v-1495h-336v966q-143 0 -263 123t-120 297z" />
<glyph unicode="&#xb7;" horiz-adv-x="630" d="M100 604q0 88 62.5 151.5t153 63.5t152.5 -63.5t62 -151.5t-62 -151.5t-152.5 -63.5t-153 63.5t-62.5 151.5z" />
<glyph unicode="&#xb8;" horiz-adv-x="1024" d="M309 -410l137 295h236l-74 -295h-299z" />
<glyph unicode="&#xb9;" horiz-adv-x="636" d="M72 1024v266l194 168h238v-874h-238v608z" />
<glyph unicode="&#xba;" horiz-adv-x="954" d="M96 1020q0 129 21.5 203.5t77.5 134.5q104 113 282 112.5t283 -112.5q55 -59 76.5 -134t21.5 -204q0 -131 -21.5 -205t-76.5 -133q-104 -113 -282.5 -113t-282.5 113q-55 59 -77 133t-22 205zM367 1019.5q0 -145.5 39 -183.5q25 -25 71.5 -25t71.5 25q39 39 39 184 t-39 184q-25 25 -72 25t-71 -25q-39 -39 -39 -184.5z" />
<glyph unicode="&#xbb;" horiz-adv-x="1376" d="M123 18v396l164 159l-164 158v395l559 -553zM756 18v396l162 159l-162 158v395l559 -553z" />
<glyph unicode="&#xbc;" horiz-adv-x="1783" d="M72 1024v266l194 168h238v-874h-238v608zM397 0l695 1458h258l-695 -1458h-258zM1059 109v225l282 540h261l-285 -540h108v76h224v-76h53v-225h-53v-109h-224v109h-366z" />
<glyph unicode="&#xbd;" horiz-adv-x="1851" d="M72 1024v266l194 168h238v-874h-238v608zM397 0l695 1458h258l-695 -1458h-258zM1182 0v213l309 315q45 45 45 82q0 27 -16.5 43.5t-42.5 16.5q-57 0 -58 -62h-237q0 131 85 203t210 72q129 0 210.5 -73t81.5 -200q0 -70 -27.5 -117t-92.5 -110l-179 -170h299v-213h-587z " />
<glyph unicode="&#xbe;" horiz-adv-x="1824" d="M82 862h235q-2 -35 16.5 -54.5t49.5 -19.5q66 0 66 72q0 29 -20.5 49.5t-47.5 20.5h-33v203h33q31 0 46 19t15 40q0 29 -17 45t-40 16q-25 0 -42 -16t-15 -47h-238q-2 125 84 200.5t211 75.5q127 0 210 -75.5t83 -190.5q0 -100 -82 -164q90 -84 90 -184q0 -135 -87 -206 t-216 -71q-125 0 -214 71t-87 216zM438 0l695 1458h258l-695 -1458h-258zM1100 109v225l282 540h260l-284 -540h108v76h224v-76h53v-225h-53v-109h-224v109h-366z" />
<glyph unicode="&#xbf;" horiz-adv-x="1101" d="M123 61q0 127 104 263l142 178q37 45 37 96v18h335v-47q0 -129 -84 -227l-143 -168q-55 -63 -55 -115q0 -55 31.5 -90t91.5 -35q123 0 123 129h335q0 -201 -132 -316.5t-326 -115.5q-193 0 -326 113.5t-133 316.5zM379 913.5q0 79.5 57.5 137t137 57.5t137 -57.5 t57.5 -137t-57.5 -137t-137 -57.5t-137 57.5t-57.5 137z" />
<glyph unicode="&#xc0;" horiz-adv-x="1337" d="M0 0l530 1458h277l530 -1458h-374l-68 217h-449l-71 -217h-375zM547 516h254l-123 389zM342 1970h344l101 -369h-203z" />
<glyph unicode="&#xc1;" horiz-adv-x="1337" d="M0 0l530 1458h277l530 -1458h-374l-68 217h-449l-71 -217h-375zM547 516h254l-123 389zM549 1601l101 369h344l-242 -369h-203z" />
<glyph unicode="&#xc2;" horiz-adv-x="1337" d="M0 0l530 1458h277l530 -1458h-374l-68 217h-449l-71 -217h-375zM547 516h254l-123 389zM260 1601l279 367h258l279 -367h-246l-162 170l-162 -170h-246z" />
<glyph unicode="&#xc3;" horiz-adv-x="1337" d="M0 0l530 1458h277l530 -1458h-374l-68 217h-449l-71 -217h-375zM547 516h254l-123 389zM273 1788q70 70 125 99.5t125 29.5q90 0 165 -45q59 -35 113 -35q63 0 119 55l143 -141q-70 -70 -126 -99.5t-126 -29.5q-90 0 -166 45q-59 35 -114 35q-63 0 -119 -56z" />
<glyph unicode="&#xc4;" horiz-adv-x="1337" d="M0 0l530 1458h277l530 -1458h-374l-68 217h-449l-71 -217h-375zM547 516h254l-123 389zM265 1744.5q0 67.5 48 115.5t115.5 48t115.5 -48t48 -115.5t-48 -115.5t-115.5 -48t-115.5 48t-48 115.5zM744 1744.5q0 67.5 48 115.5t115.5 48t115.5 -48t48 -115.5t-48 -115.5 t-115.5 -48t-115.5 48t-48 115.5z" />
<glyph unicode="&#xc5;" horiz-adv-x="1337" d="M0 0l530 1458h277l530 -1458h-374l-68 217h-449l-71 -217h-375zM547 516h254l-123 389zM385 1829q0 117 83 200t200 83t200 -82t83 -201q0 -117 -83 -200t-200 -83t-200 83t-83 200zM562 1829q0 -43 31.5 -74.5t74.5 -31.5t74.5 31.5t31.5 74.5t-31.5 75t-74.5 32 t-74.5 -32t-31.5 -75z" />
<glyph unicode="&#xc6;" horiz-adv-x="2074" d="M0 0l758 1458h1210v-319h-633v-244h541v-320h-541v-256h633v-319h-991v305h-434l-158 -305h-385zM698 604h279v535z" />
<glyph unicode="&#xc7;" horiz-adv-x="1120" d="M100 595v134v134q0 34 7.5 116t21.5 125t44 100.5t75 102.5q164 164 404 164l2 -1q242 0 403 -161l-238 -238q-29 29 -47 43t-49 25.5t-70 11.5q-92 0 -139 -61q-29 -37 -42 -108t-13 -253t13 -252.5t42 -107.5q47 -61 139 -62q55 0 89 18.5t77 61.5l238 -237 q-162 -162 -403.5 -162t-405.5 164q-45 45 -75 102t-44 100t-21.5 125t-7.5 116zM415 -410l137 295h236l-74 -295h-299z" />
<glyph unicode="&#xc8;" horiz-adv-x="1245" d="M147 0v1458h992v-319h-633v-244h541v-320h-541v-256h633v-319h-992zM305 1970h344l101 -369h-203z" />
<glyph unicode="&#xc9;" horiz-adv-x="1245" d="M147 0v1458h992v-319h-633v-244h541v-320h-541v-256h633v-319h-992zM512 1601l101 369h344l-242 -369h-203z" />
<glyph unicode="&#xca;" horiz-adv-x="1245" d="M147 0v1458h992v-319h-633v-244h541v-320h-541v-256h633v-319h-992zM223 1601l279 367h258l279 -367h-246l-162 170l-162 -170h-246z" />
<glyph unicode="&#xcb;" horiz-adv-x="1245" d="M147 0v1458h992v-319h-633v-244h541v-320h-541v-256h633v-319h-992zM228 1744.5q0 67.5 48 115.5t115.5 48t115.5 -48t48 -115.5t-48 -115.5t-115.5 -48t-115.5 48t-48 115.5zM707 1744.5q0 67.5 48 115.5t115.5 48t115.5 -48t48 -115.5t-48 -115.5t-115.5 -48t-115.5 48 t-48 115.5z" />
<glyph unicode="&#xcc;" horiz-adv-x="653" d="M147 0v1458h359v-1458h-359zM16 1970h344l101 -369h-203z" />
<glyph unicode="&#xcd;" horiz-adv-x="653" d="M147 0v1458h359v-1458h-359zM209 1601l101 369h344l-242 -369h-203z" />
<glyph unicode="&#xce;" horiz-adv-x="653" d="M147 0v1458h359v-1458h-359zM-93 1601l279 367h258l279 -367h-246l-162 170l-162 -170h-246z" />
<glyph unicode="&#xcf;" horiz-adv-x="653" d="M147 0v1458h359v-1458h-359zM-77 1744.5q0 67.5 48 115.5t115.5 48t115.5 -48t48 -115.5t-48 -115.5t-115.5 -48t-115.5 48t-48 115.5zM402 1744.5q0 67.5 48 115.5t115.5 48t115.5 -48t48 -115.5t-48 -115.5t-115.5 -48t-115.5 48t-48 115.5z" />
<glyph unicode="&#xd0;" horiz-adv-x="1390" d="M72 600v274h133v584h540q250 0 394 -143q31 -31 55.5 -67t39.5 -62.5t26.5 -72.5t17.5 -66.5t9 -79t3 -71.5v-85v-82v-74v-74q0 -19 -1 -66.5t-6 -69t-11 -61.5t-18.5 -65.5t-28 -58.5t-37 -60.5t-49.5 -56.5q-143 -143 -394 -143h-540v600h-133zM563 319h158 q117 0 172 82q23 33 31 92.5t8 235.5t-8.5 235.5t-30.5 92.5q-55 82 -172 82h-158v-265h185v-274h-185v-281z" />
<glyph unicode="&#xd1;" horiz-adv-x="1433" d="M147 0v1458h314l467 -733v733h358v-1458h-313l-467 733v-733h-359zM322 1788q70 70 125 99.5t125 29.5q90 0 165 -45q59 -35 113 -35q63 0 119 55l143 -141q-70 -70 -126 -99.5t-126 -29.5q-90 0 -166 45q-59 35 -114 35q-63 0 -119 -56z" />
<glyph unicode="&#xd2;" d="M100 595v134v134q0 34 7.5 116t21.5 125t44 100.5t75 102.5q164 164 406 164l2 -1q244 0 407 -163q45 -45 74.5 -102.5t44 -100.5t21.5 -125t7 -116v-134v-134q0 -34 -7 -116t-21.5 -125t-44 -100t-74.5 -102q-164 -164 -407.5 -164t-407.5 164q-45 45 -75 102t-44 100 t-21.5 125t-7.5 116zM459 729q0 -184 12 -251.5t41 -104.5q49 -66 143.5 -66t143.5 66q29 37 41 104.5t12 251.5t-12.5 253t-40.5 105q-49 63 -143 63q-1 0 -2 1q-93 0 -142 -64q-29 -37 -41 -105.5t-12 -252.5zM329 1970h344l101 -369h-203z" />
<glyph unicode="&#xd3;" d="M100 595v134v134q0 34 7.5 116t21.5 125t44 100.5t75 102.5q164 164 406 164l2 -1q244 0 407 -163q45 -45 74.5 -102.5t44 -100.5t21.5 -125t7 -116v-134v-134q0 -34 -7 -116t-21.5 -125t-44 -100t-74.5 -102q-164 -164 -407.5 -164t-407.5 164q-45 45 -75 102t-44 100 t-21.5 125t-7.5 116zM459 729q0 -184 12 -251.5t41 -104.5q49 -66 143.5 -66t143.5 66q29 37 41 104.5t12 251.5t-12.5 253t-40.5 105q-49 63 -143 63q-1 0 -2 1q-93 0 -142 -64q-29 -37 -41 -105.5t-12 -252.5zM536 1601l101 369h344l-242 -369h-203z" />
<glyph unicode="&#xd4;" d="M100 595v134v134q0 34 7.5 116t21.5 125t44 100.5t75 102.5q164 164 406 164l2 -1q244 0 407 -163q45 -45 74.5 -102.5t44 -100.5t21.5 -125t7 -116v-134v-134q0 -34 -7 -116t-21.5 -125t-44 -100t-74.5 -102q-164 -164 -407.5 -164t-407.5 164q-45 45 -75 102t-44 100 t-21.5 125t-7.5 116zM459 729q0 -184 12 -251.5t41 -104.5q49 -66 143.5 -66t143.5 66q29 37 41 104.5t12 251.5t-12.5 253t-40.5 105q-49 63 -143 63q-1 0 -2 1q-93 0 -142 -64q-29 -37 -41 -105.5t-12 -252.5zM247 1601l279 367h258l279 -367h-246l-162 170l-162 -170 h-246z" />
<glyph unicode="&#xd5;" d="M100 595v134v134q0 34 7.5 116t21.5 125t44 100.5t75 102.5q164 164 406 164l2 -1q244 0 407 -163q45 -45 74.5 -102.5t44 -100.5t21.5 -125t7 -116v-134v-134q0 -34 -7 -116t-21.5 -125t-44 -100t-74.5 -102q-164 -164 -407.5 -164t-407.5 164q-45 45 -75 102t-44 100 t-21.5 125t-7.5 116zM459 729q0 -184 12 -251.5t41 -104.5q49 -66 143.5 -66t143.5 66q29 37 41 104.5t12 251.5t-12.5 253t-40.5 105q-49 63 -143 63q-1 0 -2 1q-93 0 -142 -64q-29 -37 -41 -105.5t-12 -252.5zM260 1788q70 70 125 99.5t125 29.5q90 0 165 -45 q59 -35 113 -35q63 0 119 55l143 -141q-70 -70 -126 -99.5t-126 -29.5q-90 0 -166 45q-59 35 -114 35q-63 0 -119 -56z" />
<glyph unicode="&#xd6;" d="M100 595v134v134q0 34 7.5 116t21.5 125t44 100.5t75 102.5q164 164 406 164l2 -1q244 0 407 -163q45 -45 74.5 -102.5t44 -100.5t21.5 -125t7 -116v-134v-134q0 -34 -7 -116t-21.5 -125t-44 -100t-74.5 -102q-164 -164 -407.5 -164t-407.5 164q-45 45 -75 102t-44 100 t-21.5 125t-7.5 116zM459 729q0 -184 12 -251.5t41 -104.5q49 -66 143.5 -66t143.5 66q29 37 41 104.5t12 251.5t-12.5 253t-40.5 105q-49 63 -143 63q-1 0 -2 1q-93 0 -142 -64q-29 -37 -41 -105.5t-12 -252.5zM252 1744.5q0 67.5 48 115.5t115.5 48t115.5 -48t48 -115.5 t-48 -115.5t-115.5 -48t-115.5 48t-48 115.5zM731 1744.5q0 67.5 48 115.5t115.5 48t115.5 -48t48 -115.5t-48 -115.5t-115.5 -48t-115.5 48t-48 115.5z" />
<glyph unicode="&#xd7;" horiz-adv-x="1138" d="M80 330l278 274l-278 277l213 213l274 -277l277 277l215 -213l-279 -277l279 -274l-213 -213l-277 276l-274 -276z" />
<glyph unicode="&#xd8;" d="M100 595v134v134q0 34 7.5 116t21.5 125t44 100.5t75 102.5q164 164 407 163q123 0 215 -36l56 114h241l-112 -233l8 -8q45 -45 74.5 -102.5t44 -100.5t21.5 -125t7 -116v-134v-134q0 -34 -7 -116t-21.5 -125t-44 -100t-74.5 -102q-164 -164 -408 -164q-123 0 -215 37 l-55 -115h-242l113 233l-8 9q-45 45 -75 102t-44 100t-21.5 125t-7.5 116zM459 729q0 -119 6 -190l280 591q-41 20 -90 21q-94 0 -143 -64q-29 -37 -41 -105.5t-12 -252.5zM565 330q39 -23 90 -23q94 0 144 66q29 37 41 104.5t12 251.5q0 119 -6 191z" />
<glyph unicode="&#xd9;" horiz-adv-x="1351" d="M123 512v946h358v-938q0 -100 51.5 -156.5t141.5 -56.5t143 56.5t53 156.5v938h359v-946q0 -233 -161 -378.5t-394.5 -145.5t-392 145.5t-158.5 378.5zM350 1970h344l101 -369h-203z" />
<glyph unicode="&#xda;" horiz-adv-x="1351" d="M123 512v946h358v-938q0 -100 51.5 -156.5t141.5 -56.5t143 56.5t53 156.5v938h359v-946q0 -233 -161 -378.5t-394.5 -145.5t-392 145.5t-158.5 378.5zM557 1601l101 369h344l-242 -369h-203z" />
<glyph unicode="&#xdb;" horiz-adv-x="1351" d="M123 512v946h358v-938q0 -100 51.5 -156.5t141.5 -56.5t143 56.5t53 156.5v938h359v-946q0 -233 -161 -378.5t-394.5 -145.5t-392 145.5t-158.5 378.5zM268 1601l279 367h258l279 -367h-246l-162 170l-162 -170h-246z" />
<glyph unicode="&#xdc;" horiz-adv-x="1351" d="M123 512v946h358v-938q0 -100 51.5 -156.5t141.5 -56.5t143 56.5t53 156.5v938h359v-946q0 -233 -161 -378.5t-394.5 -145.5t-392 145.5t-158.5 378.5zM273 1744.5q0 67.5 48 115.5t115.5 48t115.5 -48t48 -115.5t-48 -115.5t-115.5 -48t-115.5 48t-48 115.5zM752 1744.5 q0 67.5 48 115.5t115.5 48t115.5 -48t48 -115.5t-48 -115.5t-115.5 -48t-115.5 48t-48 115.5z" />
<glyph unicode="&#xdd;" horiz-adv-x="1239" d="M0 1458h391l230 -524l227 524h391l-440 -864v-594h-359v594zM499 1601l101 369h344l-242 -369h-203z" />
<glyph unicode="&#xde;" horiz-adv-x="1284" d="M147 0v1458h359v-252h219q231 0 364.5 -138t133.5 -330.5t-133.5 -331t-364.5 -138.5h-219v-268h-359zM506 590h203q70 0 112.5 44t42.5 103.5t-43 103.5t-112 44h-203v-295z" />
<glyph unicode="&#xdf;" horiz-adv-x="1196" d="M127 0v1063q0 213 134 310t357 97q219 0 347.5 -92t128.5 -278q0 -152 -125 -223q125 -61 125 -211v-312q0 -174 -86 -262q-92 -92 -283 -92h-107v283h39q47 0 72 24q27 25 27 74v264q0 47 -25 72q-25 27 -74 26h-39v258h48q90 0 90 86q0 39 -25 60q-35 31 -113 31 q-86 0 -119.5 -35t-33.5 -109v-1034h-338z" />
<glyph unicode="&#xe0;" horiz-adv-x="1097" d="M55 346q0 135 95.5 227.5t279.5 92.5h223v28q0 74 -39 105.5t-127 31.5q-61 0 -98 -16t-78 -57l-209 209q84 84 172 115.5t230 31.5q485 0 485 -399v-715h-327v90q-53 -53 -107.5 -76.5t-138.5 -23.5q-166 0 -264 98q-97 96 -97 258zM377 354q0 -39 28.5 -65.5 t81.5 -26.5q90 0 134 41q33 31 32 111v28h-170q-49 0 -77.5 -24.5t-28.5 -63.5zM219 1618h344l101 -369h-203z" />
<glyph unicode="&#xe1;" horiz-adv-x="1097" d="M55 346q0 135 95.5 227.5t279.5 92.5h223v28q0 74 -39 105.5t-127 31.5q-61 0 -98 -16t-78 -57l-209 209q84 84 172 115.5t230 31.5q485 0 485 -399v-715h-327v90q-53 -53 -107.5 -76.5t-138.5 -23.5q-166 0 -264 98q-97 96 -97 258zM377 354q0 -39 28.5 -65.5 t81.5 -26.5q90 0 134 41q33 31 32 111v28h-170q-49 0 -77.5 -24.5t-28.5 -63.5zM426 1249l101 369h344l-242 -369h-203z" />
<glyph unicode="&#xe2;" horiz-adv-x="1097" d="M55 346q0 135 95.5 227.5t279.5 92.5h223v28q0 74 -39 105.5t-127 31.5q-61 0 -98 -16t-78 -57l-209 209q84 84 172 115.5t230 31.5q485 0 485 -399v-715h-327v90q-53 -53 -107.5 -76.5t-138.5 -23.5q-166 0 -264 98q-97 96 -97 258zM377 354q0 -39 28.5 -65.5 t81.5 -26.5q90 0 134 41q33 31 32 111v28h-170q-49 0 -77.5 -24.5t-28.5 -63.5zM137 1249l279 367h258l279 -367h-246l-162 170l-162 -170h-246z" />
<glyph unicode="&#xe3;" horiz-adv-x="1097" d="M55 346q0 135 95.5 227.5t279.5 92.5h223v28q0 74 -39 105.5t-127 31.5q-61 0 -98 -16t-78 -57l-209 209q84 84 172 115.5t230 31.5q485 0 485 -399v-715h-327v90q-53 -53 -107.5 -76.5t-138.5 -23.5q-166 0 -264 98q-97 96 -97 258zM377 354q0 -39 28.5 -65.5 t81.5 -26.5q90 0 134 41q33 31 32 111v28h-170q-49 0 -77.5 -24.5t-28.5 -63.5zM150 1436q70 70 125 99.5t125 29.5q90 0 165 -45q59 -35 113 -35q63 0 119 55l143 -141q-70 -70 -126 -99.5t-126 -29.5q-90 0 -166 45q-59 35 -114 35q-63 0 -119 -56z" />
<glyph unicode="&#xe4;" horiz-adv-x="1097" d="M55 346q0 135 95.5 227.5t279.5 92.5h223v28q0 74 -39 105.5t-127 31.5q-61 0 -98 -16t-78 -57l-209 209q84 84 172 115.5t230 31.5q485 0 485 -399v-715h-327v90q-53 -53 -107.5 -76.5t-138.5 -23.5q-166 0 -264 98q-97 96 -97 258zM377 354q0 -39 28.5 -65.5 t81.5 -26.5q90 0 134 41q33 31 32 111v28h-170q-49 0 -77.5 -24.5t-28.5 -63.5zM142 1392.5q0 67.5 48 115.5t115.5 48t115.5 -48t48 -115.5t-48 -115.5t-115.5 -48t-115.5 48t-48 115.5zM621 1392.5q0 67.5 48 115.5t115.5 48t115.5 -48t48 -115.5t-48 -115.5t-115.5 -48 t-115.5 48t-48 115.5z" />
<glyph unicode="&#xe5;" horiz-adv-x="1097" d="M55 346q0 135 95.5 227.5t279.5 92.5h223v28q0 74 -39 105.5t-127 31.5q-61 0 -98 -16t-78 -57l-209 209q84 84 172 115.5t230 31.5q485 0 485 -399v-715h-327v90q-53 -53 -107.5 -76.5t-138.5 -23.5q-166 0 -264 98q-97 96 -97 258zM377 354q0 -39 28.5 -65.5 t81.5 -26.5q90 0 134 41q33 31 32 111v28h-170q-49 0 -77.5 -24.5t-28.5 -63.5zM262 1497q0 117 83 200t200 83t200 -82t83 -201q0 -117 -83 -200t-200 -83t-200 83t-83 200zM439 1497q0 -43 31.5 -74.5t74.5 -31.5t74.5 31.5t31.5 74.5t-31.5 75t-74.5 32t-74.5 -32 t-31.5 -75z" />
<glyph unicode="&#xe6;" horiz-adv-x="1720" d="M55 346q0 135 95.5 227.5t279.5 92.5h223v28q0 74 -39 105.5t-127 31.5q-61 0 -98 -16t-78 -57l-209 209q84 84 172 115.5t230 31.5q229 0 348 -92q119 92 295 92q231 0 363 -148.5t132 -373.5v-150h-659q0 -72 52 -122t143 -50q82 0 130 21.5t97 70.5l201 -200 q-90 -90 -186.5 -132t-241.5 -42q-252 0 -385 133q-92 -84 -174 -108.5t-203 -24.5q-164 0 -264 100q-97 96 -97 258zM377 354q0 -39 28.5 -65.5t81.5 -26.5q90 0 134 41q33 31 32 111v28h-170q-49 0 -77.5 -24.5t-28.5 -63.5zM983 666h328q0 49 -19 86q-37 86 -145.5 86 t-145.5 -86q-18 -37 -18 -86z" />
<glyph unicode="&#xe7;" horiz-adv-x="972" d="M78 551q0 137 33.5 242.5t85 165t121 96.5t130 48t125.5 11q221 0 363 -141l-227 -228q-66 66 -136 66q-61 0 -104 -43q-55 -57 -55 -217t55 -217q43 -43 104 -43q70 0 136 65l227 -227q-141 -141 -363 -141q-66 0 -126 11t-129.5 48t-121 96.5t-85 165t-33.5 242.5z M309 -410l137 295h236l-74 -295h-299z" />
<glyph unicode="&#xe8;" horiz-adv-x="1144" d="M78 551q0 264 136 413.5t357 149.5q231 0 363.5 -148.5t132.5 -373.5v-150h-659q0 -72 52 -122t142 -50q82 0 130 21.5t97 70.5l201 -200q-90 -90 -186 -132t-242 -42q-524 0 -524 563zM408 666h327q0 49 -18 86q-37 86 -145.5 86t-145.5 -86q-18 -37 -18 -86zM254 1618 h344l101 -369h-203z" />
<glyph unicode="&#xe9;" horiz-adv-x="1144" d="M78 551q0 264 136 413.5t357 149.5q231 0 363.5 -148.5t132.5 -373.5v-150h-659q0 -72 52 -122t142 -50q82 0 130 21.5t97 70.5l201 -200q-90 -90 -186 -132t-242 -42q-524 0 -524 563zM408 666h327q0 49 -18 86q-37 86 -145.5 86t-145.5 -86q-18 -37 -18 -86zM461 1249 l101 369h344l-242 -369h-203z" />
<glyph unicode="&#xea;" horiz-adv-x="1144" d="M78 551q0 264 136 413.5t357 149.5q231 0 363.5 -148.5t132.5 -373.5v-150h-659q0 -72 52 -122t142 -50q82 0 130 21.5t97 70.5l201 -200q-90 -90 -186 -132t-242 -42q-524 0 -524 563zM408 666h327q0 49 -18 86q-37 86 -145.5 86t-145.5 -86q-18 -37 -18 -86zM172 1249 l279 367h258l279 -367h-246l-162 170l-162 -170h-246z" />
<glyph unicode="&#xeb;" horiz-adv-x="1144" d="M78 551q0 264 136 413.5t357 149.5q231 0 363.5 -148.5t132.5 -373.5v-150h-659q0 -72 52 -122t142 -50q82 0 130 21.5t97 70.5l201 -200q-90 -90 -186 -132t-242 -42q-524 0 -524 563zM408 666h327q0 49 -18 86q-37 86 -145.5 86t-145.5 -86q-18 -37 -18 -86z M177 1392.5q0 67.5 48 115.5t115.5 48t115.5 -48t48 -115.5t-48 -115.5t-115.5 -48t-115.5 48t-48 115.5zM656 1392.5q0 67.5 48 115.5t115.5 48t115.5 -48t48 -115.5t-48 -115.5t-115.5 -48t-115.5 48t-48 115.5z" />
<glyph unicode="&#xec;" horiz-adv-x="589" d="M127 0v1102h336v-1102h-336zM8 1618h344l101 -369h-203z" />
<glyph unicode="&#xed;" horiz-adv-x="589" d="M127 0v1102h336v-1102h-336zM139 1249l101 369h344l-242 -369h-203z" />
<glyph unicode="&#xee;" horiz-adv-x="589" d="M127 0v1102h336v-1102h-336zM-113 1249l279 367h258l279 -367h-246l-162 170l-162 -170h-246z" />
<glyph unicode="&#xef;" horiz-adv-x="589" d="M127 0v1102h336v-1102h-336zM-104 1392.5q0 67.5 48 115.5t115.5 48t115.5 -48t48 -115.5t-48 -115.5t-115.5 -48t-115.5 48t-48 115.5zM375 1392.5q0 67.5 48 115.5t115.5 48t115.5 -48t48 -115.5t-48 -115.5t-115.5 -48t-115.5 48t-48 115.5z" />
<glyph unicode="&#xf0;" horiz-adv-x="1126" d="M104 530.5q0 157.5 25 246.5t92 161q55 59 141 96q76 35 158 37l-41 82h-231v233h117l-46 95h361l45 -95h199v-233h-84l53 -117q76 -168 102.5 -262t26.5 -244q0 -158 -24.5 -246.5t-92.5 -160.5q-127 -135 -342 -135t-342 135q-68 72 -92.5 161t-24.5 246.5zM440 530 q0 -168 43 -211q29 -29 80 -28.5t80 28.5q43 43 43 211t-43 211q-29 29 -80 29t-80 -29q-43 -43 -43 -211z" />
<glyph unicode="&#xf1;" horiz-adv-x="1185" d="M127 0v1102h328v-90q102 102 255.5 102t247.5 -94q111 -111 111 -315v-705h-336v659q0 84 -43 118t-92 34t-92 -34t-43 -118v-659h-336zM203 1436q70 70 125 99.5t125 29.5q90 0 165 -45q59 -35 113 -35q63 0 119 55l143 -141q-70 -70 -126 -99.5t-126 -29.5 q-90 0 -166 45q-59 35 -114 35q-63 0 -119 -56z" />
<glyph unicode="&#xf2;" horiz-adv-x="1126" d="M88 551q0 162 26.5 255t94.5 167q133 141 354 141t355 -141q68 -74 94 -167t26 -255q0 -164 -25.5 -255t-94.5 -167q-133 -141 -354.5 -141t-354.5 141q-70 76 -95.5 167t-25.5 255zM424 551q0 -180 49 -229q31 -31 90.5 -31t89.5 31q49 49 49 229t-49 229q-31 31 -90 31 t-90 -31q-49 -49 -49 -229zM237 1618h344l101 -369h-203z" />
<glyph unicode="&#xf3;" horiz-adv-x="1126" d="M88 551q0 162 26.5 255t94.5 167q133 141 354 141t355 -141q68 -74 94 -167t26 -255q0 -164 -25.5 -255t-94.5 -167q-133 -141 -354.5 -141t-354.5 141q-70 76 -95.5 167t-25.5 255zM424 551q0 -180 49 -229q31 -31 90.5 -31t89.5 31q49 49 49 229t-49 229q-31 31 -90 31 t-90 -31q-49 -49 -49 -229zM444 1249l101 369h344l-242 -369h-203z" />
<glyph unicode="&#xf4;" horiz-adv-x="1126" d="M88 551q0 162 26.5 255t94.5 167q133 141 354 141t355 -141q68 -74 94 -167t26 -255q0 -164 -25.5 -255t-94.5 -167q-133 -141 -354.5 -141t-354.5 141q-70 76 -95.5 167t-25.5 255zM424 551q0 -180 49 -229q31 -31 90.5 -31t89.5 31q49 49 49 229t-49 229q-31 31 -90 31 t-90 -31q-49 -49 -49 -229zM155 1249l279 367h258l279 -367h-246l-162 170l-162 -170h-246z" />
<glyph unicode="&#xf5;" horiz-adv-x="1126" d="M88 551q0 162 26.5 255t94.5 167q133 141 354 141t355 -141q68 -74 94 -167t26 -255q0 -164 -25.5 -255t-94.5 -167q-133 -141 -354.5 -141t-354.5 141q-70 76 -95.5 167t-25.5 255zM424 551q0 -180 49 -229q31 -31 90.5 -31t89.5 31q49 49 49 229t-49 229q-31 31 -90 31 t-90 -31q-49 -49 -49 -229zM168 1436q70 70 125 99.5t125 29.5q90 0 165 -45q59 -35 113 -35q63 0 119 55l143 -141q-70 -70 -126 -99.5t-126 -29.5q-90 0 -166 45q-59 35 -114 35q-63 0 -119 -56z" />
<glyph unicode="&#xf6;" horiz-adv-x="1126" d="M88 551q0 162 26.5 255t94.5 167q133 141 354 141t355 -141q68 -74 94 -167t26 -255q0 -164 -25.5 -255t-94.5 -167q-133 -141 -354.5 -141t-354.5 141q-70 76 -95.5 167t-25.5 255zM424 551q0 -180 49 -229q31 -31 90.5 -31t89.5 31q49 49 49 229t-49 229q-31 31 -90 31 t-90 -31q-49 -49 -49 -229zM160 1392.5q0 67.5 48 115.5t115.5 48t115.5 -48t48 -115.5t-48 -115.5t-115.5 -48t-115.5 48t-48 115.5zM639 1392.5q0 67.5 48 115.5t115.5 48t115.5 -48t48 -115.5t-48 -115.5t-115.5 -48t-115.5 48t-48 115.5z" />
<glyph unicode="&#xf7;" horiz-adv-x="1138" d="M88 446v316h963v-316h-963zM354 147.5q0 90.5 62.5 152.5t152.5 62t152.5 -62t62.5 -152.5t-62.5 -153t-152.5 -62.5t-152.5 62.5t-62.5 153zM354 1061q0 90 62.5 152.5t152.5 62.5t152.5 -62.5t62.5 -152.5t-62.5 -152.5t-152.5 -62.5t-152.5 62.5t-62.5 152.5z" />
<glyph unicode="&#xf8;" horiz-adv-x="1126" d="M88 551q0 162 26.5 255t94.5 167q133 141 354 141q117 0 213 -41l70 119h190l-125 -213q80 -86 103.5 -182.5t23.5 -245.5q0 -164 -25.5 -255t-94.5 -167q-133 -141 -355 -141q-117 0 -213 41l-69 -119h-191l125 213q-82 86 -104.5 180t-22.5 248zM424 551q0 -74 4 -102 l205 348q-27 14 -70 14q-59 0 -90 -31q-49 -49 -49 -229zM494 305q27 -14 69 -14q59 0 90 31q49 49 49 229q0 74 -4 102z" />
<glyph unicode="&#xf9;" horiz-adv-x="1185" d="M117 397v705h336v-660q0 -84 43 -117.5t92 -33.5t92 33.5t43 117.5v660h336v-1102h-328v90q-102 -102 -255.5 -102t-248.5 94q-110 110 -110 315zM262 1618h344l101 -369h-203z" />
<glyph unicode="&#xfa;" horiz-adv-x="1185" d="M117 397v705h336v-660q0 -84 43 -117.5t92 -33.5t92 33.5t43 117.5v660h336v-1102h-328v90q-102 -102 -255.5 -102t-248.5 94q-110 110 -110 315zM469 1249l101 369h344l-242 -369h-203z" />
<glyph unicode="&#xfb;" horiz-adv-x="1185" d="M117 397v705h336v-660q0 -84 43 -117.5t92 -33.5t92 33.5t43 117.5v660h336v-1102h-328v90q-102 -102 -255.5 -102t-248.5 94q-110 110 -110 315zM180 1249l279 367h258l279 -367h-246l-162 170l-162 -170h-246z" />
<glyph unicode="&#xfc;" horiz-adv-x="1185" d="M117 397v705h336v-660q0 -84 43 -117.5t92 -33.5t92 33.5t43 117.5v660h336v-1102h-328v90q-102 -102 -255.5 -102t-248.5 94q-110 110 -110 315zM185 1392.5q0 67.5 48 115.5t115.5 48t115.5 -48t48 -115.5t-48 -115.5t-115.5 -48t-115.5 48t-48 115.5zM664 1392.5 q0 67.5 48 115.5t115.5 48t115.5 -48t48 -115.5t-48 -115.5t-115.5 -48t-115.5 48t-48 115.5z" />
<glyph unicode="&#xfd;" horiz-adv-x="1052" d="M0 1102h352l187 -572l178 572h352l-457 -1233q-33 -92 -86 -145q-86 -92 -247 -93h-127v303h71q47 0 71.5 16.5t41.5 65.5l31 93zM407 1249l101 369h344l-242 -369h-203z" />
<glyph unicode="&#xfe;" horiz-adv-x="1169" d="M127 -356v1814h336v-436q92 92 246 92q166 0 266 -100q39 -39 61.5 -89.5t30.5 -129t9 -112.5t1 -132v-25q0 -106 -3 -165.5t-27.5 -142.5t-71.5 -130q-100 -100 -266 -100q-154 0 -246 92v-436h-336zM463 551q0 -137 26.5 -198.5t112.5 -61.5t112.5 61.5t26.5 198.5 t-26.5 198.5t-112.5 61.5t-112.5 -61.5t-26.5 -198.5z" />
<glyph unicode="&#xff;" horiz-adv-x="1052" d="M0 1102h352l187 -572l178 572h352l-457 -1233q-33 -92 -86 -145q-86 -92 -247 -93h-127v303h71q47 0 71.5 16.5t41.5 65.5l31 93zM123 1392.5q0 67.5 48 115.5t115.5 48t115.5 -48t48 -115.5t-48 -115.5t-115.5 -48t-115.5 48t-48 115.5zM602 1392.5q0 67.5 48 115.5 t115.5 48t115.5 -48t48 -115.5t-48 -115.5t-115.5 -48t-115.5 48t-48 115.5z" />
<glyph unicode="&#x131;" horiz-adv-x="589" d="M127 0v1102h336v-1102h-336z" />
<glyph unicode="&#x152;" horiz-adv-x="1949" d="M100 729q0 90 1 133t8.5 122t21.5 126t44 104.5t73 100.5q82 82 174 118.5t223 36.5q137 0 207 -65v53h991v-319h-633v-244h541v-320h-541v-256h633v-319h-991v53q-70 -66 -209 -65q-131 0 -222 36.5t-173 118.5q-43 43 -73 100.5t-44 104.5t-21.5 126t-8.5 122t-1 133z M459 729q0 -184 12 -251.5t41 -104.5q49 -66 143.5 -66t143.5 66q29 37 41 104.5t12 251.5t-12.5 253t-40.5 105q-49 63 -143.5 63.5t-143.5 -63.5q-29 -37 -41 -105.5t-12 -252.5z" />
<glyph unicode="&#x153;" horiz-adv-x="1769" d="M88 551q0 162 26.5 255t94.5 167q133 141 354 141q193 0 320 -108q125 109 313 108q231 0 363.5 -148.5t132.5 -373.5v-150h-660q0 -72 52.5 -122t142.5 -50q82 0 130 21.5t97 70.5l201 -200q-90 -90 -186.5 -132t-241.5 -42q-223 0 -350 102q-125 -102 -314 -102 q-221 0 -354 141q-70 76 -95.5 167t-25.5 255zM424 551q0 -180 49 -229q31 -31 90.5 -31t89.5 31q49 49 49 229t-49 229q-31 31 -90 31t-90 -31q-49 -49 -49 -229zM1032 666h328q0 49 -19 86q-37 86 -145.5 86t-144.5 -86q-19 -37 -19 -86z" />
<glyph unicode="&#x178;" horiz-adv-x="1239" d="M0 1458h391l230 -524l227 524h391l-440 -864v-594h-359v594zM215 1744.5q0 67.5 48 115.5t115.5 48t115.5 -48t48 -115.5t-48 -115.5t-115.5 -48t-115.5 48t-48 115.5zM694 1744.5q0 67.5 48 115.5t115.5 48t115.5 -48t48 -115.5t-48 -115.5t-115.5 -48t-115.5 48 t-48 115.5z" />
<glyph unicode="&#x2c6;" horiz-adv-x="1024" d="M104 1249l279 367h258l279 -367h-246l-162 170l-162 -170h-246z" />
<glyph unicode="&#x2da;" horiz-adv-x="1024" d="M229 1497q0 117 83 200t200 83t200 -82t83 -201q0 -117 -83 -200t-200 -83t-200 83t-83 200zM406 1497q0 -43 31.5 -74.5t74.5 -31.5t74.5 31.5t31.5 74.5t-31.5 75t-74.5 32t-74.5 -32t-31.5 -75z" />
<glyph unicode="&#x2dc;" horiz-adv-x="1024" d="M117 1436q70 70 125 99.5t125 29.5q90 0 165 -45q59 -35 113 -35q63 0 119 55l143 -141q-70 -70 -126 -99.5t-126 -29.5q-90 0 -166 45q-59 35 -114 35q-63 0 -119 -56z" />
<glyph unicode="&#x3bc;" horiz-adv-x="1196" d="M127 -356v1458h336v-660q0 -84 43 -117.5t92 -33.5t92 33.5t43 117.5v660h336v-1102h-328v90q-102 -102 -256 -102h-22v-344h-336z" />
<glyph unicode="&#x2000;" horiz-adv-x="1056" />
<glyph unicode="&#x2001;" horiz-adv-x="2112" />
<glyph unicode="&#x2002;" horiz-adv-x="1056" />
<glyph unicode="&#x2003;" horiz-adv-x="2112" />
<glyph unicode="&#x2004;" horiz-adv-x="704" />
<glyph unicode="&#x2005;" horiz-adv-x="528" />
<glyph unicode="&#x2006;" horiz-adv-x="352" />
<glyph unicode="&#x2007;" horiz-adv-x="352" />
<glyph unicode="&#x2008;" horiz-adv-x="264" />
<glyph unicode="&#x2009;" horiz-adv-x="422" />
<glyph unicode="&#x200a;" horiz-adv-x="117" />
<glyph unicode="&#x2010;" horiz-adv-x="872" d="M100 446v316h672v-316h-672z" />
<glyph unicode="&#x2011;" horiz-adv-x="872" d="M100 446v316h672v-316h-672z" />
<glyph unicode="&#x2012;" horiz-adv-x="872" d="M100 446v316h672v-316h-672z" />
<glyph unicode="&#x2013;" horiz-adv-x="1138" d="M100 446v316h938v-316h-938z" />
<glyph unicode="&#x2014;" horiz-adv-x="2238" d="M100 451v323h2038v-323h-2038z" />
<glyph unicode="&#x2018;" horiz-adv-x="569" d="M117 1159v299l336 246v-545h-336z" />
<glyph unicode="&#x2019;" horiz-adv-x="569" d="M117 915v543h336v-301z" />
<glyph unicode="&#x201a;" horiz-adv-x="565" d="M117 -242v543h336v-301z" />
<glyph unicode="&#x201c;" horiz-adv-x="1046" d="M117 1159v299l334 246v-545h-334zM594 1159v299l336 246v-545h-336z" />
<glyph unicode="&#x201d;" horiz-adv-x="1046" d="M117 915v543h334v-301zM594 915v543h336v-301z" />
<glyph unicode="&#x201e;" horiz-adv-x="1052" d="M117 -242v543h334v-301zM594 -242v543h336v-301z" />
<glyph unicode="&#x2022;" horiz-adv-x="962" d="M147 684q0 139 98.5 236.5t235.5 97.5t235.5 -97.5t98.5 -236.5t-98.5 -236.5t-235.5 -97.5t-235.5 97.5t-98.5 236.5z" />
<glyph unicode="&#x2026;" horiz-adv-x="1841" d="M100 209q0 90 62.5 152.5t153 62.5t152.5 -62.5t62 -152.5t-62 -152.5t-152.5 -62.5t-153 62.5t-62.5 152.5zM705 209q0 88 63 151.5t151.5 63.5t152 -62.5t63.5 -152.5q2 -88 -61.5 -151.5t-151.5 -63.5q-90 0 -153.5 63.5t-63.5 151.5zM1311 209q0 90 63.5 152.5 t151.5 62.5t151.5 -62.5t63.5 -152.5t-63.5 -152.5t-151.5 -62.5t-151.5 62.5t-63.5 152.5z" />
<glyph unicode="&#x202f;" horiz-adv-x="422" />
<glyph unicode="&#x2039;" horiz-adv-x="743" d="M61 573l560 553v-395l-162 -158l162 -159v-396z" />
<glyph unicode="&#x203a;" horiz-adv-x="743" d="M123 18v396l164 159l-164 158v395l559 -553z" />
<glyph unicode="&#x205f;" horiz-adv-x="528" />
<glyph unicode="&#x2122;" horiz-adv-x="1992" d="M104 1245v213h668v-213h-215v-661h-238v661h-215zM897 584v874h240l239 -430l240 430h239v-874h-239v448l-137 -268h-205l-137 268v-448h-240z" />
<glyph unicode="&#xe000;" horiz-adv-x="1100" d="M0 1100h1100v-1100h-1100v1100z" />
<glyph unicode="&#xfb01;" horiz-adv-x="1282" d="M51 801v258h101v96q0 129 86 227.5t256 98.5h178v-283h-117q-68 0 -68 -68v-71h185v-258h-185v-801h-335v801h-101zM782 1356q0 84 60.5 144.5t144.5 60.5t144.5 -60.5t60.5 -144.5t-60.5 -144.5t-144.5 -60.5t-144.5 60.5t-60.5 144.5zM819 0v1059h336v-1059h-336z" />
<glyph unicode="&#xfb02;" horiz-adv-x="1380" d="M51 801v258h101v96q0 129 86 227.5t256 98.5h178v-283h-117q-68 0 -68 -68v-71h185v-258h-185v-801h-335v801h-101zM819 326v1132h336v-1108q0 -68 68 -67h116v-283h-178q-170 0 -256 98.5t-86 227.5z" />
<glyph unicode="&#xfb03;" horiz-adv-x="2056" d="M1556 1356q0 84 60.5 144.5t144.5 60.5t144.5 -60.5t60.5 -144.5t-60.5 -144.5t-144.5 -60.5t-144.5 60.5t-60.5 144.5zM1593 0v1059h336v-1059h-336zM794 801v258h101v96q0 129 86 227.5t256 98.5h178v-283h-117q-68 0 -67 -68v-71h184v-258h-184v-801h-336v801h-101z M61 801v258h101v96q0 129 86 227.5t256 98.5h178v-283h-117q-68 0 -67 -68v-71h184v-258h-184v-801h-336v801h-101z" />
<glyph unicode="&#xfb04;" horiz-adv-x="2164" d="M1583 326v1132h336v-1108q0 -67 65 -67h2h117v-283h-178q-170 0 -256 98.5t-86 227.5zM794 801v258h101v96q0 129 86 227.5t256 98.5h178v-283h-117q-68 0 -67 -68v-71h184v-258h-184v-801h-336v801h-101zM61 801v258h101v96q0 129 86 227.5t256 98.5h178v-283h-117 q-68 0 -67 -68v-71h184v-258h-184v-801h-336v801h-101z" />
</font>
</defs>
</svg>
