<?xml version="1.0" standalone="no"?>
<!DOCTYPE svg PUBLIC "-//W3C//DTD SVG 1.1//EN" "http://www.w3.org/Graphics/SVG/1.1/DTD/svg11.dtd">
<svg xmlns="http://www.w3.org/2000/svg">
<defs >
<font id="Dosis" horiz-adv-x="435" ><font-face
    font-family="Dosis ExtraLight Light"
    units-per-em="1000"
    panose-1="0 0 0 0 0 0 0 0 0 0"
    ascent="1027"
    descent="-237"
    alphabetic="0" />
<glyph unicode=" " horiz-adv-x="200" />
<glyph unicode="!" horiz-adv-x="197" d="M98 155Q91 155 85 160T78 174Q78 261 76 352T70 534T67 712Q67 728 76 737T98 746Q111 746 120 737T130 712Q130 625 128 534T122 352T119 174Q119 166 112 161T98 155ZM99 -6Q81 -6 70 6T58 35Q58 52 69 64T99 76Q115
76 127 64T139 35Q139 19 127 7T99 -6Z" />
<glyph unicode="&quot;" horiz-adv-x="262" d="M193 578Q184 578 180 584T175 599L165 749Q165 758 174 763T193 768Q202 768 211 763T221 749L211 599Q211 591 207 585T193 578ZM68 578Q59 578 55 584T51 599L41 749Q41 758 50 763T68 768Q78 768 87 763T97 749L87
599Q87 591 83 585T68 578Z" />
<glyph unicode="#" horiz-adv-x="567" d="M145 35Q136 35 129 41T122 58L152 261H52Q40 261 36 266T31 281Q31 289 35 295T46 301H160L185 470H84Q73 470 68 475T63 490Q63 499 67 504T79 510H192L222 700Q223 707 228 710T240 713Q252 713 258 706T265 689L237
510H368L397 700Q399 707 404 710T416 713Q427 713 434 706T441 689L413 510H515Q522 510 529 505T537 490Q537 482 532 476T520 470H407L380 301H483Q490 301 497 296T505 280Q505 273 500 267T488 261H373L342 52Q340 44 334 40T320 35Q314 35 309 38T300 46T296
58L327 261H197L166 53Q164 44 158 40T145 35ZM204 301H335L361 470H231L204 301Z" />
<glyph unicode="$" horiz-adv-x="491" d="M259 -52Q251 -52 245 -47T238 -34V4Q175 4 131 23T65 68T42 108Q42 114 45 121T54 132T65 136Q73 136 82 124T109 95T157 65T238 52V367Q205 378 174 390T116 422T75 473T60 552Q60 600 76 631T118 680T175 708T238 719V750Q238
757 244 762T259 768Q267 768 273 763T279 750V720Q307 719 333 714T381 701T414 684T426 664Q426 659 423 653T415 641T403 635Q396 635 382 643T342 661T279 672V406Q310 395 339 380T392 343T430 285T444 198Q444 108 398 61T279 6V-34Q279 -41 273 -46T259
-52ZM278 55Q336 63 366 98T396 194Q396 242 380 272T337 321T278 352V55ZM240 420V672Q206 670 176 659T127 623T108 557Q108 514 126 488T175 447T240 420Z" />
<glyph unicode="%" horiz-adv-x="749" d="M185 -23Q177 -23 171 -18T165 -4Q165 3 167 7L553 758Q558 768 570 768Q577 768 584 762T592 746Q592 740 589 734L206 -10Q202 -17 197 -20T185 -23ZM162 357Q112 357 78 382T43 467V621Q43 681 77 706T162 731Q197
731 223 720T266 685T282 621V467Q282 427 266 403T224 368T162 357ZM163 395Q199 395 220 412T241 467V621Q241 658 220 675T163 693Q126 693 106 676T85 621V467Q85 430 105 413T163 395ZM586 -3Q535 -3 501 22T467 107V261Q467 321 501 346T586 371Q620 371
647 360T689 325T705 261V107Q705 67 690 43T647 8T586 -3ZM586 35Q622 35 643 52T664 107V261Q664 298 643 315T586 333Q550 333 530 316T509 261V107Q509 70 529 53T586 35Z" />
<glyph unicode="&amp;" horiz-adv-x="602" d="M262 -10Q191 -10 141 19T65 96T38 201Q38 253 58 292T111 358T177 399Q146 436 120 478T93 581Q93 634 117 671T180 728T267 748Q320 748 354 730T405 691T422 657Q422 647 415 641T398 634Q390 634 382 644T361
669T327 694T270 705Q213 705 180 670T147 577Q147 541 160 511T194 454T238 401L452 165Q474 216 480 270T489 360Q489 373 494 378T512 384Q523 384 528 377T533 355Q533 336 530 299T516 218T484 130L579 28Q581 24 582 21T584 15Q584 6 577 0T562 -6Q558 -6
555 -5T547 1L461 93Q431 49 383 20T262 -10ZM269 37Q330 37 368 62T429 126L206 366Q182 353 155 333T109 283T89 206Q89 162 110 123T171 61T269 37Z" />
<glyph unicode="&apos;" horiz-adv-x="137" d="M68 578Q59 578 55 584T51 599L41 749Q41 758 50 763T68 768Q78 768 87 763T97 749L87 599Q87 591 83 585T68 578Z" />
<glyph unicode="(" horiz-adv-x="287" d="M244 -20Q205 -20 172 -9T115 23T78 75T64 146V588Q64 624 77 656T115 714T172 753T244 768Q256 768 262 762T268 745Q268 735 262 728T248 721Q205 721 175 702T130 652T114 588V146Q114 98 135 72T188 36T248 27Q260
27 264 19T268 4Q268 -7 262 -13T244 -20Z" />
<glyph unicode=")" horiz-adv-x="287" d="M44 -20Q32 -20 26 -14T19 4Q19 11 23 19T40 27Q70 27 100 36T152 71T173 146V588Q173 621 158 651T112 701T40 721Q31 721 25 728T19 745Q19 755 25 761T43 768Q82 768 114 754T171 714T209 657T223 588V146Q223 107
210 76T172 23T116 -9T44 -20Z" />
<glyph unicode="*" horiz-adv-x="425" d="M120 395Q115 395 109 397T99 405T94 417Q94 424 99 430L181 539L51 577Q43 580 40 585T37 597Q37 607 43 614T59 622Q60 622 62 622T65 620L195 575L190 710Q190 720 197 725T212 731Q221 731 227 726T235 710L230 574L359
620Q362 622 367 622Q375 622 381 614T388 597Q388 590 384 585T373 577L244 540L327 429Q330 425 330 418Q330 408 323 402T306 395Q302 395 298 396T290 403L212 517L134 402Q131 398 128 397T120 395Z" />
<glyph unicode="+" horiz-adv-x="430" d="M216 60Q206 60 199 65T192 80V218H55Q46 218 40 224T34 240Q34 250 40 256T55 263H192V400Q192 408 199 414T216 421Q226 421 232 415T238 400V263H375Q383 263 389 257T396 240Q396 231 390 225T375 218H238V80Q238
71 232 66T216 60Z" />
<glyph unicode="," horiz-adv-x="166" d="M71 -80Q64 -80 58 -76T51 -64Q51 -59 52 -55L71 -4Q58 0 50 11T42 35Q42 52 53 64T82 76Q97 76 110 65T123 34Q123 32 123 27T119 12T108 -18T88 -69Q86 -74 81 -77T71 -80Z" />
<glyph unicode="-" horiz-adv-x="397" d="M68 218Q60 218 54 224T48 240Q48 250 54 256T68 263H328Q337 263 343 257T350 240Q350 231 344 225T328 218H68Z" />
<glyph unicode="." horiz-adv-x="165" d="M83 -6Q65 -6 54 6T42 35Q42 52 53 64T83 76Q99 76 111 64T123 35Q123 19 111 7T83 -6Z" />
<glyph unicode="/" horiz-adv-x="471" d="M42 -23Q34 -23 28 -18T21 -4Q21 3 24 7L410 758Q415 768 426 768Q434 768 441 762T449 746Q449 740 446 734L62 -10Q59 -17 54 -20T42 -23Z" />
<glyph unicode="0" horiz-adv-x="527" d="M263 -6Q206 -6 161 15T89 81T62 203V522Q62 598 88 643T160 710T263 731Q319 731 365 710T438 644T465 522V203Q465 127 438 82T365 15T263 -6ZM263 42Q334 42 374 81T415 203V522Q415 604 375 643T263 683Q192 683 152
644T112 522V203Q112 121 152 82T263 42ZM264 328Q250 328 240 338T230 362Q230 376 240 385T264 395Q278 395 287 386T297 362Q297 348 288 338T264 328Z" />
<glyph unicode="1" horiz-adv-x="221" d="M123 0Q114 0 106 5T98 21V629L57 557Q53 550 48 547T38 544Q29 544 23 551T17 566Q17 573 21 581T29 593L102 715Q107 722 111 726T126 731Q135 731 141 726T148 711V21Q148 11 141 6T123 0Z" />
<glyph unicode="2" horiz-adv-x="468" d="M60 0Q52 0 44 6T36 21V118Q36 160 61 195T124 261T207 323T289 386T353 456T378 540Q378 575 362 607T314 661T233 683Q177 683 140 652T103 557Q103 550 97 543T77 536Q64 536 59 543T54 570Q54 616 77 652T142 710T234
731Q292 731 335 705T403 637T428 542Q428 489 403 446T340 368T257 303T175 244T112 185T87 118V48H416Q424 48 430 41T437 24Q437 15 431 8T416 0H60Z" />
<glyph unicode="3" horiz-adv-x="480" d="M233 -6Q182 -6 144 9T81 47T43 99T31 155Q31 174 37 180T54 186Q69 186 74 179T80 161Q80 146 86 126T109 86T155 55T230 42Q304 42 344 81T384 202V221Q384 293 343 328T233 363Q221 363 216 370T211 386Q211 395 216
402T232 409Q276 409 306 422T351 465T366 545Q366 614 336 649T236 684Q193 684 166 672T124 642T104 604T98 567Q98 555 92 547T74 539Q65 539 59 542T51 553T49 573Q49 592 57 619T85 671T142 714T239 731Q291 731 330 714T392 659T415 556Q415 485 391 444T332
386Q376 367 405 328T434 221V202Q434 127 407 81T335 15T233 -6Z" />
<glyph unicode="4" horiz-adv-x="430" d="M313 0Q303 0 296 5T288 21V175H30Q20 175 15 181T9 197Q9 202 10 205T13 211L267 714Q272 724 278 727T292 731Q298 731 303 729T312 722T316 710Q316 705 313 698L73 224H288V439Q288 450 295 454T313 459Q323 459 330
455T338 439V224H395Q406 224 411 217T417 199Q417 190 411 183T395 175H338V21Q338 11 331 6T313 0Z" />
<glyph unicode="5" horiz-adv-x="466" d="M231 -6Q168 -6 123 17T54 77T30 161Q30 176 36 181T54 187Q66 187 73 181T80 164Q80 126 100 99T154 57T230 42Q302 42 342 81T382 203V222Q382 301 342 339T231 378H95Q76 378 71 384T65 398Q65 403 65 407T67 416L86
710Q87 719 91 725T105 731H378Q388 731 392 724T396 707Q396 698 392 691T378 683H132L114 424H231Q288 424 333 405T405 341T432 222V203Q432 127 406 81T333 15T231 -6Z" />
<glyph unicode="6" horiz-adv-x="511" d="M264 -6Q207 -6 162 15T89 81T62 203V522Q62 598 89 643T161 710T264 731Q312 731 349 718T412 680T451 626T465 563Q465 550 459 544T441 538Q431 538 423 543T415 561Q415 598 395 625T340 668T263 683Q192 683 152
644T112 522V357Q138 394 179 411T268 428Q323 428 367 410T438 349T465 230V203Q465 127 438 82T366 15T264 -6ZM264 40Q335 40 375 79T415 202V229Q415 312 375 347T264 382Q195 382 154 350T112 238V202Q112 119 152 80T264 40Z" />
<glyph unicode="7" horiz-adv-x="450" d="M101 -1Q94 -1 87 1T76 9T72 22Q72 28 75 35L383 632V683H81V560Q81 551 73 545T55 538Q46 538 39 544T31 560V710Q31 718 38 724T54 731H409Q417 731 425 725T433 710V631Q433 627 432 623T428 613L120 11Q114 -1 101 -1Z" />
<glyph unicode="8" horiz-adv-x="496" d="M248 -6Q192 -6 146 14T73 80T46 200V212Q46 289 76 334T153 398Q114 415 90 453T66 557Q66 623 90 661T155 715T248 731Q300 731 341 715T406 661T430 557Q430 492 406 454T344 398Q392 379 420 334T449 212V200Q449
126 423 81T351 15T248 -6ZM249 40Q320 40 359 80T399 202V215Q399 297 359 335T248 374Q178 374 137 336T96 215V202Q96 119 137 80T249 40ZM248 421Q311 421 346 452T381 554Q381 624 346 654T248 685Q186 685 151 655T115 554Q115 483 150 452T248 421Z" />
<glyph unicode="9" horiz-adv-x="511" d="M247 -6Q199 -6 162 7T99 45T60 99T46 162Q46 176 52 181T70 187Q80 187 88 182T96 164Q96 127 116 100T171 57T247 42Q319 42 359 81T399 203V368Q373 332 332 315T243 297Q188 297 144 315T73 376T46 495V522Q46 598
73 643T145 710T247 731Q304 731 349 710T422 644T449 522V203Q449 127 422 82T350 15T247 -6ZM247 343Q316 343 357 376T399 487V523Q399 606 359 645T247 685Q176 685 136 646T96 523V496Q96 413 136 378T247 343Z" />
<glyph unicode=":" horiz-adv-x="197" d="M99 340Q81 340 70 352T58 381Q58 398 69 410T99 422Q115 422 127 410T139 381Q139 365 127 353T99 340ZM99 -6Q81 -6 70 6T58 35Q58 52 69 64T99 76Q115 76 127 64T139 35Q139 19 127 7T99 -6Z" />
<glyph unicode=";" horiz-adv-x="198" d="M86 -80Q79 -80 73 -76T66 -64Q66 -59 67 -55L86 -4Q74 0 66 11T58 35Q58 52 69 64T98 76Q113 76 125 65T138 34Q138 32 138 27T134 12T123 -18T104 -69Q101 -74 96 -77T86 -80ZM100 340Q82 340 71 352T59 381Q59 398
70 410T100 422Q116 422 128 410T140 381Q140 365 128 353T100 340Z" />
<glyph unicode="&lt;" horiz-adv-x="399" d="M324 71Q319 71 314 75L41 255Q36 258 33 264T29 277Q29 284 33 290T41 300L314 480Q319 484 324 484Q333 484 341 478T349 460Q349 448 339 442L90 277L339 113Q349 107 349 95Q349 85 341 78T324 71Z" />
<glyph unicode="=" horiz-adv-x="433" d="M90 352Q82 352 76 358T70 374Q70 384 76 391T90 398H342Q350 398 356 391T363 374Q363 365 357 359T342 352H90ZM90 149Q82 149 76 155T70 171Q70 181 76 188T90 195H342Q350 195 356 188T363 171Q363 162 357 156T342 149H90Z" />
<glyph unicode="&gt;" horiz-adv-x="399" d="M75 71Q66 71 58 78T50 95Q50 107 60 113L309 277L60 442Q50 448 50 460Q50 471 58 477T75 484Q81 484 85 480L358 300Q362 297 366 291T370 277Q370 270 367 264T358 255L85 75Q81 71 75 71Z" />
<glyph unicode="?" horiz-adv-x="391" d="M165 155Q156 155 150 160T144 178Q144 236 148 270T162 323T182 356Q199 374 220 393T261 435T295 490T309 563Q309 627 273 664T166 702Q134 702 114 696T81 680T60 664T44 657Q38 657 31 663T24 679Q24 694 44 709T98
735T170 746Q232 746 273 722T334 658T355 566Q355 517 339 481T301 418T255 371T217 332Q203 315 197 294T189 244T187 175Q187 165 181 160T165 155ZM165 -6Q147 -6 136 6T124 35Q124 52 136 64T165 76Q181 76 193 64T205 35Q205 19 194 7T165 -6Z" />
<glyph unicode="@" horiz-adv-x="712" d="M328 -96Q276 -96 228 -78T141 -21T81 77T58 218Q58 311 89 387T189 509T366 555Q463 555 530 519T632 411T667 235Q667 185 657 140T622 66T553 37Q517 37 491 56T458 99Q432 74 406 61T336 47Q302 47 273 57T227 90T210
154Q210 200 233 223T301 256T405 265H452V285Q452 331 427 352T349 373Q316 373 299 368T273 356T255 350Q249 350 245 353T238 362T236 372Q236 385 255 395T302 410T358 416Q402 416 432 401T479 359T495 290V125Q498 103 516 89T556 74Q578 74 591 89T612 127T623
178T626 231Q626 362 562 437T363 512Q288 512 238 489T157 423T113 329T99 219Q99 166 111 117T150 29T222 -32T332 -55Q378 -55 406 -47T450 -32T477 -24Q484 -24 489 -29T494 -41Q494 -50 480 -59T442 -77T388 -91T328 -96ZM338 85Q375 85 400 98T439 130T452
166V228H408Q365 228 331 224T276 204T255 154Q255 117 279 101T338 85Z" />
<glyph unicode="A" horiz-adv-x="529" d="M50 0Q44 0 38 3T27 10T23 22Q23 25 24 28L237 719Q240 729 248 733T265 737Q274 737 282 733T294 719L505 28Q506 25 506 22Q506 17 502 12T491 3T477 0Q470 0 465 3T457 15L408 174H120L72 15Q70 7 64 4T50 0ZM134 220H394L265
647L134 220Z" />
<glyph unicode="B" horiz-adv-x="532" d="M103 0Q93 0 87 6T80 20V710Q80 720 87 725T103 731H260Q317 731 363 718T437 669T464 563Q464 499 441 456T379 396Q410 383 433 362T469 308T482 222V204Q482 129 456 84T386 20T286 0H103ZM129 48H282Q352 48 392 85T432
206V223Q432 306 392 339T282 373H129V48ZM129 419H265Q341 419 377 449T414 559Q414 611 395 637T341 673T260 683H129V419Z" />
<glyph unicode="C" horiz-adv-x="518" d="M274 -6Q219 -6 173 15T100 81T73 203V522Q73 598 101 643T175 710T276 731Q341 731 385 708T452 648T475 569Q475 549 469 543T450 536Q435 536 430 543T425 557Q424 574 418 595T397 637T352 670T276 683Q201 683 162
644T122 522V203Q122 120 162 81T280 42Q327 42 355 54T397 86T416 128T425 169Q426 178 431 184T450 190Q463 190 469 183T475 156Q475 115 452 78T384 17T274 -6Z" />
<glyph unicode="D" horiz-adv-x="555" d="M103 0Q93 0 87 6T80 20V711Q80 719 86 725T103 731H280Q337 731 383 710T455 644T482 522V209Q482 133 456 88T383 21T280 0H103ZM130 48H280Q352 48 392 87T432 209V522Q432 604 392 643T280 683H130V48Z" />
<glyph unicode="E" horiz-adv-x="503" d="M103 0Q94 0 87 5T80 21V710Q80 720 87 725T103 731H459Q470 731 475 724T480 708Q480 699 475 691T459 683H130V389H288Q298 389 303 382T309 365Q309 357 304 350T288 343H130V48H459Q469 48 474 41T480 23Q480 15 475
8T459 0H103Z" />
<glyph unicode="F" horiz-adv-x="492" d="M105 0Q95 0 88 5T80 21V710Q80 720 87 725T103 731H458Q469 731 474 724T479 708Q479 699 474 691T458 683H130V389H289Q298 389 303 382T309 365Q309 357 304 350T289 343H130V21Q130 10 122 5T105 0Z" />
<glyph unicode="G" horiz-adv-x="536" d="M273 -6Q217 -6 172 15T100 81T73 203V522Q73 598 99 643T171 710T273 731Q336 731 381 709T450 649T475 562Q475 548 468 542T450 536Q440 536 433 541T425 557Q420 599 401 627T350 669T273 683Q202 683 162 644T122
522V203Q122 121 162 82T273 42Q344 42 384 81T425 203V338H278Q268 338 263 345T257 361Q257 370 262 377T278 384H455Q464 384 469 378T475 362V203Q475 127 449 82T376 15T273 -6Z" />
<glyph unicode="H" horiz-adv-x="564" d="M105 0Q95 0 88 5T80 21V711Q80 721 87 726T105 731Q114 731 122 726T130 711V402H435V711Q435 721 442 726T460 731Q469 731 477 726T485 711V21Q485 11 477 6T460 0Q450 0 443 5T435 21V356H130V21Q130 11 122 6T105 0Z" />
<glyph unicode="I" horiz-adv-x="209" d="M105 0Q95 0 88 5T80 21V711Q80 721 87 726T105 731Q114 731 122 726T130 711V21Q130 11 122 6T105 0Z" />
<glyph unicode="J" horiz-adv-x="502" d="M226 -6Q164 -6 119 16T49 77T24 164Q24 179 30 184T48 190Q58 190 65 185T74 169Q74 128 93 99T147 56T225 42Q297 42 336 81T376 203V683H226Q216 683 211 691T205 708Q205 716 210 723T226 731H402Q412 731 419 726T426
710V203Q426 127 400 82T328 15T226 -6Z" />
<glyph unicode="K" horiz-adv-x="515" d="M105 0Q95 0 88 5T80 21V711Q80 721 87 726T105 731Q114 731 122 726T130 711V336L437 723Q443 731 454 731Q461 731 467 728T477 718T481 705Q481 702 480 699T476 693L253 415L505 35Q508 30 508 24Q508 18 505 12T495
3T481 -1Q475 -1 470 2T461 11L219 373L130 261V21Q130 11 122 6T105 0Z" />
<glyph unicode="L" horiz-adv-x="457" d="M103 0Q94 0 87 5T80 21V711Q80 721 87 726T105 731Q114 731 122 726T130 711V48H425Q434 48 438 41T443 24Q443 15 439 8T425 0H103Z" />
<glyph unicode="M" horiz-adv-x="660" d="M105 0Q95 0 88 5T80 21V707Q80 721 87 726T105 731Q114 731 121 725T135 709T146 690L329 332L514 690Q519 699 525 708T539 724T555 731Q566 731 573 726T580 707V21Q580 11 573 6T555 0Q546 0 538 5T530 21V617L352
277Q347 266 341 262T329 257Q324 257 318 261T307 277L130 619V21Q130 11 122 6T105 0Z" />
<glyph unicode="N" horiz-adv-x="564" d="M105 0Q95 0 88 5T80 21V710Q80 722 87 726T105 731Q114 731 121 725T135 709T145 690L435 119V711Q435 721 442 726T460 731Q469 731 477 726T485 711V21Q485 11 477 6T460 0Q448 0 439 12T424 37L130 613V21Q130 11
122 6T105 0Z" />
<glyph unicode="O" horiz-adv-x="548" d="M273 -6Q217 -6 172 15T100 81T73 203V522Q73 598 99 643T171 710T273 731Q330 731 376 710T448 644T475 522V203Q475 127 449 82T376 15T273 -6ZM273 42Q344 42 384 81T425 203V522Q425 604 385 643T273 683Q202 683
162 644T122 522V203Q122 121 162 82T273 42Z" />
<glyph unicode="P" horiz-adv-x="520" d="M105 0Q95 0 88 5T80 21V711Q80 719 86 724T102 731H283Q339 731 384 711T456 644T483 522V511Q483 435 457 389T384 322T282 301H130V21Q130 11 122 6T105 0ZM130 347H282Q353 347 393 387T433 510V522Q433 604 393 643T282
683H130V347Z" />
<glyph unicode="Q" horiz-adv-x="548" d="M274 -109Q266 -109 260 -104T253 -88V-5Q201 -1 160 20T96 87T73 203V522Q73 598 99 643T171 710T273 731Q330 731 376 710T448 644T475 522V203Q475 132 452 87T388 21T296 -5V-88Q296 -98 289 -103T274 -109ZM253 43V122Q253
133 259 138T274 143Q282 143 289 138T296 122V44Q356 49 390 88T425 203V522Q425 604 385 643T273 683Q202 683 162 644T122 522V203Q122 127 156 88T253 43Z" />
<glyph unicode="R" horiz-adv-x="518" d="M457 -1Q446 -1 439 11T425 34L268 341H130V21Q130 11 122 6T105 0Q95 0 88 5T80 21V711Q80 719 85 724T101 731H273Q329 731 377 714T454 654T483 537Q483 474 462 434T404 374T321 346L481 36Q483 33 483 30T484 25Q484
18 480 13T470 3T457 -1ZM130 387H273Q344 387 388 421T433 536Q433 615 389 649T273 683H130V387Z" />
<glyph unicode="S" horiz-adv-x="487" d="M238 -6Q174 -6 130 13T62 57T39 98Q39 104 43 111T52 122T62 126Q71 126 80 114T107 84T154 55T233 42Q284 42 319 59T373 109T392 192Q392 244 374 275T326 326T261 358T190 384T124 416T76 469T57 555Q57 609 76 643T127
697T193 724T261 732Q291 732 319 727T372 715T410 697T424 676Q424 670 421 664T413 652T401 647Q393 647 377 656T333 675T260 685Q224 685 189 674T130 636T107 559Q107 516 125 490T174 448T239 421T310 394T375 356T423 295T442 197Q442 126 416 81T344 15T238
-6Z" />
<glyph unicode="T" horiz-adv-x="465" d="M233 0Q223 0 216 5T208 21V683H35Q25 683 19 690T13 707Q13 716 19 723T35 731H430Q441 731 446 724T452 708Q452 698 447 691T430 683H258V21Q258 11 251 6T233 0Z" />
<glyph unicode="U" horiz-adv-x="556" d="M277 -6Q221 -6 175 15T103 81T76 203V711Q76 721 83 726T101 731Q110 731 118 726T126 711V203Q126 121 166 82T277 42Q349 42 389 81T430 203V711Q430 721 437 726T455 731Q464 731 472 726T480 711V203Q480 127 453
82T380 15T277 -6Z" />
<glyph unicode="V" horiz-adv-x="527" d="M264 -6Q255 -6 247 -2T236 12L23 703Q22 706 22 709Q22 716 26 720T36 728T49 731Q57 731 63 728T71 716L264 84L456 716Q458 724 464 727T476 731Q483 731 489 728T500 720T505 709Q505 707 505 706T504 703L293 12Q290
3 282 -1T264 -6Z" />
<glyph unicode="W" horiz-adv-x="760" d="M250 -6Q240 -6 232 -2T222 12L24 703Q23 706 23 710Q23 717 27 721T37 728T50 731Q58 731 64 727T73 716L249 84L352 463Q356 475 363 479T380 483Q391 483 397 479T407 463L512 84L687 716Q690 723 696 727T710 731Q717
731 723 729T733 722T737 710Q737 706 736 703L540 12Q537 3 530 -1T511 -6Q502 -6 494 -2T484 12L380 386L278 12Q276 3 268 -1T250 -6Z" />
<glyph unicode="X" horiz-adv-x="464" d="M54 -1Q47 -1 41 2T30 11T26 24Q26 30 29 37L201 366L32 692Q26 703 26 711Q26 718 30 722T40 729T54 732Q66 732 73 720T86 697L231 414L378 697Q383 708 391 720T410 732Q417 732 423 730T433 723T437 711Q437 703 432
692L261 366L434 37Q438 30 438 24Q438 17 434 12T424 3T410 -1Q400 -1 393 11T380 33L231 319L84 33Q79 23 72 11T54 -1Z" />
<glyph unicode="Y" horiz-adv-x="518" d="M259 0Q249 0 242 5T234 21V276Q234 280 232 283L25 690Q23 696 22 701T20 709Q20 716 24 720T33 728T44 731Q50 731 56 727T67 713L259 328L452 713Q457 722 463 726T475 731Q481 731 486 728T494 721T498 709Q498 706
497 701T493 690L285 283Q284 280 284 276V21Q284 11 276 6T259 0Z" />
<glyph unicode="Z" horiz-adv-x="472" d="M46 0Q37 0 31 6T25 20Q25 28 30 37L372 683H57Q47 683 42 690T36 707Q36 716 41 723T57 731H416Q427 731 432 726T437 713Q437 703 431 692L90 48H427Q438 48 443 41T448 24Q448 15 443 8T427 0H46Z" />
<glyph unicode="[" horiz-adv-x="293" d="M95 -21Q86 -21 79 -15T71 0V747Q71 756 78 762T95 768H253Q262 768 268 761T274 745Q274 736 268 729T253 721H121V26H253Q262 26 268 19T274 2Q274 -7 268 -14T253 -21H95Z" />
<glyph unicode="\" horiz-adv-x="345" d="M297 0Q291 0 285 3T277 14L28 723Q27 726 27 731Q27 742 34 748T49 754Q56 754 61 752T67 743L318 26Q319 25 319 24T319 19Q319 11 313 6T297 0Z" />
<glyph unicode="]" horiz-adv-x="293" d="M40 -21Q31 -21 25 -14T19 2Q19 12 25 19T40 26H172V721H40Q31 721 25 728T19 745Q19 754 25 761T40 768H198Q208 768 215 762T222 747V0Q222 -9 215 -15T198 -21H40Z" />
<glyph unicode="^" horiz-adv-x="264" d="M20 596Q12 596 6 602T0 619Q0 624 3 628T11 636L115 692Q123 697 132 697Q141 697 149 692L253 637Q259 634 261 629T264 617Q264 609 259 603T245 597Q243 597 241 598T236 600L132 655L28 599Q26 598 24 597T20 596Z" />
<glyph unicode="_" horiz-adv-x="340" d="M11 -46Q2 -46 -4 -40T-10 -23Q-10 -13 -4 -7T11 0H331Q339 0 345 -6T352 -23Q352 -33 346 -39T331 -46H11Z" />
<glyph unicode="`" horiz-adv-x="143" d="M121 596Q119 596 117 597T111 599L11 655Q0 661 0 674Q0 683 5 690T20 697Q23 697 27 695L134 634Q143 630 143 619Q143 610 137 603T121 596Z" />
<glyph unicode="a" horiz-adv-x="430" d="M171 -6Q113 -6 73 26T33 126Q33 179 62 208T144 248T266 260H320V286Q320 321 308 355T268 411T194 433Q162 433 142 427T109 413T89 405Q79 405 73 414T67 432Q67 444 86 454T136 471T196 478Q261 478 298 451T352 380T369
286V21Q369 13 363 7T345 0Q335 0 328 6T321 21V70Q296 41 259 18T171 -6ZM178 38Q213 38 245 55T299 98T320 146V220H271Q222 220 179 215T109 190T82 128Q82 81 110 60T178 38Z" />
<glyph unicode="b" horiz-adv-x="476" d="M251 -6Q204 -6 168 16T114 70V21Q114 13 108 7T90 0Q80 0 73 6T66 21V745Q66 755 73 760T90 766Q101 766 108 761T115 745V402Q132 431 165 454T248 478Q297 478 338 454T403 388T428 295V179Q428 131 404 89T339 20T251
-6ZM246 40Q282 40 312 60T360 112T379 179V295Q379 330 361 361T312 412T245 432Q213 432 183 416T134 369T115 295V145Q115 129 132 104T179 60T246 40Z" />
<glyph unicode="c" horiz-adv-x="407" d="M237 -6Q173 -6 132 18T70 84T49 179V293Q49 345 69 387T131 454T237 478Q278 478 308 468T356 443T373 417Q373 412 370 406T361 397T350 393Q341 393 330 403T298 422T239 432Q170 432 134 395T98 293V179Q98 115 134
78T240 40Q280 40 301 50T334 70T356 80Q363 80 367 76T375 67T379 56Q379 45 362 30T313 5T237 -6Z" />
<glyph unicode="d" horiz-adv-x="476" d="M225 -6Q178 -6 137 20T72 88T47 179V295Q47 346 71 387T137 453T227 478Q277 478 310 455T360 402V745Q360 755 367 760T385 766Q396 766 402 761T409 745V21Q409 13 403 7T385 0Q376 0 369 6T361 21V70Q346 39 309 17T225
-6ZM229 40Q267 40 296 59T343 104T360 145V295Q360 338 341 368T293 415T230 432Q194 432 164 412T115 361T96 295V179Q96 144 114 112T163 60T229 40Z" />
<glyph unicode="e" horiz-adv-x="451" d="M256 -6Q195 -6 149 17T75 81T48 179V298Q48 347 73 388T140 453T232 478Q281 478 322 455T388 391T414 297Q414 260 402 244T370 224T329 220H97V178Q97 114 143 77T258 39Q299 39 321 49T355 69T377 79Q384 79 389 75T397
66T400 55Q400 45 383 30T333 5T256 -6ZM97 261H310Q344 261 355 268T366 297Q366 331 350 362T303 414T232 434Q194 434 164 416T115 368T97 302V261Z" />
<glyph unicode="f" horiz-adv-x="297" d="M89 0Q79 0 73 6T66 20V585Q66 634 90 675T155 741T244 766H261Q272 766 278 759T284 742Q284 733 278 727T261 720H248Q211 720 181 701T134 652T115 587V472H264Q273 472 278 466T284 451Q284 442 279 436T264 429H115V20Q115
12 108 6T89 0Z" />
<glyph unicode="g" horiz-adv-x="450" d="M228 -235Q170 -235 125 -219T55 -173T30 -104Q30 -59 57 -33T118 6Q92 15 76 30T60 76Q60 104 73 120T109 147Q83 169 70 201T56 273V314Q56 362 76 399T134 457T222 478Q258 478 288 467T340 433Q354 461 374 478T413
495Q426 495 432 488T438 472Q438 463 433 458T420 452Q408 451 392 442T362 407Q376 389 382 365T389 314V273Q389 226 368 188T309 129T221 107Q176 107 141 126Q128 119 117 110T106 82Q106 58 128 48T187 34T262 26T338 10T396 -26T419 -96Q419 -141 395 -172T328
-219T228 -235ZM227 -195Q296 -195 333 -169T371 -98Q371 -64 350 -47T297 -22T232 -12T175 -6Q137 -17 108 -38T78 -99Q78 -142 117 -168T227 -195ZM223 148Q278 148 309 183T341 273V314Q341 367 310 402T222 437Q166 437 135 402T104 314V274Q104 221 135 185T223
148Z" />
<glyph unicode="h" horiz-adv-x="488" d="M90 0Q80 0 73 6T66 21V745Q66 755 73 760T90 766Q101 766 108 761T115 745V402Q132 431 165 454T248 478Q297 478 337 454T402 388T427 295V21Q427 11 420 6T402 0Q394 0 386 5T378 21V295Q378 330 360 361T311 412T244
432Q212 432 183 416T134 369T115 295V21Q115 13 108 7T90 0Z" />
<glyph unicode="i" horiz-adv-x="180" d="M89 0Q79 0 72 6T65 21V452Q65 461 72 466T89 472Q100 472 107 467T114 452V21Q114 13 107 7T89 0ZM89 621Q74 621 63 632T51 658Q51 673 62 683T89 693Q105 693 115 683T126 658Q126 643 116 632T89 621Z" />
<glyph unicode="j" horiz-adv-x="181" d="M-11 -235Q-23 -235 -29 -228T-36 -211Q-36 -201 -30 -195T-14 -189Q22 -189 39 -171T61 -120T66 -46V452Q66 461 73 466T90 472Q101 472 108 467T115 452V-46Q115 -101 103 -144T63 -211T-11 -235ZM90 621Q75 621 64
632T52 658Q52 673 63 683T90 693Q106 693 116 683T127 658Q127 643 117 632T90 621Z" />
<glyph unicode="k" horiz-adv-x="445" d="M90 0Q80 0 73 6T66 21V745Q66 755 73 760T90 766Q101 766 108 761T115 745V242L373 468Q380 473 386 473Q392 473 397 471T407 463T411 450Q411 446 410 442T404 434L250 299L429 35Q433 30 433 24Q433 18 430 12T420
3T407 -1Q397 -1 391 9L214 268L115 181V21Q115 13 108 7T90 0Z" />
<glyph unicode="l" horiz-adv-x="198" d="M98 0Q88 0 81 6T74 21V745Q74 755 81 760T98 766Q109 766 116 761T123 745V21Q123 13 116 7T98 0Z" />
<glyph unicode="m" horiz-adv-x="772" d="M89 0Q79 0 72 6T65 21V452Q65 461 72 466T89 472Q100 472 106 467T113 452V402Q130 431 163 454T247 478Q298 478 336 450T393 378Q419 429 460 453T545 478Q588 478 625 457T687 395T711 295V21Q711 13 704 7T686 0Q676
0 669 6T662 21V295Q662 340 644 370T597 416T539 432Q507 432 479 416T432 370T413 300V20Q413 10 405 5T388 0Q379 0 372 5T364 20V299Q364 338 347 367T303 414T242 432Q211 432 182 416T133 369T114 295V21Q114 13 107 7T89 0Z" />
<glyph unicode="n" horiz-adv-x="487" d="M89 0Q79 0 72 6T65 21V452Q65 461 72 466T89 472Q100 472 106 467T113 452V402Q130 431 163 454T247 478Q296 478 336 454T401 388T426 295V21Q426 11 419 6T401 0Q393 0 385 5T377 21V295Q377 330 359 361T310 412T243
432Q211 432 182 416T133 369T114 295V21Q114 13 107 7T89 0Z" />
<glyph unicode="o" horiz-adv-x="461" d="M230 -6Q182 -6 140 20T73 88T47 179V295Q47 344 72 386T139 453T230 478Q280 478 321 454T388 388T414 295V179Q414 131 389 89T322 20T230 -6ZM230 40Q268 40 298 60T346 112T365 179V295Q365 330 347 361T299 412T230
432Q192 432 162 412T114 361T96 295V179Q96 144 114 112T162 60T230 40Z" />
<glyph unicode="p" horiz-adv-x="476" d="M90 -235Q80 -235 73 -228T66 -213V452Q66 461 73 466T90 472Q101 472 107 467T114 452V402Q131 431 165 454T248 478Q297 478 338 454T403 388T428 295V179Q428 131 404 89T339 20T251 -6Q205 -6 169 16T115 70V-213Q115
-221 108 -228T90 -235ZM246 40Q282 40 312 60T360 112T379 179V295Q379 330 361 361T312 412T245 432Q213 432 183 416T134 369T115 295V145Q115 129 132 104T179 60T246 40Z" />
<glyph unicode="q" horiz-adv-x="476" d="M385 -235Q375 -235 368 -228T360 -213V70Q345 39 308 17T225 -6Q178 -6 137 20T72 88T47 179V295Q47 346 71 387T137 453T227 478Q277 478 311 455T361 402V452Q361 461 368 466T386 472Q396 472 402 467T409 452V-213Q409
-221 403 -228T385 -235ZM230 40Q268 40 297 59T343 104T360 145V295Q360 338 341 368T293 415T231 432Q194 432 164 412T115 361T96 295V179Q96 144 114 112T163 60T230 40Z" />
<glyph unicode="r" horiz-adv-x="318" d="M89 0Q79 0 72 6T65 21V452Q65 461 72 466T89 472Q100 472 106 467T113 452V401Q125 421 144 438T189 467T250 478H286Q295 478 301 472T307 455Q307 445 301 439T286 432H250Q216 432 185 415T134 365T114 286V21Q114
13 107 7T89 0Z" />
<glyph unicode="s" horiz-adv-x="380" d="M187 -6Q141 -6 108 5T55 32T36 62Q36 67 38 72T45 81T54 85Q64 85 77 74T115 50T186 38Q246 38 271 61T296 115Q296 151 279 171T232 203T172 222T111 244T64 281T46 346Q46 376 62 407T111 458T199 478Q231 478 260
472T308 455T327 433Q327 429 324 423T317 412T305 407Q298 407 285 414T251 427T200 434Q161 434 138 420T104 386T93 347Q93 317 111 300T157 274T218 255T278 231T325 190T343 117Q343 61 302 28T187 -6Z" />
<glyph unicode="t" horiz-adv-x="283" d="M215 0Q141 0 102 34T63 142V680Q63 690 71 695T87 701Q97 701 104 696T112 680V472H245Q253 472 258 466T264 450Q264 442 259 436T245 429H112V142Q112 90 135 68T215 46H240Q251 46 257 40T263 23Q263 14 257 7T240 0H215Z" />
<glyph unicode="u" horiz-adv-x="489" d="M245 -6Q195 -6 153 19T86 87T61 177V451Q61 459 68 465T86 472Q96 472 103 466T110 451V177Q110 142 128 111T176 60T245 40Q283 40 313 59T361 110T379 177V452Q379 460 386 466T404 472Q415 472 421 466T428 452V177Q428
128 403 86T337 19T245 -6Z" />
<glyph unicode="v" horiz-adv-x="405" d="M203 -7Q194 -7 188 -4T179 7L21 435Q20 437 19 442T17 450Q17 456 21 461T32 470T45 473Q51 473 57 470T65 461L203 83L339 455Q341 462 345 467T359 473Q365 473 371 471T383 463T388 451Q388 446 387 442T384 435L226
7Q223 1 217 -3T203 -7Z" />
<glyph unicode="w" horiz-adv-x="660" d="M199 -7Q190 -7 186 -3T177 11L21 436Q20 439 19 443T17 450Q17 457 21 462T31 470T45 473Q51 473 57 470T65 461L200 86L309 430Q311 438 317 441T331 445Q339 445 344 442T353 430L458 81L596 461Q599 473 615 473Q621
473 627 471T638 463T642 451Q642 448 641 443T638 436L482 7Q479 -1 474 -4T462 -7Q454 -7 450 -4T442 6L331 358L221 11Q218 2 213 -2T199 -7Z" />
<glyph unicode="x" horiz-adv-x="394" d="M54 -6Q47 -6 41 -3T31 6T26 18Q26 24 30 29L166 239L31 443Q30 445 29 448T27 453Q27 460 31 465T42 474T55 478Q60 478 65 476T72 470L197 278L323 469Q326 474 330 476T340 478Q346 478 352 475T363 467T368 453Q368
449 364 443L228 238L365 29Q367 27 368 24T369 18Q369 12 365 7T355 -2T341 -6Q337 -6 332 -4T325 2L197 198L71 2Q68 -2 64 -4T54 -6Z" />
<glyph unicode="y" horiz-adv-x="407" d="M40 -235Q31 -235 24 -229T17 -212Q17 -203 21 -196T35 -189Q60 -189 81 -172T121 -124T154 -57T180 16L18 447Q16 452 16 455Q16 462 20 467T31 475T45 479Q51 479 57 476T64 466L205 81L342 466Q345 472 350 475T361
479Q368 479 374 476T385 468T390 455Q390 450 388 447L230 16Q217 -23 200 -66T161 -148T109 -210T40 -235Z" />
<glyph unicode="z" horiz-adv-x="392" d="M47 0Q37 0 31 6T25 20Q25 24 27 29T32 38L288 427H56Q47 427 41 433T35 449Q35 459 41 465T56 472H335Q345 472 351 467T357 451Q357 442 351 434L94 45H347Q356 45 362 39T368 22Q368 13 362 7T347 0H47Z" />
<glyph unicode="{" horiz-adv-x="296" d="M252 -20Q202 -20 162 -1T97 52T72 131Q72 141 74 163T79 213T85 268T90 316T92 342Q92 354 83 357T62 361T41 366T32 384Q32 398 41 402T62 408T83 412T92 427Q92 435 89 458T82 511T75 567T72 605Q72 638 86 667T125
719T182 755T252 768Q264 768 270 761T277 745Q277 736 271 729T257 722Q219 722 188 705T140 661T122 600Q122 589 125 564T132 509T139 456T142 425Q142 408 130 397T108 384Q117 381 129 371T142 344Q142 335 139 306T132 242T125 176T122 131Q122 100 136 80T172
48T217 31T257 26Q265 26 269 22T275 14T277 4Q277 -7 270 -13T252 -20Z" />
<glyph unicode="|" horiz-adv-x="192" d="M96 -21Q86 -21 79 -15T71 0V748Q71 756 78 762T96 768Q106 768 113 762T121 748V0Q121 -9 114 -15T96 -21Z" />
<glyph unicode="}" horiz-adv-x="296" d="M44 -20Q34 -20 27 -14T19 4Q19 9 21 13T27 22T40 26Q56 26 79 31T123 48T159 80T174 131Q174 145 171 176T164 242T157 306T154 344Q154 361 166 371T188 384Q178 386 166 397T154 425Q154 432 157 456T164 509T171 563T174
600Q174 633 157 660T109 705T40 722Q31 722 25 729T19 745Q19 754 25 761T44 768Q81 768 113 755T171 719T210 667T224 605Q224 594 221 568T214 512T207 459T204 427Q204 415 213 412T234 408T255 403T264 384Q264 371 255 367T234 361T213 357T204 342Q204 336
206 316T211 269T217 213T222 163T224 131Q224 86 200 52T135 -1T44 -20Z" />
<glyph unicode="~" horiz-adv-x="401" d="M268 219Q243 219 224 228T185 246T137 255Q116 255 103 247T82 231T66 222Q62 222 58 225T52 233T50 243Q50 255 59 264T82 281T111 293T139 297Q164 297 183 289T223 271T268 261Q291 261 302 269T320 284T335 292Q341
292 344 289T350 282T352 273Q352 259 344 250T322 233T294 223T268 219Z" />
<glyph unicode="&#xa0;" horiz-adv-x="200" />
<glyph unicode="&#xa1;" horiz-adv-x="197" d="M98 -6Q85 -6 76 3T67 28Q67 115 70 206T75 388T78 566Q78 575 85 580T98 585Q105 585 112 580T119 566Q119 479 122 388T127 206T130 28Q130 12 121 3T98 -6ZM99 664Q81 664 70 676T58 705Q58 721 69 733T99 746Q115
746 127 734T139 705Q139 688 127 676T99 664Z" />
<glyph unicode="&#xa2;" horiz-adv-x="411" d="M208 40Q200 40 194 46T187 60V174Q112 185 76 235T39 357V376Q39 423 54 461T103 525T187 559V674Q187 683 193 688T208 694Q216 694 222 689T229 674V561Q266 561 298 552T349 530T368 501Q368 495 364 489T355
480T344 477Q335 477 324 486T291 505T229 516V218Q270 218 291 228T324 247T344 257Q354 257 361 250T368 233Q368 217 348 204T296 181T229 172V60Q229 52 223 46T208 40ZM187 221V512Q136 502 111 467T86 376V357Q86 302 111 267T187 221Z" />
<glyph unicode="&#xa3;" horiz-adv-x="473" d="M46 0Q35 0 30 7T24 24Q24 33 29 40T46 48H107L151 367H70Q62 367 57 373T51 388Q51 398 56 404T70 411H158L183 585Q190 635 220 676T297 743T393 768H409Q421 768 426 761T432 744Q432 736 427 729T409 721H388Q349
721 315 702T259 651T232 585L207 411H363Q372 411 377 404T382 388Q382 381 377 374T363 367H200L155 48H413Q423 48 427 41T432 24Q432 15 428 8T413 0H46Z" />
<glyph unicode="&#xa4;" horiz-adv-x="483" d="M243 290Q210 290 181 302T128 336L96 305Q91 300 84 300Q76 300 71 305T65 318Q65 325 70 330L103 363Q86 386 76 413T66 472Q66 502 76 530T102 580L76 607Q71 612 71 620Q71 628 77 633T91 638Q98 638 103 633L128
608Q151 628 180 640T243 652Q274 652 302 642T353 612L380 639Q386 644 394 644Q401 644 406 639T412 626Q412 618 407 613L379 585Q399 562 410 533T421 472Q421 441 410 412T378 359L407 330Q412 323 412 318Q412 312 407 306T394 300Q386 300 381 305L353 332Q330
313 302 302T243 290ZM243 333Q281 333 311 353T359 404T378 472Q378 507 360 538T312 589T243 609Q205 609 175 590T127 539T109 472Q109 436 127 405T175 353T243 333Z" />
<glyph unicode="&#xa5;" horiz-adv-x="492" d="M243 0Q233 0 226 6T218 21V191H99Q90 191 84 197T78 212Q78 222 84 228T99 234H218V310H99Q90 310 84 316T78 331Q78 341 84 347T99 353H206L29 701Q27 703 27 705T26 709Q26 715 29 720T39 728T53 732Q59 732 64
729T73 719L243 384L421 719Q425 725 430 728T441 732Q448 732 453 729T462 721T466 709Q466 704 465 701L279 353H392Q401 353 407 347T414 331Q414 322 408 316T392 310H267V234H392Q401 234 407 228T414 212Q414 203 408 197T392 191H267V21Q267 12 260 6T243
0Z" />
<glyph unicode="&#xa6;" horiz-adv-x="194" d="M97 450Q87 450 80 456T72 470V748Q72 756 79 762T97 768Q107 768 114 762T122 748V470Q122 462 115 456T97 450ZM97 -21Q87 -21 80 -15T72 0V277Q72 285 79 291T97 297Q107 297 114 291T122 277V0Q122 -9 115 -15T97 -21Z" />
<glyph unicode="&#xa7;" horiz-adv-x="464" d="M231 -66Q176 -66 135 -44T72 16T50 99Q50 113 57 118T75 124Q87 124 92 118T97 103Q97 88 103 67T122 26T160 -7T225 -20Q289 -20 324 14T359 113Q359 151 343 173T301 210T244 234T182 255T124 285T82 335T66 415V544Q66
601 82 637T123 694T178 723T234 731Q286 731 321 711T373 654T390 572Q390 556 383 551T367 545Q356 545 350 551T343 573Q343 593 335 619T303 665T236 685Q208 685 180 673T133 630T115 548Q115 510 130 487T172 450T230 426T293 404T350 374T393 325T409 245V118Q409
69 395 34T356 -23T299 -56T231 -66ZM362 214V246Q362 290 344 316T296 356T232 381T166 405T113 444V413Q113 368 131 342T179 302T243 277T309 253T362 214Z" />
<glyph unicode="&#xa8;" horiz-adv-x="182" d="M150 597Q136 597 127 606T117 630Q117 644 126 653T150 662Q164 662 173 653T182 630Q182 616 173 607T150 597ZM33 597Q19 597 10 606T0 630Q0 644 9 653T33 662Q47 662 56 653T65 630Q65 616 56 607T33 597Z" />
<glyph unicode="&#xa9;" horiz-adv-x="722" d="M358 35Q305 35 252 55T153 115T81 216T54 358Q54 442 82 503T157 605T257 665T364 685Q417 685 470 665T569 605T641 504T668 362Q668 278 640 217T565 115T465 55T358 35ZM358 74Q437 74 498 110T594 212T629 362Q629
445 596 509T504 609T364 646Q286 646 225 610T128 509T93 358Q93 276 126 212T219 111T358 74ZM361 168Q320 168 291 194T261 285V448Q261 512 291 539T362 566Q410 566 437 539T464 472Q464 458 460 453T443 448Q434 448 429 452T423 464Q423 475 419 490T402
516T363 527Q302 527 302 448V285Q302 206 364 206Q390 206 401 217T417 244T423 272Q424 280 429 283T443 287Q455 287 459 282T464 263Q464 224 437 196T361 168Z" />
<glyph unicode="&#xaa;" horiz-adv-x="310" d="M131 432Q125 432 118 432T105 432Q77 437 57 456T37 513Q37 564 78 581T184 599H215V614Q215 644 199 671T142 698Q121 698 108 693T88 684T75 679Q67 679 63 686T58 702Q58 711 71 718T104 730T143 735Q186 735
211 718T247 673T258 614V452Q258 445 252 440T237 435Q228 435 222 440T216 452V478Q202 461 181 448T131 432ZM133 466Q153 466 172 476T203 502T215 532V570H185Q159 570 135 567T95 552T80 517Q80 490 95 478T133 466Z" />
<glyph unicode="&#xab;" horiz-adv-x="382" d="M314 74Q302 74 296 84L204 255Q200 261 198 266T196 277Q196 283 198 288T204 299L296 471Q302 481 316 481Q324 481 329 477T338 468T342 457Q342 452 339 447L247 277L339 108Q342 103 342 98Q342 92 338 87T328
78T314 74ZM156 74Q144 74 138 84L45 255Q42 261 40 266T38 277Q38 283 40 288T45 299L138 471Q144 481 158 481Q165 481 171 477T180 468T184 457Q184 452 181 447L89 277L181 108Q184 103 184 98Q184 92 180 87T170 78T156 74Z" />
<glyph unicode="&#xac;" horiz-adv-x="482" d="M388 63Q378 63 371 69T364 84V218H77Q69 218 63 224T57 240Q57 250 63 256T77 263H391Q399 263 406 257T413 240V84Q413 75 406 69T388 63Z" />
<glyph unicode="&#xad;" horiz-adv-x="457" d="M68 218Q60 218 54 224T48 240Q48 250 54 256T68 263H388Q397 263 403 257T410 240Q410 231 404 225T388 218H68Z" />
<glyph unicode="&#xae;" horiz-adv-x="722" d="M358 35Q305 35 252 55T153 115T81 216T54 358Q54 442 82 503T157 605T257 665T364 685Q417 685 470 665T569 605T641 504T668 362Q668 278 640 217T565 115T465 55T358 35ZM358 74Q437 74 498 110T594 212T629 362Q629
445 596 509T504 609T364 646Q286 646 225 610T128 509T93 358Q93 276 126 212T219 111T358 74ZM451 170Q444 170 440 175T433 188L361 346H310V186Q310 178 304 175T290 171Q282 171 276 174T270 186V547Q270 552 273 556T284 562H370Q398 562 421 552T459 519T473
455Q473 406 454 382T404 351L472 198Q474 193 474 191Q474 183 467 177T451 170ZM310 381H370Q398 381 415 397T433 452Q433 492 416 508T370 524H310V381Z" />
<glyph unicode="&#xaf;" horiz-adv-x="260" d="M20 642Q12 642 6 648T0 662Q0 672 6 678T20 684H238Q246 684 253 678T260 662Q260 654 253 648T238 642H20Z" />
<glyph unicode="&#xb0;" horiz-adv-x="424" d="M212 406Q165 406 125 431T60 498T35 588Q35 636 59 677T123 743T212 768Q260 768 300 744T365 679T390 588Q390 541 366 499T301 432T212 406ZM212 449Q249 449 279 469T328 520T347 588Q347 623 329 654T280 705T212
725Q174 725 144 705T96 654T78 588Q78 552 95 521T144 469T212 449Z" />
<glyph unicode="&#xb1;" horiz-adv-x="477" d="M239 169Q229 169 222 175T215 190V326H78Q69 326 63 332T57 348Q57 359 63 365T78 372H215V507Q215 516 222 522T239 529Q249 529 255 523T261 507V372H398Q406 372 412 366T419 348Q419 339 413 333T398 326H261V190Q261
181 255 175T239 169ZM78 63Q69 63 63 69T57 85Q57 95 63 101T78 108H398Q406 108 412 102T419 85Q419 76 413 70T398 63H78Z" />
<glyph unicode="&#xb2;" horiz-adv-x="302" d="M54 360Q48 360 42 364T35 375V424Q35 449 54 469T101 508T158 545T206 584T225 630Q225 653 207 672T151 692Q122 692 104 679T85 636Q85 631 79 626T63 620Q55 620 50 625T44 644Q44 670 58 689T97 720T152 731Q185
731 210 718T250 683T265 632Q265 599 247 575T200 531T144 494T96 461T77 424V398H255Q261 398 265 393T270 379Q270 372 266 366T255 360H54Z" />
<glyph unicode="&#xb3;" horiz-adv-x="309" d="M150 357Q110 357 84 370T45 403T32 443Q32 455 36 458T51 462Q64 462 68 458T72 446Q72 436 79 424T103 404T150 395Q189 395 209 412T229 466V475Q229 509 208 523T150 537Q142 537 139 542T135 554Q135 561 138
566T150 572Q183 572 200 584T218 633Q218 664 202 679T152 694Q124 694 109 686T88 667T82 644Q82 636 78 631T63 626Q50 626 46 630T42 647Q42 663 51 682T84 716T153 731Q200 731 229 711T258 641Q258 608 246 586T212 556Q238 547 254 528T270 475V466Q270
427 254 403T211 368T150 357Z" />
<glyph unicode="&#xb4;" horiz-adv-x="143" d="M22 596Q14 596 7 603T0 619Q0 630 9 634L116 695Q120 697 124 697Q133 697 138 690T143 674Q143 661 132 655L32 599Q30 598 27 597T22 596Z" />
<glyph unicode="&#xb5;" horiz-adv-x="483" d="M98 -235Q88 -235 81 -229T74 -214V451Q74 459 81 465T98 472Q109 472 116 466T123 451V156Q123 140 134 120T164 82T208 52T259 40Q293 40 322 60T368 111T386 177V451Q386 461 394 466T410 472Q421 472 428 467T435
451V177Q435 127 412 86T348 19T257 -6Q210 -6 174 15T121 64V-214Q121 -222 115 -228T98 -235Z" />
<glyph unicode="&#xb6;" horiz-adv-x="519" d="M298 0Q290 0 284 5T277 21V306H232Q177 306 133 326T62 392T36 513V525Q36 600 62 645T132 710T232 731H417Q426 731 432 726T439 710V20Q439 10 433 5T417 0Q409 0 403 5T396 20V692H320V21Q320 11 313 6T298 0Z" />
<glyph unicode="&#xb7;" horiz-adv-x="180" d="M91 260Q73 260 62 272T50 300Q50 317 61 328T91 340Q107 340 119 329T131 300Q131 284 119 272T91 260Z" />
<glyph unicode="&#xb8;" horiz-adv-x="161" d="M76 -208Q63 -208 45 -206T14 -198T0 -184Q0 -180 2 -175T7 -167T14 -163Q19 -163 32 -169T70 -176Q100 -176 112 -164T124 -136Q124 -114 106 -104T57 -92L24 -90L49 9H84L66 -63Q117 -64 139 -85T161 -134Q161
-152 152 -169T123 -197T76 -208Z" />
<glyph unicode="&#xb9;" horiz-adv-x="163" d="M90 360Q82 360 76 363T69 375V668L47 640Q43 634 36 634Q30 634 25 639T20 651Q20 656 23 661T29 668L78 725Q84 731 93 731Q99 731 104 727T110 716V375Q110 367 104 364T90 360Z" />
<glyph unicode="&#xba;" horiz-adv-x="323" d="M162 430Q129 430 102 447T58 491T41 549V617Q41 649 57 675T101 718T162 735Q194 735 221 719T265 677T282 617V549Q282 519 266 492T222 447T162 430ZM162 470Q193 470 215 495T238 550V617Q238 647 216 671T162
695Q129 695 107 671T85 617V550Q85 520 107 495T162 470Z" />
<glyph unicode="&#xbb;" horiz-adv-x="382" d="M225 74Q219 74 213 77T202 86T198 98Q198 103 201 108L293 277L201 447Q198 452 198 457Q198 463 201 468T211 477T224 481Q239 481 243 471L336 299Q339 293 341 288T344 277Q344 272 342 267T336 255L243 84Q238
74 225 74ZM67 74Q61 74 54 77T44 86T40 98Q40 103 43 108L135 277L43 447Q40 452 40 457Q40 463 43 468T53 477T65 481Q81 481 85 471L178 299Q181 293 183 288T186 277Q186 272 184 267T178 255L85 84Q80 74 67 74Z" />
<glyph unicode="&#xbc;" horiz-adv-x="581" d="M90 360Q82 360 76 363T69 375V668L47 640Q43 634 36 634Q30 634 25 639T20 651Q20 656 23 661T29 668L78 725Q84 731 93 731Q99 731 104 727T110 716V375Q110 367 104 364T90 360ZM42 -23Q34 -23 28 -18T22 -4Q22
3 24 7L410 758Q415 768 427 768Q434 768 441 762T449 746Q449 740 446 734L62 -10Q59 -17 54 -20T42 -23ZM495 0Q488 0 482 3T476 15V86H332Q325 86 321 90T317 102Q317 105 319 111L460 358Q463 364 468 367T479 371Q486 371 493 367T500 354Q500 351 497 347L370
125H476V212Q476 219 482 222T495 226Q504 226 510 223T516 212V125H547Q555 125 559 119T563 105Q563 98 558 92T547 86H516V15Q516 7 510 4T495 0Z" />
<glyph unicode="&#xbd;" horiz-adv-x="603" d="M90 360Q82 360 76 363T69 375V668L47 640Q43 634 36 634Q30 634 25 639T20 651Q20 656 23 661T29 668L78 725Q84 731 93 731Q99 731 104 727T110 716V375Q110 367 104 364T90 360ZM42 -23Q34 -23 28 -18T22 -4Q22
3 24 7L410 758Q415 768 427 768Q434 768 441 762T449 746Q449 740 446 734L62 -10Q59 -17 54 -20T42 -23ZM355 0Q349 0 343 4T336 15V64Q336 89 355 109T402 148T459 185T507 224T526 270Q526 293 508 312T452 332Q423 332 405 319T386 276Q386 271 380 266T364
260Q356 260 351 265T345 284Q345 310 359 329T398 360T453 371Q486 371 511 358T551 323T566 272Q566 239 548 215T501 171T445 134T397 101T378 64V38H556Q562 38 566 33T571 19Q571 12 567 6T556 0H355Z" />
<glyph unicode="&#xbe;" horiz-adv-x="728" d="M150 357Q110 357 84 370T45 403T32 443Q32 455 36 458T51 462Q64 462 68 458T72 446Q72 436 79 424T103 404T150 395Q189 395 209 412T229 466V475Q229 509 208 523T150 537Q142 537 139 542T135 554Q135 561 138
566T150 572Q183 572 200 584T218 633Q218 664 202 679T152 694Q124 694 109 686T88 667T82 644Q82 636 78 631T63 626Q50 626 46 630T42 647Q42 663 51 682T84 716T153 731Q200 731 229 711T258 641Q258 608 246 586T212 556Q238 547 254 528T270 475V466Q270
427 254 403T211 368T150 357ZM188 -23Q180 -23 174 -18T168 -4Q168 3 170 7L556 758Q561 768 573 768Q580 768 587 762T595 746Q595 740 592 734L208 -10Q205 -17 200 -20T188 -23ZM641 0Q634 0 628 3T622 15V86H478Q471 86 467 90T463 102Q463 105 465 111L606
358Q609 364 614 367T625 371Q632 371 639 367T646 354Q646 351 643 347L516 125H622V212Q622 219 628 222T641 226Q650 226 656 223T662 212V125H693Q701 125 705 119T709 105Q709 98 704 92T693 86H662V15Q662 7 656 4T641 0Z" />
<glyph unicode="&#xbf;" horiz-adv-x="391" d="M221 -6Q159 -6 118 18T57 83T36 174Q36 223 52 259T91 322T136 370T174 408Q189 426 195 447T202 497T204 565Q204 575 210 580T226 585Q235 585 241 580T247 562Q247 504 243 470T230 417T209 384Q193 366 172
347T130 305T96 250T82 177Q82 113 118 76T225 38Q257 38 277 44T310 60T331 76T347 83Q354 83 360 77T367 61Q367 47 347 32T294 5T221 -6ZM226 664Q210 664 198 676T186 705Q186 721 197 733T226 746Q244 746 255 734T267 705Q267 688 255 676T226 664Z" />
<glyph unicode="&#xc0;" horiz-adv-x="529" d="M50 0Q44 0 38 3T27 10T23 22Q23 25 24 28L237 719Q240 729 248 733T265 737Q274 737 282 733T294 719L505 28Q506 25 506 22Q506 17 502 12T491 3T477 0Q470 0 465 3T457 15L408 174H120L72 15Q70 7 64 4T50 0ZM134
220H394L265 647L134 220ZM311 853Q309 853 307 854T301 856L201 912Q190 918 190 931Q190 940 195 947T210 954Q213 954 217 952L324 891Q333 887 333 876Q333 867 327 860T311 853Z" />
<glyph unicode="&#xc1;" horiz-adv-x="529" d="M50 0Q44 0 38 3T27 10T23 22Q23 25 24 28L237 719Q240 729 248 733T265 737Q274 737 282 733T294 719L505 28Q506 25 506 22Q506 17 502 12T491 3T477 0Q470 0 465 3T457 15L408 174H120L72 15Q70 7 64 4T50 0ZM134
220H394L265 647L134 220ZM219 853Q211 853 204 860T197 876Q197 887 206 891L313 952Q317 954 321 954Q330 954 335 947T340 931Q340 918 329 912L229 856Q227 855 224 854T219 853Z" />
<glyph unicode="&#xc2;" horiz-adv-x="529" d="M50 0Q44 0 38 3T27 10T23 22Q23 25 24 28L237 719Q240 729 248 733T265 737Q274 737 282 733T294 719L505 28Q506 25 506 22Q506 17 502 12T491 3T477 0Q470 0 465 3T457 15L408 174H120L72 15Q70 7 64 4T50 0ZM134
220H394L265 647L134 220ZM153 853Q145 853 139 859T133 876Q133 881 136 885T144 893L248 949Q256 954 265 954Q274 954 282 949L386 894Q392 891 394 886T397 874Q397 866 392 860T378 854Q376 854 374 855T369 857L265 912L161 856Q159 855 157 854T153 853Z"
/>
<glyph unicode="&#xc3;" horiz-adv-x="529" d="M50 0Q44 0 38 3T27 10T23 22Q23 25 24 28L237 719Q240 729 248 733T265 737Q274 737 282 733T294 719L505 28Q506 25 506 22Q506 17 502 12T491 3T477 0Q470 0 465 3T457 15L408 174H120L72 15Q70 7 64 4T50 0ZM134
220H394L265 647L134 220ZM331 871Q306 871 287 880T247 898T200 907Q179 907 166 899T144 883T129 874Q125 874 121 877T115 885T113 895Q113 907 121 916T144 933T174 945T202 949Q227 949 246 941T286 923T331 913Q354 913 365 921T383 936T398 944Q404 944
407 941T413 934T415 925Q415 911 407 902T385 885T357 875T331 871Z" />
<glyph unicode="&#xc4;" horiz-adv-x="529" d="M50 0Q44 0 38 3T27 10T23 22Q23 25 24 28L237 719Q240 729 248 733T265 737Q274 737 282 733T294 719L505 28Q506 25 506 22Q506 17 502 12T491 3T477 0Q470 0 465 3T457 15L408 174H120L72 15Q70 7 64 4T50 0ZM134
220H394L265 647L134 220ZM324 854Q310 854 301 863T291 887Q291 901 300 910T324 919Q338 919 347 910T356 887Q356 873 347 864T324 854ZM207 854Q193 854 184 863T174 887Q174 901 183 910T207 919Q221 919 230 910T239 887Q239 873 230 864T207 854Z" />
<glyph unicode="&#xc5;" horiz-adv-x="529" d="M50 0Q44 0 38 3T27 10T23 22Q23 25 24 28L237 719Q240 729 248 733T265 737Q274 737 282 733T294 719L505 28Q506 25 506 22Q506 17 502 12T491 3T477 0Q470 0 465 3T457 15L408 174H120L72 15Q70 7 64 4T50 0ZM134
220H394L265 647L134 220ZM265 838Q240 838 219 851T186 886T174 932Q174 956 186 977T219 1011T265 1024Q289 1024 310 1012T343 978T356 932Q356 908 344 886T310 851T265 838ZM265 865Q290 865 308 886T327 932Q327 954 309 974T265 994Q238 994 220 974T202
932Q202 907 220 886T265 865Z" />
<glyph unicode="&#xc6;" horiz-adv-x="696" d="M100 0Q86 0 81 7T76 26V522Q76 598 102 643T174 710T276 731H649Q660 731 665 724T670 708Q670 699 665 691T649 683H413V389H567Q577 389 582 382T588 365Q588 357 583 350T567 343H413V48H649Q659 48 664 41T670
23Q670 15 665 8T649 0H387Q378 0 371 5T363 21V343H125V26Q125 15 121 8T100 0ZM125 389H363V683H276Q205 683 165 644T125 522V389Z" />
<glyph unicode="&#xc7;" horiz-adv-x="518" d="M274 -6Q219 -6 173 15T100 81T73 203V522Q73 598 101 643T175 710T276 731Q341 731 385 708T452 648T475 569Q475 549 469 543T450 536Q435 536 430 543T425 557Q424 574 418 595T397 637T352 670T276 683Q201 683
162 644T122 522V203Q122 120 162 81T280 42Q327 42 355 54T397 86T416 128T425 169Q426 178 431 184T450 190Q463 190 469 183T475 156Q475 115 452 78T384 17T274 -6ZM304 -208Q291 -208 273 -206T242 -198T228 -184Q228 -180 230 -175T235 -167T242 -163Q247
-163 260 -169T298 -176Q328 -176 340 -164T352 -136Q352 -114 334 -104T285 -92L252 -90L277 9H312L294 -63Q345 -64 367 -85T389 -134Q389 -152 380 -169T351 -197T304 -208Z" />
<glyph unicode="&#xc8;" horiz-adv-x="503" d="M103 0Q94 0 87 5T80 21V710Q80 720 87 725T103 731H459Q470 731 475 724T480 708Q480 699 475 691T459 683H130V389H288Q298 389 303 382T309 365Q309 357 304 350T288 343H130V48H459Q469 48 474 41T480 23Q480
15 475 8T459 0H103ZM326 853Q324 853 322 854T316 856L216 912Q205 918 205 931Q205 940 210 947T225 954Q228 954 232 952L339 891Q348 887 348 876Q348 867 342 860T326 853Z" />
<glyph unicode="&#xc9;" horiz-adv-x="503" d="M103 0Q94 0 87 5T80 21V710Q80 720 87 725T103 731H459Q470 731 475 724T480 708Q480 699 475 691T459 683H130V389H288Q298 389 303 382T309 365Q309 357 304 350T288 343H130V48H459Q469 48 474 41T480 23Q480
15 475 8T459 0H103ZM234 853Q226 853 219 860T212 876Q212 887 221 891L328 952Q332 954 336 954Q345 954 350 947T355 931Q355 918 344 912L244 856Q242 855 239 854T234 853Z" />
<glyph unicode="&#xca;" horiz-adv-x="503" d="M103 0Q94 0 87 5T80 21V710Q80 720 87 725T103 731H459Q470 731 475 724T480 708Q480 699 475 691T459 683H130V389H288Q298 389 303 382T309 365Q309 357 304 350T288 343H130V48H459Q469 48 474 41T480 23Q480
15 475 8T459 0H103ZM168 853Q160 853 154 859T148 876Q148 881 151 885T159 893L263 949Q271 954 280 954Q289 954 297 949L401 894Q407 891 409 886T412 874Q412 866 407 860T393 854Q391 854 389 855T384 857L280 912L176 856Q174 855 172 854T168 853Z" />
<glyph unicode="&#xcb;" horiz-adv-x="503" d="M103 0Q94 0 87 5T80 21V710Q80 720 87 725T103 731H459Q470 731 475 724T480 708Q480 699 475 691T459 683H130V389H288Q298 389 303 382T309 365Q309 357 304 350T288 343H130V48H459Q469 48 474 41T480 23Q480
15 475 8T459 0H103ZM339 854Q325 854 316 863T306 887Q306 901 315 910T339 919Q353 919 362 910T371 887Q371 873 362 864T339 854ZM222 854Q208 854 199 863T189 887Q189 901 198 910T222 919Q236 919 245 910T254 887Q254 873 245 864T222 854Z" />
<glyph unicode="&#xcc;" horiz-adv-x="209" d="M105 0Q95 0 88 5T80 21V711Q80 721 87 726T105 731Q114 731 122 726T130 711V21Q130 11 122 6T105 0ZM150 853Q148 853 146 854T140 856L40 912Q29 918 29 931Q29 940 34 947T49 954Q52 954 56 952L163 891Q172
887 172 876Q172 867 166 860T150 853Z" />
<glyph unicode="&#xcd;" horiz-adv-x="209" d="M105 0Q95 0 88 5T80 21V711Q80 721 87 726T105 731Q114 731 122 726T130 711V21Q130 11 122 6T105 0ZM59 853Q51 853 44 860T37 876Q37 887 46 891L153 952Q157 954 161 954Q170 954 175 947T180 931Q180 918 169
912L69 856Q67 855 64 854T59 853Z" />
<glyph unicode="&#xce;" horiz-adv-x="209" d="M105 0Q95 0 88 5T80 21V711Q80 721 87 726T105 731Q114 731 122 726T130 711V21Q130 11 122 6T105 0ZM-7 853Q-15 853 -21 859T-27 876Q-27 881 -24 885T-16 893L88 949Q96 954 105 954Q114 954 122 949L226 894Q232
891 234 886T237 874Q237 866 232 860T218 854Q216 854 214 855T209 857L105 912L1 856Q-1 855 -3 854T-7 853Z" />
<glyph unicode="&#xcf;" horiz-adv-x="209" d="M105 0Q95 0 88 5T80 21V711Q80 721 87 726T105 731Q114 731 122 726T130 711V21Q130 11 122 6T105 0ZM163 854Q149 854 140 863T130 887Q130 901 139 910T163 919Q177 919 186 910T195 887Q195 873 186 864T163
854ZM46 854Q32 854 23 863T13 887Q13 901 22 910T46 919Q60 919 69 910T78 887Q78 873 69 864T46 854Z" />
<glyph unicode="&#xd0;" horiz-adv-x="564" d="M113 0Q102 0 96 6T89 20V362H21Q13 362 7 368T1 384Q1 393 7 399T21 406H89V711Q89 719 95 725T113 731H290Q347 731 392 710T465 644T492 522V209Q492 133 465 88T393 21T290 0H113ZM139 48H290Q361 48 401 87T442
209V522Q442 604 402 643T290 683H139V406H262Q270 406 276 400T282 384Q282 375 276 369T262 362H139V48Z" />
<glyph unicode="&#xd1;" horiz-adv-x="564" d="M105 0Q95 0 88 5T80 21V710Q80 722 87 726T105 731Q114 731 121 725T135 709T145 690L435 119V711Q435 721 442 726T460 731Q469 731 477 726T485 711V21Q485 11 477 6T460 0Q448 0 439 12T424 37L130 613V21Q130
11 122 6T105 0ZM349 871Q324 871 305 880T265 898T218 907Q197 907 184 899T162 883T147 874Q143 874 139 877T133 885T131 895Q131 907 139 916T162 933T192 945T220 949Q245 949 264 941T304 923T349 913Q372 913 383 921T401 936T416 944Q422 944 425 941T431
934T433 925Q433 911 425 902T403 885T375 875T349 871Z" />
<glyph unicode="&#xd2;" horiz-adv-x="548" d="M273 -6Q217 -6 172 15T100 81T73 203V522Q73 598 99 643T171 710T273 731Q330 731 376 710T448 644T475 522V203Q475 127 449 82T376 15T273 -6ZM273 42Q344 42 384 81T425 203V522Q425 604 385 643T273 683Q202
683 162 644T122 522V203Q122 121 162 82T273 42ZM320 853Q318 853 316 854T310 856L210 912Q199 918 199 931Q199 940 204 947T219 954Q222 954 226 952L333 891Q342 887 342 876Q342 867 336 860T320 853Z" />
<glyph unicode="&#xd3;" horiz-adv-x="548" d="M273 -6Q217 -6 172 15T100 81T73 203V522Q73 598 99 643T171 710T273 731Q330 731 376 710T448 644T475 522V203Q475 127 449 82T376 15T273 -6ZM273 42Q344 42 384 81T425 203V522Q425 604 385 643T273 683Q202
683 162 644T122 522V203Q122 121 162 82T273 42ZM228 853Q220 853 213 860T206 876Q206 887 215 891L322 952Q326 954 330 954Q339 954 344 947T349 931Q349 918 338 912L238 856Q236 855 233 854T228 853Z" />
<glyph unicode="&#xd4;" horiz-adv-x="548" d="M273 -6Q217 -6 172 15T100 81T73 203V522Q73 598 99 643T171 710T273 731Q330 731 376 710T448 644T475 522V203Q475 127 449 82T376 15T273 -6ZM273 42Q344 42 384 81T425 203V522Q425 604 385 643T273 683Q202
683 162 644T122 522V203Q122 121 162 82T273 42ZM162 853Q154 853 148 859T142 876Q142 881 145 885T153 893L257 949Q265 954 274 954Q283 954 291 949L395 894Q401 891 403 886T406 874Q406 866 401 860T387 854Q385 854 383 855T378 857L274 912L170 856Q168
855 166 854T162 853Z" />
<glyph unicode="&#xd5;" horiz-adv-x="548" d="M273 -6Q217 -6 172 15T100 81T73 203V522Q73 598 99 643T171 710T273 731Q330 731 376 710T448 644T475 522V203Q475 127 449 82T376 15T273 -6ZM273 42Q344 42 384 81T425 203V522Q425 604 385 643T273 683Q202
683 162 644T122 522V203Q122 121 162 82T273 42ZM341 871Q316 871 297 880T257 898T210 907Q189 907 176 899T154 883T139 874Q135 874 131 877T125 885T123 895Q123 907 131 916T154 933T184 945T212 949Q237 949 256 941T296 923T341 913Q364 913 375 921T393
936T408 944Q414 944 417 941T423 934T425 925Q425 911 417 902T395 885T367 875T341 871Z" />
<glyph unicode="&#xd6;" horiz-adv-x="548" d="M273 -6Q217 -6 172 15T100 81T73 203V522Q73 598 99 643T171 710T273 731Q330 731 376 710T448 644T475 522V203Q475 127 449 82T376 15T273 -6ZM273 42Q344 42 384 81T425 203V522Q425 604 385 643T273 683Q202
683 162 644T122 522V203Q122 121 162 82T273 42ZM333 854Q319 854 310 863T300 887Q300 901 309 910T333 919Q347 919 356 910T365 887Q365 873 356 864T333 854ZM216 854Q202 854 193 863T183 887Q183 901 192 910T216 919Q230 919 239 910T248 887Q248 873 239
864T216 854Z" />
<glyph unicode="&#xd7;" horiz-adv-x="395" d="M86 140Q80 140 75 143T66 152T62 164Q62 172 68 178L167 275L68 372Q63 378 63 387Q63 396 70 403T86 410Q95 410 101 405L197 307L294 405Q300 410 309 410Q318 410 325 403T332 387Q332 378 327 372L228 275L327
178Q333 172 333 164Q333 158 330 153T321 144T309 140Q301 140 295 146L197 243L100 146Q94 140 86 140Z" />
<glyph unicode="&#xd8;" horiz-adv-x="548" d="M273 -6Q217 -6 172 15T100 81T73 203V522Q73 598 99 643T171 710T273 731Q330 731 376 710T448 644T475 522V203Q475 127 449 82T376 15T273 -6ZM273 42Q344 42 384 81T425 203V522Q425 604 385 643T273 683Q202
683 162 644T122 522V203Q122 121 162 82T273 42ZM81 232Q73 232 67 237T60 251Q60 258 63 262L449 1013Q454 1023 465 1023Q473 1023 480 1017T488 1001Q488 995 485 989L101 245Q98 238 93 235T81 232Z" />
<glyph unicode="&#xd9;" horiz-adv-x="556" d="M277 -6Q221 -6 175 15T103 81T76 203V711Q76 721 83 726T101 731Q110 731 118 726T126 711V203Q126 121 166 82T277 42Q349 42 389 81T430 203V711Q430 721 437 726T455 731Q464 731 472 726T480 711V203Q480 127
453 82T380 15T277 -6ZM324 853Q322 853 320 854T314 856L214 912Q203 918 203 931Q203 940 208 947T223 954Q226 954 230 952L337 891Q346 887 346 876Q346 867 340 860T324 853Z" />
<glyph unicode="&#xda;" horiz-adv-x="556" d="M277 -6Q221 -6 175 15T103 81T76 203V711Q76 721 83 726T101 731Q110 731 118 726T126 711V203Q126 121 166 82T277 42Q349 42 389 81T430 203V711Q430 721 437 726T455 731Q464 731 472 726T480 711V203Q480 127
453 82T380 15T277 -6ZM232 853Q224 853 217 860T210 876Q210 887 219 891L326 952Q330 954 334 954Q343 954 348 947T353 931Q353 918 342 912L242 856Q240 855 237 854T232 853Z" />
<glyph unicode="&#xdb;" horiz-adv-x="556" d="M277 -6Q221 -6 175 15T103 81T76 203V711Q76 721 83 726T101 731Q110 731 118 726T126 711V203Q126 121 166 82T277 42Q349 42 389 81T430 203V711Q430 721 437 726T455 731Q464 731 472 726T480 711V203Q480 127
453 82T380 15T277 -6ZM166 853Q158 853 152 859T146 876Q146 881 149 885T157 893L261 949Q269 954 278 954Q287 954 295 949L399 894Q405 891 407 886T410 874Q410 866 405 860T391 854Q389 854 387 855T382 857L278 912L174 856Q172 855 170 854T166 853Z" />
<glyph unicode="&#xdc;" horiz-adv-x="556" d="M277 -6Q221 -6 175 15T103 81T76 203V711Q76 721 83 726T101 731Q110 731 118 726T126 711V203Q126 121 166 82T277 42Q349 42 389 81T430 203V711Q430 721 437 726T455 731Q464 731 472 726T480 711V203Q480 127
453 82T380 15T277 -6ZM337 854Q323 854 314 863T304 887Q304 901 313 910T337 919Q351 919 360 910T369 887Q369 873 360 864T337 854ZM220 854Q206 854 197 863T187 887Q187 901 196 910T220 919Q234 919 243 910T252 887Q252 873 243 864T220 854Z" />
<glyph unicode="&#xdd;" horiz-adv-x="518" d="M259 0Q249 0 242 5T234 21V276Q234 280 232 283L25 690Q23 696 22 701T20 709Q20 716 24 720T33 728T44 731Q50 731 56 727T67 713L259 328L452 713Q457 722 463 726T475 731Q481 731 486 728T494 721T498 709Q498
706 497 701T493 690L285 283Q284 280 284 276V21Q284 11 276 6T259 0ZM214 853Q206 853 199 860T192 876Q192 887 201 891L308 952Q312 954 316 954Q325 954 330 947T335 931Q335 918 324 912L224 856Q222 855 219 854T214 853Z" />
<glyph unicode="&#xde;" horiz-adv-x="488" d="M104 0Q94 0 87 6T80 21V713Q80 723 86 728T103 733Q114 733 121 728T129 712V543Q145 573 180 596T270 619Q314 619 353 602T417 550T441 466V288Q441 239 417 205T354 153T275 134Q244 134 214 144T161 171T129
212V21Q129 13 122 7T104 0ZM265 180Q297 180 326 192T374 228T392 288V466Q392 502 374 525T327 560T265 572Q230 572 199 559T148 522T129 466V287Q129 262 146 238T195 197T265 180Z" />
<glyph unicode="&#xdf;" horiz-adv-x="538" d="M324 -20Q313 -20 296 -19T260 -13T229 -1T216 20Q216 26 218 31T224 39T234 43Q244 43 261 33T315 23Q377 23 414 67T451 196V215Q451 251 436 289T386 355T290 387Q275 389 267 392T258 409Q258 423 267 426T291
432Q321 434 338 448T365 485T378 530T381 574Q381 642 353 681T264 721Q223 721 198 702T163 652T153 587V20Q153 12 145 6T127 0Q117 0 111 6T104 20V429H26Q18 429 13 435T7 450Q7 460 12 466T26 472H104V587Q104 635 120 676T171 743T263 768Q309 768 346 749T405
690T427 588Q427 553 419 517T395 454T354 415Q388 409 420 381T475 311T497 216V198Q497 123 472 75T407 4T324 -20Z" />
<glyph unicode="&#xe0;" horiz-adv-x="430" d="M171 -6Q113 -6 73 26T33 126Q33 179 62 208T144 248T266 260H320V286Q320 321 308 355T268 411T194 433Q162 433 142 427T109 413T89 405Q79 405 73 414T67 432Q67 444 86 454T136 471T196 478Q261 478 298 451T352
380T369 286V21Q369 13 363 7T345 0Q335 0 328 6T321 21V70Q296 41 259 18T171 -6ZM178 38Q213 38 245 55T299 98T320 146V220H271Q222 220 179 215T109 190T82 128Q82 81 110 60T178 38ZM259 595Q257 595 255 596T249 598L149 654Q138 660 138 673Q138 682 143
689T158 696Q161 696 165 694L272 633Q281 629 281 618Q281 609 275 602T259 595Z" />
<glyph unicode="&#xe1;" horiz-adv-x="430" d="M171 -6Q113 -6 73 26T33 126Q33 179 62 208T144 248T266 260H320V286Q320 321 308 355T268 411T194 433Q162 433 142 427T109 413T89 405Q79 405 73 414T67 432Q67 444 86 454T136 471T196 478Q261 478 298 451T352
380T369 286V21Q369 13 363 7T345 0Q335 0 328 6T321 21V70Q296 41 259 18T171 -6ZM178 38Q213 38 245 55T299 98T320 146V220H271Q222 220 179 215T109 190T82 128Q82 81 110 60T178 38ZM167 595Q159 595 152 602T145 618Q145 629 154 633L261 694Q265 696 269
696Q278 696 283 689T288 673Q288 660 277 654L177 598Q175 597 172 596T167 595Z" />
<glyph unicode="&#xe2;" horiz-adv-x="430" d="M171 -6Q113 -6 73 26T33 126Q33 179 62 208T144 248T266 260H320V286Q320 321 308 355T268 411T194 433Q162 433 142 427T109 413T89 405Q79 405 73 414T67 432Q67 444 86 454T136 471T196 478Q261 478 298 451T352
380T369 286V21Q369 13 363 7T345 0Q335 0 328 6T321 21V70Q296 41 259 18T171 -6ZM178 38Q213 38 245 55T299 98T320 146V220H271Q222 220 179 215T109 190T82 128Q82 81 110 60T178 38ZM101 851Q93 851 87 857T81 874Q81 879 84 883T92 891L196 947Q204 952 213
952Q222 952 230 947L334 892Q340 889 342 884T345 872Q345 864 340 858T326 852Q324 852 322 853T317 855L213 910L109 854Q107 853 105 852T101 851Z" />
<glyph unicode="&#xe3;" horiz-adv-x="430" d="M171 -6Q113 -6 73 26T33 126Q33 179 62 208T144 248T266 260H320V286Q320 321 308 355T268 411T194 433Q162 433 142 427T109 413T89 405Q79 405 73 414T67 432Q67 444 86 454T136 471T196 478Q261 478 298 451T352
380T369 286V21Q369 13 363 7T345 0Q335 0 328 6T321 21V70Q296 41 259 18T171 -6ZM178 38Q213 38 245 55T299 98T320 146V220H271Q222 220 179 215T109 190T82 128Q82 81 110 60T178 38ZM280 869Q255 869 236 878T196 896T149 905Q128 905 115 897T93 881T78 872Q74
872 70 875T64 883T62 893Q62 905 70 914T93 931T123 943T151 947Q176 947 195 939T235 921T280 911Q303 911 314 919T332 934T347 942Q353 942 356 939T362 932T364 923Q364 909 356 900T334 883T306 873T280 869Z" />
<glyph unicode="&#xe4;" horiz-adv-x="430" d="M171 -6Q113 -6 73 26T33 126Q33 179 62 208T144 248T266 260H320V286Q320 321 308 355T268 411T194 433Q162 433 142 427T109 413T89 405Q79 405 73 414T67 432Q67 444 86 454T136 471T196 478Q261 478 298 451T352
380T369 286V21Q369 13 363 7T345 0Q335 0 328 6T321 21V70Q296 41 259 18T171 -6ZM178 38Q213 38 245 55T299 98T320 146V220H271Q222 220 179 215T109 190T82 128Q82 81 110 60T178 38ZM272 852Q258 852 249 861T239 885Q239 899 248 908T272 917Q286 917 295
908T304 885Q304 871 295 862T272 852ZM155 852Q141 852 132 861T122 885Q122 899 131 908T155 917Q169 917 178 908T187 885Q187 871 178 862T155 852Z" />
<glyph unicode="&#xe5;" horiz-adv-x="430" d="M171 -6Q113 -6 73 26T33 126Q33 179 62 208T144 248T266 260H320V286Q320 321 308 355T268 411T194 433Q162 433 142 427T109 413T89 405Q79 405 73 414T67 432Q67 444 86 454T136 471T196 478Q261 478 298 451T352
380T369 286V21Q369 13 363 7T345 0Q335 0 328 6T321 21V70Q296 41 259 18T171 -6ZM178 38Q213 38 245 55T299 98T320 146V220H271Q222 220 179 215T109 190T82 128Q82 81 110 60T178 38ZM213 837Q188 837 167 850T134 885T122 931Q122 955 134 976T167 1010T213
1023Q237 1023 258 1011T291 977T304 931Q304 907 292 885T258 850T213 837ZM213 864Q238 864 256 885T275 931Q275 953 257 973T213 993Q186 993 168 973T150 931Q150 906 168 885T213 864Z" />
<glyph unicode="&#xe6;" horiz-adv-x="723" d="M171 -6Q135 -6 104 8T53 51T33 125Q33 179 62 208T143 248T264 260H318V287Q318 322 306 356T265 412T190 434Q160 434 140 428T106 414T86 406Q77 406 71 415T65 433Q65 445 84 455T134 472T195 479Q256 479 292
452T346 382Q369 424 410 451T503 478Q533 478 564 468T623 435T668 375T685 285Q685 258 678 244T653 225T601 220H370V178Q370 114 415 77T528 39Q568 39 590 49T626 69T649 79Q654 79 659 76T667 68T671 55Q671 41 647 27T588 3T517 -6Q462 -6 414 20T342 96Q311
40 264 17T171 -6ZM177 38Q216 38 248 56T299 99T318 146V220H269Q219 220 176 215T108 189T82 126Q82 82 109 60T177 38ZM370 261H582Q619 261 628 268T637 295Q637 331 621 362T574 414T503 434Q466 434 436 417T388 369T370 303V261Z" />
<glyph unicode="&#xe7;" horiz-adv-x="407" d="M237 -6Q173 -6 132 18T70 84T49 179V293Q49 345 69 387T131 454T237 478Q278 478 308 468T356 443T373 417Q373 412 370 406T361 397T350 393Q341 393 330 403T298 422T239 432Q170 432 134 395T98 293V179Q98 115
134 78T240 40Q280 40 301 50T334 70T356 80Q363 80 367 76T375 67T379 56Q379 45 362 30T313 5T237 -6ZM244 -208Q231 -208 213 -206T182 -198T168 -184Q168 -180 170 -175T175 -167T182 -163Q187 -163 200 -169T238 -176Q268 -176 280 -164T292 -136Q292 -114
274 -104T225 -92L192 -90L217 9H252L234 -63Q285 -64 307 -85T329 -134Q329 -152 320 -169T291 -197T244 -208Z" />
<glyph unicode="&#xe8;" horiz-adv-x="451" d="M256 -6Q195 -6 149 17T75 81T48 179V298Q48 347 73 388T140 453T232 478Q281 478 322 455T388 391T414 297Q414 260 402 244T370 224T329 220H97V178Q97 114 143 77T258 39Q299 39 321 49T355 69T377 79Q384 79
389 75T397 66T400 55Q400 45 383 30T333 5T256 -6ZM97 261H310Q344 261 355 268T366 297Q366 331 350 362T303 414T232 434Q194 434 164 416T115 368T97 302V261ZM274 596Q272 596 270 597T264 599L164 655Q153 661 153 674Q153 683 158 690T173 697Q176 697 180
695L287 634Q296 630 296 619Q296 610 290 603T274 596Z" />
<glyph unicode="&#xe9;" horiz-adv-x="451" d="M256 -6Q195 -6 149 17T75 81T48 179V298Q48 347 73 388T140 453T232 478Q281 478 322 455T388 391T414 297Q414 260 402 244T370 224T329 220H97V178Q97 114 143 77T258 39Q299 39 321 49T355 69T377 79Q384 79
389 75T397 66T400 55Q400 45 383 30T333 5T256 -6ZM97 261H310Q344 261 355 268T366 297Q366 331 350 362T303 414T232 434Q194 434 164 416T115 368T97 302V261ZM178 596Q170 596 163 603T156 619Q156 630 165 634L272 695Q276 697 280 697Q289 697 294 690T299
674Q299 661 288 655L188 599Q186 598 183 597T178 596Z" />
<glyph unicode="&#xea;" horiz-adv-x="451" d="M256 -6Q195 -6 149 17T75 81T48 179V298Q48 347 73 388T140 453T232 478Q281 478 322 455T388 391T414 297Q414 260 402 244T370 224T329 220H97V178Q97 114 143 77T258 39Q299 39 321 49T355 69T377 79Q384 79
389 75T397 66T400 55Q400 45 383 30T333 5T256 -6ZM97 261H310Q344 261 355 268T366 297Q366 331 350 362T303 414T232 434Q194 434 164 416T115 368T97 302V261ZM115 596Q107 596 101 602T95 619Q95 624 98 628T106 636L210 692Q218 697 227 697Q236 697 244
692L348 637Q354 634 356 629T359 617Q359 609 354 603T340 597Q338 597 336 598T331 600L227 655L123 599Q121 598 119 597T115 596Z" />
<glyph unicode="&#xeb;" horiz-adv-x="451" d="M256 -6Q195 -6 149 17T75 81T48 179V298Q48 347 73 388T140 453T232 478Q281 478 322 455T388 391T414 297Q414 260 402 244T370 224T329 220H97V178Q97 114 143 77T258 39Q299 39 321 49T355 69T377 79Q384 79
389 75T397 66T400 55Q400 45 383 30T333 5T256 -6ZM97 261H310Q344 261 355 268T366 297Q366 331 350 362T303 414T232 434Q194 434 164 416T115 368T97 302V261ZM286 597Q272 597 263 606T253 630Q253 644 262 653T286 662Q300 662 309 653T318 630Q318 616 309
607T286 597ZM169 597Q155 597 146 606T136 630Q136 644 145 653T169 662Q183 662 192 653T201 630Q201 616 192 607T169 597Z" />
<glyph unicode="&#xec;" horiz-adv-x="180" d="M89 0Q79 0 72 6T65 21V452Q65 461 72 466T89 472Q100 472 107 467T114 452V21Q114 13 107 7T89 0ZM137 596Q135 596 133 597T127 599L27 655Q16 661 16 674Q16 683 21 690T36 697Q39 697 43 695L150 634Q159 630
159 619Q159 610 153 603T137 596Z" />
<glyph unicode="&#xed;" horiz-adv-x="180" d="M89 0Q79 0 72 6T65 21V452Q65 461 72 466T89 472Q100 472 107 467T114 452V21Q114 13 107 7T89 0ZM43 596Q35 596 28 603T21 619Q21 630 30 634L137 695Q141 697 145 697Q154 697 159 690T164 674Q164 661 153 655L53
599Q51 598 48 597T43 596Z" />
<glyph unicode="&#xee;" horiz-adv-x="180" d="M89 0Q79 0 72 6T65 21V452Q65 461 72 466T89 472Q100 472 107 467T114 452V21Q114 13 107 7T89 0ZM233 596Q225 596 219 602T213 619Q213 624 216 628T224 636L328 692Q336 697 345 697Q354 697 362 692L466 637Q472
634 474 629T477 617Q477 609 472 603T458 597Q456 597 454 598T449 600L345 655L241 599Q239 598 237 597T233 596Z" />
<glyph unicode="&#xef;" horiz-adv-x="180" d="M89 0Q79 0 72 6T65 21V452Q65 461 72 466T89 472Q100 472 107 467T114 452V21Q114 13 107 7T89 0ZM150 597Q136 597 127 606T117 630Q117 644 126 653T150 662Q164 662 173 653T182 630Q182 616 173 607T150 597ZM33
597Q19 597 10 606T0 630Q0 644 9 653T33 662Q47 662 56 653T65 630Q65 616 56 607T33 597Z" />
<glyph unicode="&#xf0;" horiz-adv-x="475" d="M230 -6Q193 -6 161 8T102 49T62 109T47 179V295Q47 344 71 386T135 453T224 478Q254 478 282 468T334 440T365 394Q359 471 338 529T288 626L197 574Q193 570 187 570Q179 570 173 578T166 594Q166 605 176 610L261
659Q232 689 200 703T139 718Q132 720 129 725T125 739Q125 745 127 751T136 761T155 766Q189 766 229 746T305 685L381 729Q385 731 389 731Q397 731 404 724T411 709Q411 698 401 692L330 651Q367 599 390 526T414 362V179Q414 131 389 88T322 20T230 -6ZM230
40Q268 40 298 60T347 112T365 179V299Q365 334 347 364T298 413T230 432Q193 432 163 412T114 361T96 295V179Q96 144 114 112T163 60T230 40Z" />
<glyph unicode="&#xf1;" horiz-adv-x="487" d="M89 0Q79 0 72 6T65 21V452Q65 461 72 466T89 472Q100 472 106 467T113 452V402Q130 431 163 454T247 478Q296 478 336 454T401 388T426 295V21Q426 11 419 6T401 0Q393 0 385 5T377 21V295Q377 330 359 361T310
412T243 432Q211 432 182 416T133 369T114 295V21Q114 13 107 7T89 0ZM311 868Q286 868 267 877T227 895T180 904Q159 904 146 896T124 880T109 871Q105 871 101 874T95 882T93 892Q93 904 101 913T124 930T154 942T182 946Q207 946 226 938T266 920T311 910Q334
910 345 918T363 933T378 941Q384 941 387 938T393 931T395 922Q395 908 387 899T365 882T337 872T311 868Z" />
<glyph unicode="&#xf2;" horiz-adv-x="461" d="M230 -6Q182 -6 140 20T73 88T47 179V295Q47 344 72 386T139 453T230 478Q280 478 321 454T388 388T414 295V179Q414 131 389 89T322 20T230 -6ZM230 40Q268 40 298 60T346 112T365 179V295Q365 330 347 361T299
412T230 432Q192 432 162 412T114 361T96 295V179Q96 144 114 112T162 60T230 40ZM278 596Q276 596 274 597T268 599L168 655Q157 661 157 674Q157 683 162 690T177 697Q180 697 184 695L291 634Q300 630 300 619Q300 610 294 603T278 596Z" />
<glyph unicode="&#xf3;" horiz-adv-x="461" d="M230 -6Q182 -6 140 20T73 88T47 179V295Q47 344 72 386T139 453T230 478Q280 478 321 454T388 388T414 295V179Q414 131 389 89T322 20T230 -6ZM230 40Q268 40 298 60T346 112T365 179V295Q365 330 347 361T299
412T230 432Q192 432 162 412T114 361T96 295V179Q96 144 114 112T162 60T230 40ZM181 596Q173 596 166 603T159 619Q159 630 168 634L275 695Q279 697 283 697Q292 697 297 690T302 674Q302 661 291 655L191 599Q189 598 186 597T181 596Z" />
<glyph unicode="&#xf4;" horiz-adv-x="461" d="M230 -6Q182 -6 140 20T73 88T47 179V295Q47 344 72 386T139 453T230 478Q280 478 321 454T388 388T414 295V179Q414 131 389 89T322 20T230 -6ZM230 40Q268 40 298 60T346 112T365 179V295Q365 330 347 361T299
412T230 432Q192 432 162 412T114 361T96 295V179Q96 144 114 112T162 60T230 40ZM119 596Q111 596 105 602T99 619Q99 624 102 628T110 636L214 692Q222 697 231 697Q240 697 248 692L352 637Q358 634 360 629T363 617Q363 609 358 603T344 597Q342 597 340 598T335
600L231 655L127 599Q125 598 123 597T119 596Z" />
<glyph unicode="&#xf5;" horiz-adv-x="461" d="M230 -6Q182 -6 140 20T73 88T47 179V295Q47 344 72 386T139 453T230 478Q280 478 321 454T388 388T414 295V179Q414 131 389 89T322 20T230 -6ZM230 40Q268 40 298 60T346 112T365 179V295Q365 330 347 361T299
412T230 432Q192 432 162 412T114 361T96 295V179Q96 144 114 112T162 60T230 40ZM298 614Q273 614 254 623T214 641T167 650Q146 650 133 642T111 626T96 617Q92 617 88 620T82 628T80 638Q80 650 88 659T111 676T141 688T169 692Q194 692 213 684T253 666T298
656Q321 656 332 664T350 679T365 687Q371 687 374 684T380 677T382 668Q382 654 374 645T352 628T324 618T298 614Z" />
<glyph unicode="&#xf6;" horiz-adv-x="461" d="M230 -6Q182 -6 140 20T73 88T47 179V295Q47 344 72 386T139 453T230 478Q280 478 321 454T388 388T414 295V179Q414 131 389 89T322 20T230 -6ZM230 40Q268 40 298 60T346 112T365 179V295Q365 330 347 361T299
412T230 432Q192 432 162 412T114 361T96 295V179Q96 144 114 112T162 60T230 40ZM290 597Q276 597 267 606T257 630Q257 644 266 653T290 662Q304 662 313 653T322 630Q322 616 313 607T290 597ZM173 597Q159 597 150 606T140 630Q140 644 149 653T173 662Q187
662 196 653T205 630Q205 616 196 607T173 597Z" />
<glyph unicode="&#xf7;" horiz-adv-x="460" d="M70 218Q61 218 55 224T49 240Q49 250 55 256T70 263H389Q398 263 404 257T411 240Q411 230 405 224T389 218H70ZM227 33Q208 33 194 46T180 78Q180 97 194 110T227 124Q244 124 258 111T272 78Q272 60 258 47T227
33ZM227 357Q208 357 194 370T180 402Q180 420 194 434T227 448Q244 448 258 434T272 402Q272 384 258 371T227 357Z" />
<glyph unicode="&#xf8;" horiz-adv-x="461" d="M230 -6Q182 -6 140 20T73 88T47 179V295Q47 344 72 386T139 453T230 478Q280 478 321 454T388 388T414 295V179Q414 131 389 89T322 20T230 -6ZM230 40Q268 40 298 60T346 112T365 179V295Q365 330 347 361T299
412T230 432Q192 432 162 412T114 361T96 295V179Q96 144 114 112T162 60T230 40ZM91 -32Q85 -32 80 -28T74 -15Q74 -9 76 -5L104 47L323 453L349 501Q354 509 363 509Q370 509 376 503T383 489Q383 483 379 476L353 430L133 23L108 -21Q103 -32 91 -32Z" />
<glyph unicode="&#xf9;" horiz-adv-x="489" d="M245 -6Q195 -6 153 19T86 87T61 177V451Q61 459 68 465T86 472Q96 472 103 466T110 451V177Q110 142 128 111T176 60T245 40Q283 40 313 59T361 110T379 177V452Q379 460 386 466T404 472Q415 472 421 466T428 452V177Q428
128 403 86T337 19T245 -6ZM291 594Q289 594 287 595T281 597L181 653Q170 659 170 672Q170 681 175 688T190 695Q193 695 197 693L304 632Q313 628 313 617Q313 608 307 601T291 594Z" />
<glyph unicode="&#xfa;" horiz-adv-x="489" d="M245 -6Q195 -6 153 19T86 87T61 177V451Q61 459 68 465T86 472Q96 472 103 466T110 451V177Q110 142 128 111T176 60T245 40Q283 40 313 59T361 110T379 177V452Q379 460 386 466T404 472Q415 472 421 466T428 452V177Q428
128 403 86T337 19T245 -6ZM199 594Q191 594 184 601T177 617Q177 628 186 632L293 693Q297 695 301 695Q310 695 315 688T320 672Q320 659 309 653L209 597Q207 596 204 595T199 594Z" />
<glyph unicode="&#xfb;" horiz-adv-x="489" d="M245 -6Q195 -6 153 19T86 87T61 177V451Q61 459 68 465T86 472Q96 472 103 466T110 451V177Q110 142 128 111T176 60T245 40Q283 40 313 59T361 110T379 177V452Q379 460 386 466T404 472Q415 472 421 466T428 452V177Q428
128 403 86T337 19T245 -6ZM133 850Q125 850 119 856T113 873Q113 878 116 882T124 890L228 946Q236 951 245 951Q254 951 262 946L366 891Q372 888 374 883T377 871Q377 863 372 857T358 851Q356 851 354 852T349 854L245 909L141 853Q139 852 137 851T133 850Z"
/>
<glyph unicode="&#xfc;" horiz-adv-x="489" d="M245 -6Q195 -6 153 19T86 87T61 177V451Q61 459 68 465T86 472Q96 472 103 466T110 451V177Q110 142 128 111T176 60T245 40Q283 40 313 59T361 110T379 177V452Q379 460 386 466T404 472Q415 472 421 466T428 452V177Q428
128 403 86T337 19T245 -6ZM304 595Q290 595 281 604T271 628Q271 642 280 651T304 660Q318 660 327 651T336 628Q336 614 327 605T304 595ZM187 595Q173 595 164 604T154 628Q154 642 163 651T187 660Q201 660 210 651T219 628Q219 614 210 605T187 595Z" />
<glyph unicode="&#xfd;" horiz-adv-x="407" d="M40 -235Q31 -235 24 -229T17 -212Q17 -203 21 -196T35 -189Q60 -189 81 -172T121 -124T154 -57T180 16L18 447Q16 452 16 455Q16 462 20 467T31 475T45 479Q51 479 57 476T64 466L205 81L342 466Q345 472 350 475T361
479Q368 479 374 476T385 468T390 455Q390 450 388 447L230 16Q217 -23 200 -66T161 -148T109 -210T40 -235ZM158 594Q150 594 143 601T136 617Q136 628 145 632L252 693Q256 695 260 695Q269 695 274 688T279 672Q279 659 268 653L168 597Q166 596 163 595T158
594Z" />
<glyph unicode="&#xfe;" horiz-adv-x="476" d="M90 -235Q80 -235 73 -228T66 -213V745Q66 755 73 760T90 766Q101 766 108 761T115 745V402Q132 431 165 454T248 478Q297 478 338 454T403 388T428 295V179Q428 131 404 89T339 20T251 -6Q205 -6 169 16T115 70V-213Q115
-221 108 -228T90 -235ZM246 40Q282 40 312 60T360 112T379 179V295Q379 330 361 361T312 412T245 432Q213 432 183 416T134 369T115 295V145Q115 129 132 104T179 60T246 40Z" />
<glyph unicode="&#xff;" horiz-adv-x="407" d="M40 -235Q31 -235 24 -229T17 -212Q17 -203 21 -196T35 -189Q60 -189 81 -172T121 -124T154 -57T180 16L18 447Q16 452 16 455Q16 462 20 467T31 475T45 479Q51 479 57 476T64 466L205 81L342 466Q345 472 350 475T361
479Q368 479 374 476T385 468T390 455Q390 450 388 447L230 16Q217 -23 200 -66T161 -148T109 -210T40 -235ZM263 851Q249 851 240 860T230 884Q230 898 239 907T263 916Q277 916 286 907T295 884Q295 870 286 861T263 851ZM146 851Q132 851 123 860T113 884Q113
898 122 907T146 916Q160 916 169 907T178 884Q178 870 169 861T146 851Z" />
<glyph unicode="&#x2013;" horiz-adv-x="457" d="M68 218Q60 218 54 224T48 240Q48 250 54 256T68 263H388Q397 263 403 257T410 240Q410 231 404 225T388 218H68Z" />
<glyph unicode="&#x2014;" horiz-adv-x="738" d="M68 218Q60 218 54 224T48 240Q48 250 54 256T68 263H668Q677 263 683 257T690 240Q690 231 684 225T668 218H68Z" />
<glyph unicode="&#x2018;" horiz-adv-x="155" d="M76 585Q60 585 48 597T36 626Q36 632 39 642T46 667T58 697T73 730Q75 736 79 738T89 741Q96 741 102 737T109 723Q109 719 107 716L88 665Q101 661 109 650T117 626Q117 609 106 597T76 585Z" />
<glyph unicode="&#x2019;" horiz-adv-x="153" d="M67 585Q60 585 54 589T47 603Q47 607 49 610L67 661Q55 665 47 676T39 700Q39 717 50 729T80 741Q96 741 107 729T119 700Q119 695 117 684T109 659T98 629T83 596Q81 591 77 588T67 585Z" />
<glyph unicode="&#x201a;" horiz-adv-x="166" d="M71 -80Q64 -80 58 -76T51 -63Q51 -58 52 -55L71 -4Q58 0 50 11T42 35Q42 52 53 64T83 76Q99 76 111 64T123 35Q123 29 120 18T113 -6T101 -36T87 -69Q84 -74 80 -77T71 -80Z" />
<glyph unicode="&#x201c;" horiz-adv-x="296" d="M218 585Q202 585 190 597T178 626Q178 632 181 642T188 667T200 697T214 730Q217 736 221 738T230 741Q237 741 243 737T250 723Q250 719 249 716L230 665Q243 661 251 650T259 626Q259 609 248 597T218 585ZM76
585Q60 585 48 597T36 626Q36 632 39 642T46 667T58 697T73 730Q75 736 79 738T89 741Q96 741 102 737T109 723Q109 719 107 716L88 665Q101 661 109 650T117 626Q117 609 106 597T76 585Z" />
<glyph unicode="&#x201d;" horiz-adv-x="295" d="M209 585Q202 585 196 589T189 603Q189 607 190 610L209 661Q196 665 189 676T181 700Q181 717 192 729T221 741Q237 741 249 729T261 700Q261 695 259 684T251 659T240 629T225 596Q223 591 218 588T209 585ZM67
585Q60 585 54 589T47 603Q47 607 49 610L67 661Q55 665 47 676T39 700Q39 717 50 729T80 741Q96 741 107 729T119 700Q119 695 117 684T109 659T98 629T83 596Q81 591 77 588T67 585Z" />
<glyph unicode="&#x201e;" horiz-adv-x="308" d="M212 -80Q205 -80 199 -76T192 -63Q192 -58 194 -55L213 -4Q200 0 192 11T184 35Q184 52 195 64T225 76Q241 76 253 64T265 35Q265 29 262 18T255 -6T243 -36T228 -69Q226 -74 222 -77T212 -80ZM71 -80Q64 -80
58 -76T51 -63Q51 -58 52 -55L71 -4Q58 0 50 11T42 35Q42 52 53 64T83 76Q99 76 111 64T123 35Q123 29 120 18T113 -6T101 -36T87 -69Q84 -74 80 -77T71 -80Z" />
<glyph unicode="&#x2022;" horiz-adv-x="308" d="M154 201Q126 201 103 215T67 251T53 300Q53 326 66 348T103 384T154 398Q181 398 204 385T240 349T254 300Q254 274 241 251T204 215T154 201Z" />
<glyph unicode="&#x2039;" horiz-adv-x="223" d="M156 74Q144 74 138 84L45 255Q42 261 40 266T38 277Q38 283 40 288T45 299L138 471Q144 481 158 481Q165 481 171 477T180 468T184 457Q184 452 181 447L89 277L181 108Q184 103 184 98Q184 92 180 87T170 78T156 74Z" />
<glyph unicode="&#x203a;" horiz-adv-x="223" d="M67 74Q61 74 54 77T44 86T40 98Q40 103 43 108L135 277L43 447Q40 452 40 457Q40 463 43 468T53 477T65 481Q81 481 85 471L178 299Q181 293 183 288T186 277Q186 272 184 267T178 255L85 84Q80 74 67 74Z" />
</font>
</defs>
</svg>
