<?xml version="1.0" standalone="no"?>
<!DOCTYPE svg PUBLIC "-//W3C//DTD SVG 1.1//EN" "http://www.w3.org/Graphics/SVG/1.1/DTD/svg11.dtd">
<svg xmlns="http://www.w3.org/2000/svg">
<defs >
<font id="Dosis" horiz-adv-x="435" ><font-face
    font-family="Dosis ExtraLight ExtraBold"
    units-per-em="1000"
    panose-1="0 0 0 0 0 0 0 0 0 0"
    ascent="1027"
    descent="-237"
    alphabetic="0" />
<glyph unicode=" " horiz-adv-x="200" />
<glyph unicode="!" horiz-adv-x="229" d="M115 217Q91 217 74 227T56 261Q56 321 53 393T46 538T42 670Q42 699 63 715T115 731Q144 731 165 715T187 670Q187 611 184 539T177 394T173 261Q173 238 153 228T115 217ZM116 -6Q83 -6 61 17T39 71Q39 103 61 125T116
148Q147 148 169 126T192 71Q192 40 170 17T116 -6Z" />
<glyph unicode="&quot;" horiz-adv-x="315" d="M237 559Q213 559 203 571T193 597L183 731Q183 748 199 758T237 768Q258 768 275 758T292 731L282 597Q282 583 272 571T237 559ZM77 559Q53 559 43 571T33 597L23 731Q23 748 39 758T77 768Q98 768 115 758T132
731L122 597Q122 583 112 571T77 559Z" />
<glyph unicode="#" horiz-adv-x="717" d="M187 28Q162 28 137 42T111 85L133 207H63Q44 207 33 222T21 263Q21 288 33 305T64 322H156L177 430H106Q87 430 76 445T64 486Q64 511 76 528T107 545H200L226 681Q229 696 249 704T291 713Q317 713 339 701T361 656L340
545H443L469 681Q472 696 492 704T534 713Q560 713 582 701T605 656L583 545H653Q670 545 683 529T696 488Q696 463 683 447T652 430H562L540 322H610Q627 322 640 306T654 265Q654 239 640 223T609 207H518L490 62Q487 48 468 38T430 28Q414 28 396 34T366 53T353
85L376 207H275L247 62Q244 48 225 38T187 28ZM297 322H399L420 430H318L297 322Z" />
<glyph unicode="$" horiz-adv-x="541" d="M280 -52Q264 -52 253 -44T242 -25V0Q182 2 133 21T54 69T24 130Q24 147 33 166T57 200T92 214Q108 214 123 205T155 183T193 159T242 142V304Q208 317 173 333T108 372T60 428T42 510Q42 558 58 593T102 653T166 692T242
713V741Q242 752 253 760T280 768Q294 768 306 760T318 741V716Q341 715 371 711T430 698T478 672T497 629Q497 616 491 597T471 562T435 547Q419 547 405 555T371 572T318 584V438Q352 425 387 409T451 368T497 309T515 222Q515 129 461 74T318 4V-25Q318 -35
306 -43T280 -52ZM308 143Q334 149 351 164T369 206Q369 223 362 235T340 258T308 277V143ZM252 462V581Q230 577 216 568T195 548T188 525Q188 511 196 500T218 479T252 462Z" />
<glyph unicode="%" horiz-adv-x="807" d="M233 -46Q208 -46 193 -29T177 7Q177 16 182 26L533 747Q545 772 575 772Q596 772 615 758T634 719Q634 708 630 700L278 -21Q273 -32 260 -39T233 -46ZM174 319Q110 319 67 349T24 454V596Q24 670 67 700T174 731Q216
731 250 718T304 676T324 596V454Q324 405 304 375T250 332T174 319ZM174 406Q197 406 210 417T224 454V596Q224 621 211 632T174 644Q151 644 138 633T125 596V454Q125 429 138 418T174 406ZM633 -3Q569 -3 526 27T483 132V274Q483 348 526 378T633 409Q675 409
709 396T763 354T783 274V132Q783 83 763 53T709 10T633 -3ZM633 84Q656 84 669 95T683 132V274Q683 299 670 310T633 322Q610 322 597 311T584 274V132Q584 107 597 96T633 84Z" />
<glyph unicode="&amp;" horiz-adv-x="655" d="M278 -10Q199 -10 141 21T50 103T18 213Q18 257 34 296T78 367T138 418Q110 449 92 483T73 563Q73 622 102 663T182 726T294 748Q357 748 404 728T478 679T504 623Q504 596 481 574T430 551Q411 551 398 562T372 587T342
613T295 624Q263 624 240 607T217 556Q217 528 235 500T279 447T324 401L468 252Q482 287 482 316T485 367Q488 388 501 399T554 411Q595 411 607 392T620 340Q620 313 614 282T595 219T562 156L638 78Q643 72 645 66T647 53Q647 30 625 10T575 -10Q565 -10 557
-6T537 8L483 63Q443 30 392 10T278 -10ZM295 125Q327 125 351 133T392 157L225 328Q211 316 200 301T182 267T175 226Q175 197 189 174T229 138T295 125Z" />
<glyph unicode="&apos;" horiz-adv-x="155" d="M77 559Q53 559 43 571T33 597L23 731Q23 748 39 758T77 768Q98 768 115 758T132 731L122 597Q122 583 112 571T77 559Z" />
<glyph unicode="(" horiz-adv-x="358" d="M263 -20Q226 -20 188 -10T116 24T63 84T43 173V561Q43 609 63 647T117 713T189 754T267 768Q314 768 329 749T344 701Q344 670 331 652T297 633Q266 633 244 623T211 596T199 561V173Q199 149 214 137T253 120T297 115Q326
115 335 94T344 46Q344 17 330 -1T263 -20Z" />
<glyph unicode=")" horiz-adv-x="358" d="M95 -20Q43 -20 29 -2T14 46Q14 72 23 93T61 115Q83 115 105 119T143 136T159 173V561Q159 579 148 595T115 622T61 633Q40 633 27 651T14 701Q14 729 29 748T91 768Q129 768 168 754T241 713T294 648T315 561V173Q315
121 295 84T242 24T171 -9T95 -20Z" />
<glyph unicode="*" horiz-adv-x="491" d="M145 304Q133 304 119 310T93 328T82 356Q82 374 94 388L160 482L56 512Q39 516 31 530T22 563Q22 583 37 600T77 618Q79 618 83 618T92 615L197 581L192 683Q193 708 209 719T246 731Q267 731 282 720T299 683L295 579L401
615Q409 618 416 618Q439 618 453 598T468 556Q468 541 460 529T434 512L332 488L402 387Q410 377 410 358Q410 334 391 319T349 304Q341 304 330 307T311 323L246 423L180 322Q173 311 165 308T145 304Z" />
<glyph unicode="+" horiz-adv-x="455" d="M228 33Q201 33 183 46T164 80V177H67Q46 177 33 194T20 240Q20 267 33 285T67 304H164V400Q164 418 182 433T228 448Q257 448 274 433T291 400V304H387Q405 304 420 286T435 240Q435 212 420 195T387 177H291V80Q291
59 274 46T228 33Z" />
<glyph unicode="," horiz-adv-x="199" d="M84 -106Q68 -106 51 -96T34 -67Q34 -59 38 -51L63 3Q45 14 34 31T23 71Q23 103 45 125T99 148Q131 148 153 126T176 72Q176 68 175 61T167 39T149 -6T114 -88Q110 -98 101 -102T84 -106Z" />
<glyph unicode="-" horiz-adv-x="416" d="M78 177Q57 177 44 194T31 240Q31 267 44 285T78 304H338Q356 304 371 286T386 240Q386 212 371 195T338 177H78Z" />
<glyph unicode="." horiz-adv-x="199" d="M100 -6Q67 -6 45 17T23 71Q23 103 45 125T100 148Q131 148 153 126T176 71Q176 40 154 17T100 -6Z" />
<glyph unicode="/" horiz-adv-x="491" d="M73 -46Q48 -46 33 -29T17 7Q17 16 22 26L373 747Q385 772 415 772Q436 772 455 758T474 719Q474 708 470 700L118 -21Q113 -32 100 -39T73 -46Z" />
<glyph unicode="0" horiz-adv-x="569" d="M284 -6Q215 -6 160 17T72 92T39 230V495Q39 581 71 633T159 708T284 731Q353 731 409 708T497 633T530 495V230Q530 144 498 92T409 17T284 -6ZM284 130Q326 130 350 154T374 230V495Q374 547 350 571T284 595Q242 595
219 571T195 495V230Q195 178 218 154T284 130ZM285 311Q261 311 248 325T234 363Q234 385 247 398T285 412Q308 412 321 399T335 363Q335 340 322 326T285 311Z" />
<glyph unicode="1" horiz-adv-x="308" d="M179 0Q150 0 126 12T101 48V557L72 539Q65 535 59 533T47 531Q25 531 12 550T-2 593Q-2 609 5 623T27 646L159 726Q165 730 172 731T188 733Q212 733 234 720T257 684V48Q257 24 233 12T179 0Z" />
<glyph unicode="2" horiz-adv-x="517" d="M91 0Q70 0 47 13T23 48V145Q23 184 45 218T104 283T180 343T256 400T315 458T338 519Q338 535 331 551T307 579T262 590Q232 590 210 573T187 515Q187 493 165 476T105 458Q75 458 55 475T35 539Q35 600 67 643T152 708T261
731Q319 731 372 707T460 637T494 524Q494 470 472 427T414 350T340 287T265 236T208 190T185 145V136H447Q466 136 480 116T494 69Q494 42 480 21T447 0H91Z" />
<glyph unicode="3" horiz-adv-x="534" d="M254 -6Q190 -6 145 11T71 57T29 118T16 183Q16 217 32 228T90 240Q138 240 154 229T170 188Q170 170 177 159T197 142T226 133T259 130Q310 130 330 150T351 220V239Q351 289 324 304T255 319Q230 319 220 338T210 379Q210
402 220 420T255 439Q274 439 292 443T321 466T333 525Q333 569 312 583T259 597Q241 597 227 595T204 586T190 571T185 546Q185 521 171 505T112 489Q76 489 59 494T37 514T31 552Q31 581 42 612T80 671T151 714T259 731Q323 731 373 714T452 658T482 550Q482
495 463 449T405 386Q449 370 478 335T507 239V220Q507 138 473 89T382 17T254 -6Z" />
<glyph unicode="4" horiz-adv-x="525" d="M359 0Q330 0 306 12T281 48V154H47Q25 154 10 168T-5 208Q-5 214 -3 222T3 238L234 691Q245 713 262 722T299 731Q313 731 331 724T363 704T377 672Q377 665 372 653L195 298H281V368Q281 393 305 404T359 415Q388 415
412 404T437 368V298H480Q504 298 516 276T528 226Q528 199 513 177T480 154H437V48Q437 24 413 12T359 0Z" />
<glyph unicode="5" horiz-adv-x="521" d="M260 -6Q180 -6 125 21T41 90T13 180Q13 221 33 235T91 249Q142 249 155 232T169 191Q169 171 180 158T212 137T256 130Q299 130 323 152T347 224V243Q347 293 323 317T258 341H106Q72 341 59 357T46 402Q46 410 46 416T48
431L75 683Q77 706 83 718T103 731H422Q445 731 456 710T467 663Q467 638 456 617T422 595H203L193 461H258Q327 461 382 440T470 371T503 243V224Q503 141 470 90T382 17T260 -6Z" />
<glyph unicode="6" horiz-adv-x="562" d="M285 -6Q216 -6 161 17T72 92T39 230V495Q39 581 73 633T164 708T294 731Q357 731 402 714T475 668T517 607T530 543Q530 507 513 494T457 480Q425 480 401 491T376 537Q376 556 364 569T333 588T289 595Q245 595 220
571T195 495V405Q219 431 251 440T320 449Q377 449 424 430T501 365T530 239V230Q530 144 498 92T410 17T285 -6ZM285 120Q327 120 350 143T374 219V228Q374 283 351 306T284 329Q244 329 220 308T195 237V219Q195 167 219 144T285 120Z" />
<glyph unicode="7" horiz-adv-x="512" d="M193 -6Q169 -6 146 4T109 33T94 73Q94 86 101 99L347 525V595H168V528Q168 508 144 494T89 480Q58 480 35 494T12 528V683Q12 701 33 716T80 731H435Q458 731 480 716T503 683V558Q503 539 493 513T471 463L237 15Q226
-6 193 -6Z" />
<glyph unicode="8" horiz-adv-x="545" d="M273 -6Q204 -6 149 14T60 80T27 200V212Q27 289 61 335T151 400Q107 415 80 453T52 553Q52 616 80 655T159 712T273 731Q338 731 387 713T465 655T494 553Q494 491 467 453T395 400Q451 381 484 335T518 212V200Q518
126 486 81T398 15T273 -6ZM273 119Q316 119 339 144T362 219V241Q362 290 339 313T273 336Q231 336 207 313T183 241V219Q183 167 207 143T273 119ZM273 461Q307 461 325 477T344 533Q344 571 326 588T273 606Q239 606 221 589T202 533Q202 494 220 478T273 461Z"
/>
<glyph unicode="9" horiz-adv-x="563" d="M269 -6Q206 -6 161 11T88 57T46 118T33 182Q33 218 51 231T106 245Q138 245 162 234T187 188Q187 169 199 156T230 137T274 130Q318 130 343 154T368 230V320Q344 294 312 285T243 276Q186 276 138 295T62 360T33 486V495Q33
581 65 633T153 708T278 731Q347 731 403 708T491 633T524 495V230Q524 144 490 92T399 17T269 -6ZM279 396Q320 396 344 417T368 488V506Q368 558 344 581T278 605Q236 605 213 582T189 506V497Q189 442 212 419T279 396Z" />
<glyph unicode=":" horiz-adv-x="225" d="M113 268Q80 268 58 291T36 345Q36 377 58 399T113 422Q144 422 166 400T189 345Q189 314 167 291T113 268ZM113 -6Q80 -6 58 17T36 71Q36 103 58 125T113 148Q144 148 166 126T189 71Q189 40 167 17T113 -6Z" />
<glyph unicode=";" horiz-adv-x="225" d="M94 -106Q78 -106 61 -96T44 -67Q44 -59 48 -51L73 3Q55 14 44 31T33 71Q33 103 55 125T109 148Q141 148 163 126T186 72Q186 68 185 61T177 39T159 -6T124 -88Q120 -98 111 -102T94 -106ZM116 268Q83 268 61 291T39 345Q39
377 61 399T116 422Q147 422 169 400T192 345Q192 314 170 291T116 268Z" />
<glyph unicode="&lt;" horiz-adv-x="427" d="M323 51Q310 51 304 56L50 221Q33 232 26 248T19 277Q19 290 26 306T50 333L304 498Q310 503 323 503Q346 503 368 482T391 430Q391 402 373 391L197 277L373 163Q391 152 391 124Q391 93 369 72T323 51Z" />
<glyph unicode="=" horiz-adv-x="448" d="M94 275Q73 275 60 292T47 338Q47 365 60 383T94 402H354Q372 402 387 384T402 338Q402 310 387 293T354 275H94ZM94 72Q73 72 60 89T47 135Q47 162 60 180T94 199H354Q372 199 387 181T402 135Q402 107 387 90T354 72H94Z" />
<glyph unicode="&gt;" horiz-adv-x="427" d="M104 51Q82 51 59 72T36 124Q36 152 54 163L230 277L54 391Q36 402 36 430Q36 461 59 482T104 503Q117 503 123 498L377 333Q394 322 401 306T408 277Q408 264 401 248T377 221L123 56Q117 51 104 51Z" />
<glyph unicode="?" horiz-adv-x="453" d="M203 217Q172 217 160 231T148 284Q148 327 158 356T185 404T215 436Q227 447 242 458T272 482T295 512T304 549Q304 584 278 600T214 617Q176 617 157 606T129 579T110 552T80 540Q60 540 40 554T20 597Q20 624 41 655T106
709T217 731Q281 731 329 710T403 651T430 566Q430 531 417 501T384 447T347 407T318 383Q291 362 279 343T265 304T262 258Q262 244 251 231T203 217ZM204 -6Q172 -6 150 17T128 71Q128 103 150 125T204 148Q236 148 258 126T281 71Q281 40 259 17T204 -6Z" />
<glyph unicode="@" horiz-adv-x="753" d="M340 -143Q281 -143 226 -122T128 -57T60 52T35 206Q35 310 73 393T190 526T388 575Q496 575 572 534T689 418T730 240Q730 175 713 122T660 36T571 4Q526 4 498 25T463 80Q439 48 409 28T337 7Q308 7 279 19T231 58T212
125Q212 173 239 200T312 240T415 252H442V265Q442 297 424 313T368 329Q339 329 320 322T290 308T269 301Q259 301 251 311T239 335T234 358Q234 379 256 395T313 422T383 432Q426 432 464 417T527 372T552 296V125Q557 97 563 88T580 78Q599 78 610 93T626 130T632
175T634 215Q634 349 576 420T389 491Q314 491 264 469T186 406T145 315T132 207Q132 154 143 106T179 21T249 -37T359 -59Q398 -59 422 -53T461 -41T488 -35Q507 -35 516 -51T525 -79Q525 -97 505 -109T455 -129T393 -140T340 -143ZM368 86Q387 86 405 98T435
128T448 168V190H430Q399 190 378 183T345 162T334 127Q334 108 343 97T368 86Z" />
<glyph unicode="A" horiz-adv-x="589" d="M104 0Q83 0 60 8T20 31T4 64Q4 67 6 75L192 685Q200 711 230 724T294 737Q329 737 358 724T396 685L583 75Q585 67 585 64Q585 46 569 32T530 9T485 0Q466 0 453 6T434 29L400 154H189L155 29Q151 13 137 7T104 0ZM221
274H367L294 542L221 274Z" />
<glyph unicode="B" horiz-adv-x="572" d="M122 0Q91 0 73 14T54 47V683Q54 707 75 719T122 731H327Q377 731 423 716T498 663T527 553Q527 492 505 453T442 396Q473 385 496 367T532 317T545 236V215Q545 136 519 89T447 21T344 0H122ZM209 136H309Q347 136 368
158T389 228V244Q389 295 368 315T309 336H209V136ZM209 456H314Q343 456 357 478T371 525Q371 543 365 559T346 585T314 595H209V456Z" />
<glyph unicode="C" horiz-adv-x="562" d="M286 -6Q221 -6 166 17T79 92T46 230V495Q46 581 78 633T166 708T286 731Q358 731 414 708T504 640T537 532Q537 487 518 473T459 458Q428 458 406 468T381 505Q381 515 379 530T368 560T342 585T292 595Q249 595 226
571T202 495V230Q202 179 226 155T293 130Q323 130 340 140T366 165T377 198T381 230Q383 258 405 267T458 277Q499 277 518 263T537 203Q537 137 504 90T415 19T286 -6Z" />
<glyph unicode="D" horiz-adv-x="590" d="M122 0Q91 0 73 14T54 47V684Q54 703 72 717T122 731H299Q368 731 424 708T512 633T545 495V236Q545 150 513 98T424 23T299 0H122ZM210 136H299Q341 136 365 160T389 236V495Q389 546 365 570T299 595H210V136Z" />
<glyph unicode="E" horiz-adv-x="539" d="M122 0Q97 0 76 12T54 48V683Q54 707 75 719T122 731H478Q503 731 514 710T525 664Q525 636 513 616T478 595H210V426H360Q383 426 395 408T407 365Q407 345 396 326T360 306H210V136H478Q501 136 513 116T525 67Q525
43 514 22T478 0H122Z" />
<glyph unicode="F" horiz-adv-x="515" d="M132 0Q103 0 79 12T54 48V683Q54 707 75 719T122 731H469Q494 731 505 710T516 664Q516 636 504 616T469 595H210V426H361Q384 426 396 408T408 365Q408 345 397 326T361 306H210V48Q210 24 186 12T132 0Z" />
<glyph unicode="G" horiz-adv-x="573" d="M291 -6Q222 -6 167 17T79 92T46 230V495Q46 581 78 633T166 708T286 731Q358 731 414 708T504 640T537 532Q537 487 518 473T459 458Q428 458 405 468T381 505Q381 523 377 544T354 580T292 595Q249 595 226 571T202
495V230Q202 179 225 155T291 130Q333 130 357 154T381 230V264H322Q300 264 288 282T275 324Q275 346 287 365T322 384H490Q513 384 525 370T537 335V230Q537 144 505 92T416 17T291 -6Z" />
<glyph unicode="H" horiz-adv-x="619" d="M132 0Q103 0 79 12T54 48V684Q54 709 78 720T132 731Q161 731 185 720T210 684V439H409V684Q409 709 433 720T487 731Q516 731 540 720T565 684V48Q565 24 541 12T487 0Q458 0 434 12T409 48V319H210V48Q210 24 186 12T132 0Z" />
<glyph unicode="I" horiz-adv-x="264" d="M132 0Q103 0 79 12T54 48V684Q54 709 78 720T132 731Q161 731 185 720T210 684V48Q210 24 186 12T132 0Z" />
<glyph unicode="J" horiz-adv-x="548" d="M257 -6Q186 -6 129 18T39 90T6 203Q6 248 25 262T85 277Q115 277 137 268T162 230Q164 211 169 188T192 147T250 130Q294 130 317 154T341 230V595H254Q232 595 220 615T207 664Q207 688 218 709T254 731H429Q455 731
476 719T497 683V230Q497 144 465 92T378 17T257 -6Z" />
<glyph unicode="K" horiz-adv-x="566" d="M132 0Q103 0 79 12T54 48V684Q54 709 78 720T132 731Q161 731 185 720T210 684V444L397 709Q412 731 438 731Q458 731 479 719T515 689T530 651Q530 645 528 637T520 621L356 415L563 98Q571 85 571 72Q571 53 557 35T522
6T477 -6Q461 -6 447 0T423 23L252 283L210 229V48Q210 24 186 12T132 0Z" />
<glyph unicode="L" horiz-adv-x="492" d="M122 0Q97 0 76 12T54 48V684Q54 709 78 720T132 731Q161 731 185 720T210 684V136H438Q461 136 472 115T483 68Q483 43 472 22T438 0H122Z" />
<glyph unicode="M" horiz-adv-x="712" d="M132 0Q103 0 79 12T54 48V653Q54 696 78 713T132 731Q160 731 179 727T216 706T253 653L356 473L459 653Q480 689 496 705T532 726T580 731Q610 731 634 714T658 653V48Q658 24 634 12T580 0Q551 0 527 12T502 48V423L406
259Q396 243 382 237T354 230Q341 230 328 236T305 259L210 433V48Q210 24 186 12T132 0Z" />
<glyph unicode="N" horiz-adv-x="619" d="M132 0Q103 0 79 12T54 48V683Q54 708 78 719T132 731Q160 731 178 727T212 706T247 653L409 344V684Q409 709 433 720T487 731Q516 731 540 720T565 684V48Q565 24 541 12T487 0Q460 0 437 8T400 42L210 388V48Q210 24
186 12T132 0Z" />
<glyph unicode="O" horiz-adv-x="583" d="M291 -6Q222 -6 167 17T79 92T46 230V495Q46 581 78 633T166 708T291 731Q360 731 416 708T504 633T537 495V230Q537 144 505 92T416 17T291 -6ZM291 130Q333 130 357 154T381 230V495Q381 547 357 571T291 595Q249 595
226 571T202 495V230Q202 178 225 154T291 130Z" />
<glyph unicode="P" horiz-adv-x="569" d="M132 0Q103 0 79 12T54 48V684Q54 703 70 717T112 731H319Q385 731 438 709T523 636T555 501V496Q555 412 523 361T434 287T309 264H210V48Q210 24 186 12T132 0ZM210 384H309Q351 384 375 408T399 484V495Q399 546 375
570T309 595H210V384Z" />
<glyph unicode="Q" horiz-adv-x="583" d="M291 -109Q273 -109 258 -97T243 -61V-3Q186 4 142 30T72 105T46 230V495Q46 582 78 633T166 708T291 731Q360 731 416 708T504 634T537 495V230Q537 154 512 105T441 30T339 -3V-61Q339 -85 324 -97T291 -109ZM243 140V184Q243
209 258 220T291 231Q309 231 324 220T339 184V140Q359 151 370 173T381 230V495Q381 546 357 570T291 595Q249 595 226 571T202 495V230Q202 196 212 174T243 140Z" />
<glyph unicode="R" horiz-adv-x="584" d="M463 -6Q448 -6 435 0T413 23L276 289H210V48Q210 24 186 12T132 0Q103 0 79 12T54 48V684Q54 703 67 717T102 731H309Q378 731 433 712T522 646T555 517Q555 461 540 421T497 354T434 314L556 93Q559 89 560 84T561 75Q561
56 546 37T509 6T463 -6ZM210 409H309Q351 409 375 429T399 502Q399 555 375 575T309 595H210V409Z" />
<glyph unicode="S" horiz-adv-x="533" d="M260 -10Q195 -10 140 9T52 57T19 120Q19 137 28 156T52 190T87 204Q105 204 120 193T154 167T197 141T257 130Q280 130 302 136T339 157T354 196Q354 222 337 240T292 274T230 304T162 338T100 382T54 444T37 530Q37
586 59 625T118 689T200 725T293 737Q313 737 346 734T412 722T469 696T492 649Q492 636 486 617T466 582T430 567Q412 567 397 576T358 595T293 605Q258 605 236 597T203 575T193 545Q193 524 210 509T255 480T317 452T385 418T447 371T493 305T510 212Q510 140
478 91T389 16T260 -10Z" />
<glyph unicode="T" horiz-adv-x="542" d="M271 0Q242 0 218 12T193 48V591H55Q33 591 21 612T8 662Q8 687 19 709T55 731H487Q512 731 523 709T534 662Q534 634 522 613T487 591H349V48Q349 24 325 12T271 0Z" />
<glyph unicode="U" horiz-adv-x="606" d="M303 -6Q232 -6 175 17T85 92T51 230V684Q51 709 75 720T129 731Q158 731 182 720T207 684V230Q207 179 232 155T303 130Q348 130 373 154T399 230V684Q399 709 423 720T477 731Q506 731 530 720T555 684V230Q555 144
522 92T431 17T303 -6Z" />
<glyph unicode="V" horiz-adv-x="589" d="M295 -6Q261 -6 231 7T193 46L6 656Q4 664 4 667Q4 686 20 700T59 722T104 731Q123 731 137 725T155 702L295 189L434 702Q439 718 452 724T485 731Q507 731 530 723T569 700T585 667Q585 665 585 662T583 656L397 46Q389
20 360 7T295 -6Z" />
<glyph unicode="W" horiz-adv-x="920" d="M307 -6Q273 -6 243 7T204 46L5 656Q3 662 3 669Q3 686 19 700T58 722T104 731Q122 731 136 725T154 702L306 189L385 527Q390 547 412 557T460 568Q486 568 508 558T535 527L614 189L766 702Q771 718 784 724T816 731Q839
731 862 723T901 700T917 669Q917 662 915 656L716 46Q707 20 678 7T613 -6Q579 -6 549 7T512 46L460 283L408 46Q402 20 372 7T307 -6Z" />
<glyph unicode="X" horiz-adv-x="590" d="M112 -6Q91 -6 67 4T25 32T8 71Q8 84 17 99L190 366L24 632Q14 648 14 663Q14 684 30 701T69 727T115 737Q132 737 143 731T162 711L295 479L428 711Q436 725 447 731T475 737Q497 737 520 728T560 701T576 663Q576 648
566 632L400 366L573 99Q582 84 582 71Q582 50 565 33T524 5T478 -6Q466 -6 456 -2T441 10L295 258L149 10Q144 2 134 -2T112 -6Z" />
<glyph unicode="Y" horiz-adv-x="590" d="M295 0Q266 0 242 12T217 48V299Q217 307 213 313L6 656Q5 659 5 662T4 667Q4 686 21 700T64 722T110 731Q129 731 138 724T155 702L295 445L434 702Q442 716 451 723T479 731Q501 731 525 723T567 700T585 667Q585 665
585 662T583 656L377 313Q373 307 373 299V48Q373 24 349 12T295 0Z" />
<glyph unicode="Z" horiz-adv-x="536" d="M54 0Q30 0 20 11T9 41Q9 67 26 96L308 595H76Q54 595 42 615T29 663Q29 688 40 709T76 731H462Q485 731 496 720T507 690Q507 666 490 635L208 136H480Q503 136 515 114T527 68Q527 44 515 22T480 0H54Z" />
<glyph unicode="[" horiz-adv-x="355" d="M118 -21Q93 -21 72 -9T50 27V720Q50 744 71 756T118 768H294Q319 768 330 747T341 701Q341 673 329 653T294 632H206V115H294Q317 115 329 95T341 46Q341 22 330 1T294 -21H118Z" />
<glyph unicode="\" horiz-adv-x="382" d="M307 -1Q291 -1 279 8T261 31L21 689Q18 697 18 704Q18 724 35 739T76 755Q90 755 102 748T121 725L361 67Q363 63 363 60T363 53Q363 33 347 16T307 -1Z" />
<glyph unicode="]" horiz-adv-x="355" d="M61 -21Q36 -21 25 0T14 46Q14 74 26 94T61 115H149V632H61Q39 632 27 652T14 701Q14 725 25 746T61 768H237Q263 768 284 756T305 720V27Q305 3 284 -9T237 -21H61Z" />
<glyph unicode="^" horiz-adv-x="292" d="M31 569Q18 569 9 583T0 615Q0 628 6 640T25 659L129 715Q139 720 146 720Q153 720 163 715L267 659Q281 652 286 640T292 615Q292 598 284 584T261 569Q259 569 256 570T250 572L146 628L42 572Q39 571 36 570T31 569Z" />
<glyph unicode="_" horiz-adv-x="306" d="M-7 -127Q-28 -127 -41 -110T-54 -64Q-54 -37 -41 -19T-7 0H313Q331 0 346 -18T361 -64Q361 -92 346 -109T313 -127H-7Z" />
<glyph unicode="`" horiz-adv-x="221" d="M175 559Q171 559 168 560T160 563L20 628Q0 638 0 662Q0 682 13 701T47 720Q54 720 61 717L201 652Q221 642 221 617Q221 598 208 579T175 559Z" />
<glyph unicode="a" horiz-adv-x="484" d="M146 -10Q94 -10 56 22T18 123Q18 182 48 215T130 261T252 274H288V284Q288 301 281 318T258 346T213 358Q172 358 152 350T121 334T96 325Q71 325 58 350T44 402Q44 426 71 444T138 472T215 482Q297 482 347 454T420
382T443 286V48Q443 28 422 14T367 0Q338 0 318 14T298 48V70Q271 39 235 15T146 -10ZM213 103Q229 103 246 115T275 149T288 195V199H284Q256 199 231 196T190 181T174 145Q174 123 185 113T213 103Z" />
<glyph unicode="b" horiz-adv-x="533" d="M331 -10Q283 -10 245 14T191 70V48Q191 30 171 15T122 0Q89 0 68 15T46 48V701Q46 722 67 735T122 748Q155 748 178 735T201 701V406Q217 435 249 458T328 482Q377 482 417 454T481 378T505 272V202Q505 147 481 99T418
20T331 -10ZM278 125Q298 125 314 136T340 165T350 202V272Q350 291 341 308T315 336T277 347Q259 347 242 338T213 313T201 272V189Q201 181 211 166T239 138T278 125Z" />
<glyph unicode="c" horiz-adv-x="442" d="M255 -10Q176 -10 126 18T52 94T28 202V270Q28 330 51 378T125 454T253 482Q302 482 340 471T400 440T422 399Q422 385 415 367T394 336T362 323Q350 323 339 329T310 341T266 347Q221 347 202 327T183 270V202Q183 165
202 145T267 125Q294 125 310 132T337 145T362 152Q383 152 398 140T420 111T428 78Q428 56 405 36T343 3T255 -10Z" />
<glyph unicode="d" horiz-adv-x="533" d="M202 -10Q156 -10 116 20T52 98T28 202V272Q28 330 52 377T116 453T205 482Q251 482 283 459T332 406V701Q332 722 355 735T411 748Q444 748 465 735T487 701V48Q487 30 466 15T411 0Q383 0 363 15T342 48V70Q327 39 289
15T202 -10ZM255 125Q277 125 294 137T321 165T332 189V272Q332 296 321 312T292 338T256 347Q236 347 219 336T193 308T183 272V202Q183 183 192 165T218 136T255 125Z" />
<glyph unicode="e" horiz-adv-x="496" d="M280 -10Q206 -10 149 16T60 91T27 202V275Q27 331 58 378T141 453T257 482Q315 482 363 458T442 392T472 292Q472 247 458 228T421 204T375 199H182V193Q182 156 210 134T284 111Q315 111 337 120T376 139T409 148Q427
148 440 136T459 108T466 80Q466 61 443 40T379 5T280 -10ZM182 286H306Q317 286 322 291T327 310Q327 330 317 343T290 363T254 370Q236 370 220 364T193 344T182 310V286Z" />
<glyph unicode="f" horiz-adv-x="354" d="M122 0Q90 0 68 13T46 47V547Q46 605 70 650T134 722T222 748H294Q323 748 337 728T352 683Q352 658 338 638T294 618H256Q240 618 228 612T208 595T201 564V476H314Q333 476 342 459T352 421Q352 400 343 383T314 366H201V47Q201
26 178 13T122 0Z" />
<glyph unicode="g" horiz-adv-x="478" d="M240 -217Q181 -217 129 -200T44 -151T12 -72Q12 -36 31 -10T79 32Q63 42 53 57T43 94Q43 122 57 140T94 175Q63 198 46 230T29 302V317Q29 366 54 403T126 461T234 482Q266 482 295 476T347 458Q365 502 378 515T404
528Q432 528 447 512T463 482Q463 474 459 467T447 452Q438 444 427 436T404 416Q423 396 432 371T442 317V302Q442 254 416 217T342 157T234 135Q201 135 174 141Q172 137 171 134T170 128Q170 114 191 108T246 98T318 87T389 65T444 22T466 -54Q466 -113 433
-149T348 -201T240 -217ZM237 -119Q267 -119 291 -103T316 -58Q316 -41 307 -30T281 -13T243 -3T198 4Q178 -6 168 -22T158 -56Q158 -87 182 -103T237 -119ZM236 225Q262 225 277 246T292 302V317Q292 348 278 370T235 392Q208 392 194 370T179 317V303Q179 270
193 248T236 225Z" />
<glyph unicode="h" horiz-adv-x="535" d="M123 0Q89 0 68 15T46 48V701Q46 722 67 735T123 748Q155 748 178 735T201 701V406Q215 435 247 458T325 482Q371 482 409 454T471 378T495 272V48Q495 24 471 12T417 0Q390 0 365 12T340 48V272Q340 291 330 308T304
336T268 347Q252 347 237 338T211 313T201 272V48Q201 30 178 15T123 0Z" />
<glyph unicode="i" horiz-adv-x="244" d="M122 0Q88 0 67 15T45 48V429Q45 450 66 463T122 476Q154 476 177 463T200 429V48Q200 30 177 15T122 0ZM122 568Q88 568 64 590T40 640Q40 669 64 690T122 711Q156 711 179 690T203 640Q203 612 180 590T122 568Z" />
<glyph unicode="j" horiz-adv-x="245" d="M41 -217Q-8 -217 -24 -197T-40 -154Q-40 -123 -23 -105T18 -87Q30 -87 36 -80T43 -59T45 -28V429Q45 450 66 463T121 476Q154 476 177 463T200 429V-28Q200 -83 182 -126T128 -193T41 -217ZM122 568Q88 568 64 590T40
640Q40 669 64 690T122 711Q156 711 179 690T203 640Q203 612 180 590T122 568Z" />
<glyph unicode="k" horiz-adv-x="509" d="M122 0Q89 0 68 15T46 48V701Q46 722 67 735T122 748Q155 748 178 735T201 701V309L367 470Q379 482 397 482Q414 482 431 471T460 442T472 408Q472 401 469 394T460 381L354 283L491 91Q499 78 499 67Q499 49 485 31T450
2T410 -10Q386 -10 373 9L252 188L201 141V48Q201 30 178 15T122 0Z" />
<glyph unicode="l" horiz-adv-x="263" d="M131 0Q97 0 76 15T54 48V701Q54 722 75 735T131 748Q163 748 186 735T209 701V48Q209 30 186 15T131 0Z" />
<glyph unicode="m" horiz-adv-x="813" d="M122 0Q88 0 67 15T45 48V429Q45 450 66 463T122 476Q150 476 170 463T190 429V406Q207 435 240 458T322 482Q363 482 394 454T440 382Q466 433 506 457T590 482Q637 482 678 458T746 386T772 272V48Q772 30 749 15T694
0Q663 0 640 15T617 48V272Q617 297 608 314T583 339T550 348Q534 348 520 340T496 315T486 272V47Q486 22 462 11T408 0Q381 0 356 11T331 47V271Q331 296 321 313T296 338T263 347Q247 347 233 339T209 315T200 272V48Q200 30 177 15T122 0Z" />
<glyph unicode="n" horiz-adv-x="534" d="M122 0Q88 0 67 15T45 48V429Q45 450 66 463T122 476Q150 476 170 463T190 429V406Q204 435 239 458T324 482Q370 482 408 454T470 378T494 272V48Q494 24 470 12T416 0Q389 0 364 12T339 48V272Q339 291 330 308T304
336T267 347Q251 347 236 338T210 313T200 272V48Q200 30 177 15T122 0Z" />
<glyph unicode="o" horiz-adv-x="509" d="M254 -10Q193 -10 142 19T59 97T27 202V272Q27 328 57 376T140 453T254 482Q315 482 367 454T450 378T482 272V202Q482 147 451 99T367 20T254 -10ZM254 125Q274 125 290 136T317 164T327 202V272Q327 291 317 308T291
336T254 347Q234 347 218 336T192 308T182 272V202Q182 182 191 165T217 136T254 125Z" />
<glyph unicode="p" horiz-adv-x="533" d="M122 -217Q89 -217 68 -202T46 -169V429Q46 450 67 463T120 476Q151 476 171 463T191 429V406Q208 435 243 458T326 482Q377 482 417 454T481 378T505 272V202Q505 147 481 99T418 20T331 -10Q287 -10 251 14T201 70V-169Q201
-187 178 -202T122 -217ZM276 125Q296 125 312 136T339 165T350 202V272Q350 291 340 308T313 336T274 347Q256 347 240 338T212 313T201 272V189Q201 181 210 166T237 138T276 125Z" />
<glyph unicode="q" horiz-adv-x="533" d="M411 -217Q378 -217 355 -202T332 -169V70Q318 39 282 15T202 -10Q156 -10 116 20T52 98T28 202V272Q28 330 51 377T116 453T207 482Q254 482 289 459T342 406V429Q342 450 362 463T413 476Q444 476 465 463T487 429V-169Q487
-187 466 -202T411 -217ZM257 125Q279 125 296 137T322 165T332 189V272Q332 296 322 312T294 338T259 347Q238 347 221 336T193 308T183 272V202Q183 183 193 165T221 136T257 125Z" />
<glyph unicode="r" horiz-adv-x="394" d="M121 0Q88 0 67 15T45 48V429Q45 450 66 463T121 476Q150 476 170 463T190 429V392Q200 414 218 434T260 468T309 482H338Q360 482 376 462T393 415Q393 387 377 367T338 347H309Q282 347 257 329T216 277T200 198V48Q200
30 177 15T121 0Z" />
<glyph unicode="s" horiz-adv-x="429" d="M211 -10Q159 -10 116 3T47 37T21 82Q21 94 27 110T45 138T72 150Q88 150 104 139T143 116T207 105Q247 105 258 116T269 138Q269 155 252 164T209 180T152 195T96 219T52 260T35 328Q35 365 52 400T111 459T223 482Q267
482 305 473T368 448T393 410Q393 400 387 383T368 351T337 337Q324 337 308 344T272 359T225 367Q205 367 193 362T174 350T168 335Q168 321 185 314T229 300T286 285T343 260T387 216T404 144Q404 74 355 32T211 -10Z" />
<glyph unicode="t" horiz-adv-x="364" d="M239 0Q144 0 94 40T43 169V636Q43 657 68 670T120 683Q149 683 173 670T198 636V476H311Q330 476 339 459T349 421Q349 400 340 383T311 366H198V169Q198 147 207 139T239 130H282Q316 130 332 110T348 65Q348 40 332
20T282 0H239Z" />
<glyph unicode="u" horiz-adv-x="535" d="M268 -10Q206 -10 154 19T71 97T40 200V428Q40 446 63 461T118 476Q149 476 172 461T195 428V200Q195 181 205 164T231 136T268 125Q288 125 304 136T330 164T340 200V429Q340 448 363 462T418 476Q452 476 473 462T495
429V200Q495 144 464 96T382 19T268 -10Z" />
<glyph unicode="v" horiz-adv-x="503" d="M252 -13Q229 -13 209 -6T182 14L6 399Q4 403 3 408T1 418Q1 436 19 451T61 474T106 483Q120 483 132 478T149 458L252 197L355 458Q360 472 371 477T397 483Q413 483 438 474T482 450T502 417Q502 412 501 408T498 399L322
14Q316 1 296 -6T252 -13Z" />
<glyph unicode="w" horiz-adv-x="702" d="M220 -13Q201 -13 184 -7T161 14L7 399Q4 407 3 411T2 420Q2 438 19 452T60 474T104 482Q119 482 131 477T147 458L236 204L300 419Q306 439 320 444T351 449Q368 449 382 444T402 419L466 204L555 458Q563 482 597 482Q616
482 640 474T681 452T699 418Q699 414 698 409T695 399L541 14Q535 -1 518 -7T481 -13Q459 -13 441 -6T417 14L351 188L285 14Q281 1 262 -6T220 -13Z" />
<glyph unicode="x" horiz-adv-x="493" d="M118 -10Q102 -10 79 1T37 31T18 67Q18 80 27 93L140 243L38 379Q35 383 32 390T28 404Q28 422 46 440T88 470T133 482Q138 482 148 480T166 466L246 335L327 465Q333 475 343 478T362 482Q380 482 404 470T447 440T465
404Q465 393 455 379L352 242L466 93Q469 89 472 82T475 67Q475 51 458 33T418 3T373 -10Q364 -10 354 -7T338 6L246 144L155 6Q149 -2 138 -6T118 -10Z" />
<glyph unicode="y" horiz-adv-x="496" d="M72 -217Q42 -217 22 -206T1 -151Q1 -125 9 -106T39 -87Q53 -87 76 -85T123 -71T164 -33T181 41L6 389Q1 399 1 409Q1 429 19 446T61 473T106 483Q120 483 132 478T149 458L262 187L345 458Q350 472 361 477T385 483Q403
483 428 473T473 445T492 406Q492 396 488 389L346 35Q327 -12 310 -57T267 -138T194 -195T72 -217Z" />
<glyph unicode="z" horiz-adv-x="448" d="M69 0Q41 0 30 17T18 54Q18 73 26 89T45 118L222 351H69Q51 351 38 369T25 414Q25 439 37 457T69 476H368Q387 476 401 464T416 425Q416 391 391 358L213 125H390Q408 125 421 107T434 62Q434 37 422 19T390 0H69Z" />
<glyph unicode="{" horiz-adv-x="380" d="M279 -20Q227 -20 177 1T95 59T62 144Q62 155 63 171T67 208T72 246T75 279T77 301Q77 317 68 323T47 333T26 349T17 387Q17 413 26 424T47 439T68 448T77 469Q77 477 75 492T70 526T65 563T62 593Q62 627 81 658T132
714T202 753T281 768Q333 768 350 746T368 700Q368 678 357 658T321 637Q306 637 282 632T238 613T218 572Q218 563 220 547T225 511T230 475T233 449Q233 427 220 407T197 384Q208 381 220 362T233 320Q233 311 231 289T226 240T221 193T218 164Q218 148 229 138T256
122T290 114T321 111Q340 111 350 100T364 74T368 46Q368 12 346 -4T279 -20Z" />
<glyph unicode="|" horiz-adv-x="255" d="M127 -21Q93 -21 72 -6T50 27V721Q50 742 71 755T127 768Q159 768 182 755T205 721V27Q205 9 182 -6T127 -21Z" />
<glyph unicode="}" horiz-adv-x="380" d="M101 -20Q58 -20 35 -4T12 46Q12 59 16 74T30 100T59 111Q72 111 89 113T123 121T151 137T162 164Q162 172 160 193T155 240T150 288T147 320Q147 343 160 362T183 384Q174 387 161 407T147 449Q147 458 149 474T154 510T159
546T162 572Q162 599 143 613T99 632T59 637Q35 637 24 657T12 700Q12 724 29 746T99 768Q139 768 178 754T248 715T299 659T318 593Q318 581 316 563T311 527T306 493T303 469Q303 454 312 449T333 439T354 424T363 387Q363 360 354 349T333 334T312 323T303 301Q303
294 304 280T308 247T313 208T316 172T318 144Q318 96 286 59T204 1T101 -20Z" />
<glyph unicode="~" horiz-adv-x="411" d="M298 192Q263 192 239 199T196 212T152 219Q131 219 116 214T90 203T66 198Q51 198 43 208T31 230T28 247Q28 274 38 288T63 310T92 318T113 320Q144 320 166 314T210 300T259 293Q280 293 295 298T322 309T345 314Q361
314 369 304T380 282T383 265Q383 238 373 224T348 202T319 194T298 192Z" />
<glyph unicode="&#xa0;" horiz-adv-x="200" />
<glyph unicode="&#xa1;" horiz-adv-x="229" d="M114 -6Q85 -6 64 10T42 55Q42 115 45 187T52 332T56 464Q56 487 76 497T114 508Q138 508 155 498T173 464Q173 405 176 333T183 188T187 55Q187 26 166 10T114 -6ZM113 577Q82 577 60 600T37 654Q37 685 59 708T113
731Q146 731 168 708T190 654Q190 623 168 600T113 577Z" />
<glyph unicode="&#xa2;" horiz-adv-x="448" d="M260 39Q242 39 230 52T217 81V151Q115 160 69 219T23 362V380Q23 436 43 481T107 556T217 591V655Q217 673 229 684T260 695Q277 695 290 684T304 655V587Q338 582 363 570T403 543T417 509Q417 495 410 478T389
450T357 438Q349 438 341 441T325 450T304 460V283Q315 288 323 294T340 304T357 308Q389 308 406 285T423 238Q423 220 408 203T366 174T304 154V81Q304 65 291 52T260 39ZM217 280V462Q186 454 172 433T158 380V362Q158 330 172 309T217 280Z" />
<glyph unicode="&#xa3;" horiz-adv-x="565" d="M65 0Q43 0 32 21T20 68Q20 94 31 115T65 136H115L147 366H100Q81 366 72 383T62 421Q62 441 71 458T100 476H163L173 545Q183 611 222 661T319 740T442 768H484Q508 768 521 747T534 701Q534 676 521 655T484 633H437Q402
633 379 622T344 591T328 545L318 476H425Q444 476 453 459T463 421Q463 400 454 383T425 366H302L269 136H489Q512 136 523 115T534 68Q534 43 523 22T489 0H65Z" />
<glyph unicode="&#xa4;" horiz-adv-x="440" d="M220 290Q190 290 162 300T111 330L87 309Q81 304 73 304Q61 304 52 314T42 335Q42 342 48 348L74 372Q59 394 51 419T43 472Q43 499 51 524T74 572L48 596Q42 602 42 609Q42 620 51 630T73 640Q81 640 87 635L111
613Q134 631 161 641T220 652Q250 652 278 642T329 613L353 635Q359 640 367 640Q379 640 388 630T398 609Q398 602 392 596L366 572Q381 551 389 526T398 473Q398 445 390 420T366 372L392 348Q398 342 398 335Q398 324 389 314T367 304Q359 304 353 309L329 331Q306
312 278 301T220 290ZM220 371Q247 371 269 385T305 423T318 471Q318 497 305 519T270 556T220 571Q193 571 171 557T136 521T123 472Q123 446 136 423T171 386T220 371Z" />
<glyph unicode="&#xa5;" horiz-adv-x="587" d="M294 0Q265 0 241 12T216 48V143H135Q114 143 101 157T88 195Q88 218 101 234T135 250H216V310H135Q114 310 101 324T88 362Q88 385 101 401T135 417H181L25 656Q22 660 21 665T20 674Q20 690 35 704T72 728T114
738Q131 738 139 728T156 702L294 451L431 702Q439 717 448 727T473 738Q493 738 515 728T552 704T567 675Q567 664 562 656L406 417H455Q473 417 488 402T503 363Q503 340 488 325T455 310H372V250H455Q473 250 488 235T503 196Q503 173 488 158T455 143H372V48Q372
24 348 12T294 0Z" />
<glyph unicode="&#xa6;" horiz-adv-x="255" d="M127 432Q93 432 72 447T50 480V721Q50 742 71 755T127 768Q159 768 182 755T205 721V480Q205 462 182 447T127 432ZM127 -21Q93 -21 72 -6T50 27V268Q50 289 71 302T127 315Q159 315 182 302T205 268V27Q205 9 182
-6T127 -21Z" />
<glyph unicode="&#xa7;" horiz-adv-x="485" d="M237 -69Q170 -69 126 -43T60 21T38 99Q38 134 55 146T103 159Q141 159 155 147T169 118Q169 108 171 98T178 78T196 64T229 58Q266 58 280 74T295 110Q295 132 281 147T244 174T194 198T139 227T89 268T52 329T38
417V517Q38 582 57 623T107 688T173 721T242 731Q306 731 348 705T410 641T431 562Q431 526 416 515T374 503Q336 503 323 517T309 550Q309 563 304 576T286 598T247 607Q223 607 208 599T187 578T180 552Q180 530 194 515T233 488T287 464T344 435T397 394T436
333T451 245V145Q451 80 431 39T379 -26T309 -59T237 -69ZM326 248V266Q326 294 314 312T284 342T243 364T201 381T165 402V384Q165 356 177 338T207 308T248 286T290 269T326 248Z" />
<glyph unicode="&#xa8;" horiz-adv-x="273" d="M217 571Q194 571 177 589T160 630Q160 653 177 670T217 688Q240 688 256 671T273 630Q273 607 257 589T217 571ZM57 571Q34 571 17 589T0 630Q0 653 17 670T57 688Q80 688 96 671T113 630Q113 607 97 589T57 571Z" />
<glyph unicode="&#xa9;" horiz-adv-x="680" d="M337 35Q284 35 231 55T132 115T60 216T33 358Q33 442 61 503T136 605T236 665T343 685Q396 685 449 665T548 605T620 504T647 362Q647 278 619 217T544 115T444 55T337 35ZM337 105Q409 105 463 137T547 228T577
362Q577 436 549 493T468 582T343 615Q272 615 218 583T133 493T103 358Q103 285 131 228T212 138T337 105ZM341 171Q290 171 253 200T216 302V432Q216 504 253 533T341 563Q397 563 434 535T471 453Q471 429 461 421T431 413Q415 413 403 419T390 439Q390 447
388 459T376 480T344 490Q297 490 297 432V302Q297 244 344 244Q365 244 374 253T386 276T390 301Q391 316 402 321T430 326Q451 326 461 318T471 286Q471 231 434 201T341 171Z" />
<glyph unicode="&#xaa;" horiz-adv-x="338" d="M139 438Q132 436 124 435T107 434Q73 435 47 456T21 524Q21 583 65 604T180 626H205V633Q205 652 194 669T152 687Q124 687 111 682T90 671T73 665Q57 665 48 681T39 715Q39 731 57 742T102 761T153 768Q208 768
241 749T290 700T305 634V471Q305 458 292 449T256 440Q237 440 225 449T212 471V488Q198 472 180 458T139 438ZM151 507Q163 507 175 515T196 538T205 570V576H187Q170 576 155 573T131 561T122 538Q122 522 130 515T151 507Z" />
<glyph unicode="&#xab;" horiz-adv-x="537" d="M408 74Q376 74 366 93L299 218Q287 241 279 252T271 276Q271 290 279 302T299 336L366 461Q376 480 408 480Q434 480 456 467T492 436T506 402Q506 394 503 388L444 277L503 166Q506 160 506 152Q506 137 493 119T457
87T408 74ZM158 74Q126 74 116 93L49 218Q37 241 29 252T21 276Q21 290 29 302T49 336L116 461Q126 480 158 480Q184 480 206 467T242 436T256 402Q256 394 253 388L194 277L253 166Q256 160 256 152Q256 137 243 119T207 87T158 74Z" />
<glyph unicode="&#xac;" horiz-adv-x="504" d="M384 63Q350 63 329 78T307 111V177H73Q52 177 39 194T26 240Q26 267 39 285T73 304H414Q432 304 447 286T462 240V111Q462 93 439 78T384 63Z" />
<glyph unicode="&#xad;" horiz-adv-x="476" d="M78 177Q57 177 44 194T31 240Q31 267 44 285T78 304H398Q416 304 431 286T446 240Q446 212 431 195T398 177H78Z" />
<glyph unicode="&#xae;" horiz-adv-x="680" d="M337 35Q284 35 231 55T132 115T60 216T33 358Q33 442 61 503T136 605T236 665T343 685Q396 685 449 665T548 605T620 504T647 362Q647 278 619 217T544 115T444 55T337 35ZM337 105Q409 105 463 137T547 228T577
362Q577 436 549 493T468 582T343 615Q272 615 218 583T133 493T103 358Q103 285 131 228T212 138T337 105ZM432 181Q425 181 420 185T409 198L346 324H304V208Q304 196 294 189T268 182Q253 182 241 188T228 208V522Q228 532 235 539T253 547H354Q387 547 414
537T459 504T476 439Q476 399 458 374T413 337L472 229Q473 227 473 222Q473 206 460 194T432 181ZM304 388H354Q377 388 389 398T401 431Q401 459 389 469T354 480H304V388Z" />
<glyph unicode="&#xaf;" horiz-adv-x="295" d="M47 600Q26 600 13 613T0 649Q0 670 13 684T47 699H247Q265 699 280 685T295 649Q295 627 280 614T247 600H47Z" />
<glyph unicode="&#xb0;" horiz-adv-x="389" d="M194 406Q147 406 107 431T42 498T17 588Q17 636 41 677T105 743T194 768Q242 768 282 744T347 679T372 589Q372 541 348 499T283 432T194 406ZM194 487Q221 487 243 501T279 539T292 587Q292 613 279 635T244 672T195
687Q167 687 145 673T110 637T97 588Q97 562 110 539T145 502T194 487Z" />
<glyph unicode="&#xb1;" horiz-adv-x="473" d="M237 178Q210 178 192 191T173 225V312H76Q55 312 42 329T29 375Q29 402 42 420T76 439H173V525Q173 543 191 558T237 573Q266 573 283 558T300 525V439H396Q414 439 429 421T444 375Q444 347 429 330T396 312H300V225Q300
204 283 191T237 178ZM76 22Q55 22 42 39T29 85Q29 112 42 130T76 149H396Q414 149 429 131T444 85Q444 57 429 40T396 22H76Z" />
<glyph unicode="&#xb2;" horiz-adv-x="326" d="M63 322Q50 322 35 330T19 352V407Q19 433 38 455T85 497T140 535T187 572T206 610Q206 620 197 630T165 641Q149 641 137 633T124 605Q124 592 110 581T71 569Q52 569 39 579T26 620Q26 656 46 680T98 718T164 731Q199
731 232 718T286 679T307 613Q307 578 289 551T243 504T189 468T143 439T124 413V409H276Q288 409 297 396T306 366Q306 349 297 336T276 322H63Z" />
<glyph unicode="&#xb3;" horiz-adv-x="336" d="M160 319Q108 319 76 336T30 379T15 428Q15 449 25 456T63 463Q94 463 104 456T114 431Q114 419 122 414T141 407T164 406Q193 406 204 415T215 447V458Q215 484 200 489T161 495Q145 495 139 507T132 533Q132 547
138 559T161 572Q175 573 189 578T204 613Q204 635 192 640T163 646Q151 646 142 645T128 640T123 625Q123 609 114 600T76 590Q41 590 33 598T24 628Q24 652 37 675T80 715T163 731Q222 731 261 709T300 629Q300 601 289 575T254 538Q281 529 298 510T315 458V447Q315
401 294 373T238 332T160 319Z" />
<glyph unicode="&#xb4;" horiz-adv-x="221" d="M46 559Q27 559 14 578T0 617Q0 642 20 652L160 717Q168 720 174 720Q194 720 207 701T221 662Q221 638 201 628L61 563Q57 562 54 561T46 559Z" />
<glyph unicode="&#xb5;" horiz-adv-x="529" d="M127 -217Q94 -217 73 -202T51 -169V428Q51 446 74 461T129 476Q160 476 183 461T206 428V200Q206 186 211 173T227 149T251 132T279 125Q299 125 315 136T341 164T351 200V429Q351 448 374 462T429 476Q463 476
484 462T506 429V200Q506 144 475 96T393 19T279 -10Q254 -10 231 -2T186 19V-169Q186 -187 169 -202T127 -217Z" />
<glyph unicode="&#xb6;" horiz-adv-x="572" d="M284 0Q266 0 251 12T236 48V306H218Q163 306 119 326T48 392T22 513V525Q22 600 48 645T118 710T218 731H465Q483 731 498 719T513 683V47Q513 22 498 11T465 0Q447 0 432 11T417 47V665H332V48Q332 24 317 12T284 0Z" />
<glyph unicode="&#xb7;" horiz-adv-x="213" d="M107 228Q73 228 49 250T25 300Q25 329 49 350T107 371Q141 371 164 350T188 300Q188 272 165 250T107 228Z" />
<glyph unicode="&#xb8;" horiz-adv-x="199" d="M88 -219Q70 -219 50 -216T15 -205T0 -188Q0 -184 2 -174T11 -155T26 -146Q35 -146 47 -153T84 -160Q104 -160 117 -153T130 -129Q130 -116 120 -107T87 -95L25 -89L54 9H118L99 -47Q150 -49 174 -71T199 -126Q199
-143 190 -165T156 -203T88 -219Z" />
<glyph unicode="&#xb9;" horiz-adv-x="201" d="M115 322Q96 322 80 329T64 352V625L48 621Q39 618 32 618Q19 618 10 630T1 657Q1 668 5 676T19 690L103 730Q111 733 120 733Q136 733 150 725T165 702V352Q165 337 150 330T115 322Z" />
<glyph unicode="&#xba;" horiz-adv-x="349" d="M174 433Q133 433 99 453T43 506T22 576V626Q22 664 42 696T97 748T174 768Q215 768 250 749T306 698T327 626V576Q327 539 306 506T250 453T174 433ZM174 521Q196 521 211 537T227 576V626Q227 647 212 663T174
680Q152 680 137 664T122 626V576Q122 554 137 538T174 521Z" />
<glyph unicode="&#xbb;" horiz-adv-x="537" d="M379 74Q353 74 331 87T295 118T281 152Q281 160 284 166L343 277L284 388Q281 394 281 402Q281 418 294 436T330 467T379 480Q412 480 421 461L488 336Q500 314 508 302T516 276Q516 263 508 252T488 218L421 93Q412
74 379 74ZM129 74Q103 74 81 87T45 118T31 152Q31 160 34 166L93 277L34 388Q31 394 31 402Q31 418 44 436T80 467T129 480Q162 480 171 461L238 336Q250 314 258 302T266 276Q266 263 258 252T238 218L171 93Q162 74 129 74Z" />
<glyph unicode="&#xbc;" horiz-adv-x="726" d="M115 322Q96 322 80 329T64 352V625L48 621Q39 618 32 618Q19 618 10 630T1 657Q1 668 5 676T19 690L103 730Q111 733 120 733Q136 733 150 725T165 702V352Q165 337 150 330T115 322ZM127 -46Q102 -46 87 -29T71
7Q71 16 76 26L427 747Q439 772 469 772Q490 772 509 758T528 719Q528 708 524 700L172 -21Q167 -32 154 -39T127 -46ZM620 0Q601 0 586 7T570 30V84H431Q418 84 408 92T398 118Q398 127 403 136L540 384Q548 398 559 403T582 409Q595 409 613 399T632 372Q632
366 629 360L527 176H570V197Q570 213 585 220T620 227Q640 227 655 220T671 197V176H696Q711 176 718 162T726 130Q726 113 717 99T696 84H671V30Q671 15 656 8T620 0Z" />
<glyph unicode="&#xbd;" horiz-adv-x="725" d="M115 322Q96 322 80 329T64 352V625L48 621Q39 618 32 618Q19 618 10 630T1 657Q1 668 5 676T19 690L103 730Q111 733 120 733Q136 733 150 725T165 702V352Q165 337 150 330T115 322ZM127 -46Q102 -46 87 -29T71
7Q71 16 76 26L427 747Q439 772 469 772Q490 772 509 758T528 719Q528 708 524 700L172 -21Q167 -32 154 -39T127 -46ZM462 0Q449 0 434 8T418 30V85Q418 111 437 133T484 175T539 213T586 250T605 288Q605 298 596 308T564 319Q548 319 536 311T523 283Q523 270
509 259T470 247Q451 247 438 257T425 298Q425 334 445 359T497 396T563 409Q598 409 631 396T685 357T706 291Q706 256 688 229T642 182T588 146T542 117T523 91V87H675Q687 87 696 74T705 44Q705 27 696 14T675 0H462Z" />
<glyph unicode="&#xbe;" horiz-adv-x="861" d="M160 319Q108 319 76 336T30 379T15 428Q15 449 25 456T63 463Q94 463 104 456T114 431Q114 419 122 414T141 407T164 406Q193 406 204 415T215 447V458Q215 484 200 489T161 495Q145 495 139 507T132 533Q132 547
138 559T161 572Q175 573 189 578T204 613Q204 635 192 640T163 646Q151 646 142 645T128 640T123 625Q123 609 114 600T76 590Q41 590 33 598T24 628Q24 652 37 675T80 715T163 731Q222 731 261 709T300 629Q300 601 289 575T254 538Q281 529 298 510T315 458V447Q315
401 294 373T238 332T160 319ZM262 -46Q237 -46 222 -29T206 7Q206 16 211 26L562 747Q574 772 604 772Q625 772 644 758T663 719Q663 708 659 700L307 -21Q302 -32 289 -39T262 -46ZM755 0Q736 0 721 7T705 30V84H566Q553 84 543 92T533 118Q533 127 538 136L675
384Q683 398 694 403T717 409Q730 409 748 399T767 372Q767 366 764 360L662 176H705V197Q705 213 720 220T755 227Q775 227 790 220T806 197V176H831Q846 176 853 162T861 130Q861 113 852 99T831 84H806V30Q806 15 791 8T755 0Z" />
<glyph unicode="&#xbf;" horiz-adv-x="452" d="M235 -6Q171 -6 123 15T49 74T22 159Q22 194 35 224T68 278T105 318T134 342Q162 364 173 382T187 421T190 467Q190 481 201 494T249 508Q280 508 292 494T304 441Q304 398 294 369T268 321T237 289Q225 279 210
268T180 243T157 213T148 176Q148 142 174 125T238 108Q276 108 295 119T323 146T342 173T372 185Q392 185 412 171T432 128Q432 101 411 70T347 17T235 -6ZM248 577Q217 577 194 600T171 654Q171 685 193 708T248 731Q280 731 302 708T324 654Q324 623 302 600T248
577Z" />
<glyph unicode="&#xc0;" horiz-adv-x="589" d="M104 0Q83 0 60 8T20 31T4 64Q4 67 6 75L192 685Q200 711 230 724T294 737Q329 737 358 724T396 685L583 75Q585 67 585 64Q585 46 569 32T530 9T485 0Q466 0 453 6T434 29L400 154H189L155 29Q151 13 137 7T104
0ZM221 274H367L294 542L221 274ZM333 797Q329 797 326 798T318 801L178 866Q158 876 158 900Q158 920 171 939T205 958Q212 958 219 955L359 890Q379 880 379 855Q379 836 366 817T333 797Z" />
<glyph unicode="&#xc1;" horiz-adv-x="589" d="M104 0Q83 0 60 8T20 31T4 64Q4 67 6 75L192 685Q200 711 230 724T294 737Q329 737 358 724T396 685L583 75Q585 67 585 64Q585 46 569 32T530 9T485 0Q466 0 453 6T434 29L400 154H189L155 29Q151 13 137 7T104
0ZM221 274H367L294 542L221 274ZM265 798Q246 798 233 817T219 856Q219 881 239 891L379 956Q387 959 393 959Q413 959 426 940T440 901Q440 877 420 867L280 802Q276 801 273 800T265 798Z" />
<glyph unicode="&#xc2;" horiz-adv-x="589" d="M104 0Q83 0 60 8T20 31T4 64Q4 67 6 75L192 685Q200 711 230 724T294 737Q329 737 358 724T396 685L583 75Q585 67 585 64Q585 46 569 32T530 9T485 0Q466 0 453 6T434 29L400 154H189L155 29Q151 13 137 7T104
0ZM221 274H367L294 542L221 274ZM180 807Q167 807 158 821T149 853Q149 866 155 878T174 897L278 953Q288 958 295 958Q302 958 312 953L416 897Q430 890 435 878T441 853Q441 836 433 822T410 807Q408 807 405 808T399 810L295 866L191 810Q188 809 185 808T180
807Z" />
<glyph unicode="&#xc3;" horiz-adv-x="589" d="M104 0Q83 0 60 8T20 31T4 64Q4 67 6 75L192 685Q200 711 230 724T294 737Q329 737 358 724T396 685L583 75Q585 67 585 64Q585 46 569 32T530 9T485 0Q466 0 453 6T434 29L400 154H189L155 29Q151 13 137 7T104
0ZM221 274H367L294 542L221 274ZM387 817Q352 817 328 824T285 837T241 844Q220 844 205 839T179 829T155 823Q140 823 132 833T120 855T117 872Q117 899 127 913T152 935T181 943T202 945Q233 945 255 939T299 925T348 918Q369 918 384 923T411 934T434 939Q450
939 458 929T469 907T472 890Q472 863 462 849T437 827T408 819T387 817Z" />
<glyph unicode="&#xc4;" horiz-adv-x="589" d="M104 0Q83 0 60 8T20 31T4 64Q4 67 6 75L192 685Q200 711 230 724T294 737Q329 737 358 724T396 685L583 75Q585 67 585 64Q585 46 569 32T530 9T485 0Q466 0 453 6T434 29L400 154H189L155 29Q151 13 137 7T104
0ZM221 274H367L294 542L221 274ZM374 809Q351 809 334 827T317 868Q317 891 334 908T374 926Q397 926 413 909T430 868Q430 845 414 827T374 809ZM214 809Q191 809 174 827T157 868Q157 891 174 908T214 926Q237 926 253 909T270 868Q270 845 254 827T214 809Z"
/>
<glyph unicode="&#xc5;" horiz-adv-x="589" d="M104 0Q83 0 60 8T20 31T4 64Q4 67 6 75L192 685Q200 711 230 724T294 737Q329 737 358 724T396 685L583 75Q585 67 585 64Q585 46 569 32T530 9T485 0Q466 0 453 6T434 29L400 154H189L155 29Q151 13 137 7T104
0ZM221 274H367L294 542L221 274ZM294 799Q268 799 245 813T209 851T195 902Q195 928 208 951T244 988T294 1003Q321 1003 344 989T381 952T395 902Q395 875 381 852T344 814T294 799ZM295 859Q312 859 323 872T334 901Q334 916 323 928T295 940Q278 940 266 928T254
901Q254 886 266 873T295 859Z" />
<glyph unicode="&#xc6;" horiz-adv-x="817" d="M119 0Q82 0 67 15T51 53V495Q51 581 82 633T167 708T287 731H756Q781 731 792 710T803 664Q803 636 791 616T756 595H530V426H638Q661 426 673 408T685 365Q685 345 674 326T638 306H530V136H756Q779 136 791 116T803
67Q803 43 792 22T756 0H442Q417 0 396 12T374 48V306H197V53Q197 31 184 16T119 0ZM197 426H374V595H287Q245 595 221 571T197 495V426Z" />
<glyph unicode="&#xc7;" horiz-adv-x="562" d="M286 -6Q221 -6 166 17T79 92T46 230V495Q46 581 78 633T166 708T286 731Q358 731 414 708T504 640T537 532Q537 487 518 473T459 458Q428 458 406 468T381 505Q381 515 379 530T368 560T342 585T292 595Q249 595
226 571T202 495V230Q202 179 226 155T293 130Q323 130 340 140T366 165T377 198T381 230Q383 258 405 267T458 277Q499 277 518 263T537 203Q537 137 504 90T415 19T286 -6ZM290 -219Q272 -219 252 -216T217 -205T202 -188Q202 -184 204 -174T213 -155T228 -146Q237
-146 249 -153T286 -160Q306 -160 319 -153T332 -129Q332 -116 322 -107T289 -95L227 -89L256 9H320L301 -47Q352 -49 376 -71T401 -126Q401 -143 392 -165T358 -203T290 -219Z" />
<glyph unicode="&#xc8;" horiz-adv-x="539" d="M122 0Q97 0 76 12T54 48V683Q54 707 75 719T122 731H478Q503 731 514 710T525 664Q525 636 513 616T478 595H210V426H360Q383 426 395 408T407 365Q407 345 396 326T360 306H210V136H478Q501 136 513 116T525 67Q525
43 514 22T478 0H122ZM320 797Q316 797 313 798T305 801L165 866Q145 876 145 900Q145 920 158 939T192 958Q199 958 206 955L346 890Q366 880 366 855Q366 836 353 817T320 797Z" />
<glyph unicode="&#xc9;" horiz-adv-x="539" d="M122 0Q97 0 76 12T54 48V683Q54 707 75 719T122 731H478Q503 731 514 710T525 664Q525 636 513 616T478 595H210V426H360Q383 426 395 408T407 365Q407 345 396 326T360 306H210V136H478Q501 136 513 116T525 67Q525
43 514 22T478 0H122ZM252 798Q233 798 220 817T206 856Q206 881 226 891L366 956Q374 959 380 959Q400 959 413 940T427 901Q427 877 407 867L267 802Q263 801 260 800T252 798Z" />
<glyph unicode="&#xca;" horiz-adv-x="539" d="M122 0Q97 0 76 12T54 48V683Q54 707 75 719T122 731H478Q503 731 514 710T525 664Q525 636 513 616T478 595H210V426H360Q383 426 395 408T407 365Q407 345 396 326T360 306H210V136H478Q501 136 513 116T525 67Q525
43 514 22T478 0H122ZM167 807Q154 807 145 821T136 853Q136 866 142 878T161 897L265 953Q275 958 282 958Q289 958 299 953L403 897Q417 890 422 878T428 853Q428 836 420 822T397 807Q395 807 392 808T386 810L282 866L178 810Q175 809 172 808T167 807Z" />
<glyph unicode="&#xcb;" horiz-adv-x="539" d="M122 0Q97 0 76 12T54 48V683Q54 707 75 719T122 731H478Q503 731 514 710T525 664Q525 636 513 616T478 595H210V426H360Q383 426 395 408T407 365Q407 345 396 326T360 306H210V136H478Q501 136 513 116T525 67Q525
43 514 22T478 0H122ZM361 809Q338 809 321 827T304 868Q304 891 321 908T361 926Q384 926 400 909T417 868Q417 845 401 827T361 809ZM201 809Q178 809 161 827T144 868Q144 891 161 908T201 926Q224 926 240 909T257 868Q257 845 241 827T201 809Z" />
<glyph unicode="&#xcc;" horiz-adv-x="264" d="M132 0Q103 0 79 12T54 48V684Q54 709 78 720T132 731Q161 731 185 720T210 684V48Q210 24 186 12T132 0ZM170 797Q166 797 163 798T155 801L15 866Q-5 876 -5 900Q-5 920 8 939T42 958Q49 958 56 955L196 890Q216
880 216 855Q216 836 203 817T170 797Z" />
<glyph unicode="&#xcd;" horiz-adv-x="264" d="M132 0Q103 0 79 12T54 48V684Q54 709 78 720T132 731Q161 731 185 720T210 684V48Q210 24 186 12T132 0ZM102 798Q83 798 70 817T56 856Q56 881 76 891L216 956Q224 959 230 959Q250 959 263 940T277 901Q277 877
257 867L117 802Q113 801 110 800T102 798Z" />
<glyph unicode="&#xce;" horiz-adv-x="264" d="M132 0Q103 0 79 12T54 48V684Q54 709 78 720T132 731Q161 731 185 720T210 684V48Q210 24 186 12T132 0ZM17 807Q4 807 -5 821T-14 853Q-14 866 -8 878T11 897L115 953Q125 958 132 958Q139 958 149 953L253 897Q267
890 272 878T278 853Q278 836 270 822T247 807Q245 807 242 808T236 810L132 866L28 810Q25 809 22 808T17 807Z" />
<glyph unicode="&#xcf;" horiz-adv-x="264" d="M132 0Q103 0 79 12T54 48V684Q54 709 78 720T132 731Q161 731 185 720T210 684V48Q210 24 186 12T132 0ZM211 809Q188 809 171 827T154 868Q154 891 171 908T211 926Q234 926 250 909T267 868Q267 845 251 827T211
809ZM51 809Q28 809 11 827T-6 868Q-6 891 11 908T51 926Q74 926 90 909T107 868Q107 845 91 827T51 809Z" />
<glyph unicode="&#xd0;" horiz-adv-x="596" d="M128 0Q97 0 79 14T60 47V327H28Q9 327 0 344T-10 382Q-10 402 -1 419T28 437H60V684Q60 703 78 717T128 731H305Q374 731 430 708T518 633T551 495V236Q551 150 519 98T430 23T305 0H128ZM216 136H305Q347 136 371
160T395 236V495Q395 546 371 570T305 595H216V437H278Q297 437 306 420T316 382Q316 360 307 344T278 327H216V136Z" />
<glyph unicode="&#xd1;" horiz-adv-x="619" d="M132 0Q103 0 79 12T54 48V683Q54 708 78 719T132 731Q160 731 178 727T212 706T247 653L409 344V684Q409 709 433 720T487 731Q516 731 540 720T565 684V48Q565 24 541 12T487 0Q460 0 437 8T400 42L210 388V48Q210
24 186 12T132 0ZM402 817Q367 817 343 824T300 837T256 844Q235 844 220 839T194 829T170 823Q155 823 147 833T135 855T132 872Q132 899 142 913T167 935T196 943T217 945Q248 945 270 939T314 925T363 918Q384 918 399 923T426 934T449 939Q465 939 473 929T484
907T487 890Q487 863 477 849T452 827T423 819T402 817Z" />
<glyph unicode="&#xd2;" horiz-adv-x="583" d="M291 -6Q222 -6 167 17T79 92T46 230V495Q46 581 78 633T166 708T291 731Q360 731 416 708T504 633T537 495V230Q537 144 505 92T416 17T291 -6ZM291 130Q333 130 357 154T381 230V495Q381 547 357 571T291 595Q249
595 226 571T202 495V230Q202 178 225 154T291 130ZM330 797Q326 797 323 798T315 801L175 866Q155 876 155 900Q155 920 168 939T202 958Q209 958 216 955L356 890Q376 880 376 855Q376 836 363 817T330 797Z" />
<glyph unicode="&#xd3;" horiz-adv-x="583" d="M291 -6Q222 -6 167 17T79 92T46 230V495Q46 581 78 633T166 708T291 731Q360 731 416 708T504 633T537 495V230Q537 144 505 92T416 17T291 -6ZM291 130Q333 130 357 154T381 230V495Q381 547 357 571T291 595Q249
595 226 571T202 495V230Q202 178 225 154T291 130ZM262 798Q243 798 230 817T216 856Q216 881 236 891L376 956Q384 959 390 959Q410 959 423 940T437 901Q437 877 417 867L277 802Q273 801 270 800T262 798Z" />
<glyph unicode="&#xd4;" horiz-adv-x="583" d="M291 -6Q222 -6 167 17T79 92T46 230V495Q46 581 78 633T166 708T291 731Q360 731 416 708T504 633T537 495V230Q537 144 505 92T416 17T291 -6ZM291 130Q333 130 357 154T381 230V495Q381 547 357 571T291 595Q249
595 226 571T202 495V230Q202 178 225 154T291 130ZM177 807Q164 807 155 821T146 853Q146 866 152 878T171 897L275 953Q285 958 292 958Q299 958 309 953L413 897Q427 890 432 878T438 853Q438 836 430 822T407 807Q405 807 402 808T396 810L292 866L188 810Q185
809 182 808T177 807Z" />
<glyph unicode="&#xd5;" horiz-adv-x="583" d="M291 -6Q222 -6 167 17T79 92T46 230V495Q46 581 78 633T166 708T291 731Q360 731 416 708T504 633T537 495V230Q537 144 505 92T416 17T291 -6ZM291 130Q333 130 357 154T381 230V495Q381 547 357 571T291 595Q249
595 226 571T202 495V230Q202 178 225 154T291 130ZM384 817Q349 817 325 824T282 837T238 844Q217 844 202 839T176 829T152 823Q137 823 129 833T117 855T114 872Q114 899 124 913T149 935T178 943T199 945Q230 945 252 939T296 925T345 918Q366 918 381 923T408
934T431 939Q447 939 455 929T466 907T469 890Q469 863 459 849T434 827T405 819T384 817Z" />
<glyph unicode="&#xd6;" horiz-adv-x="583" d="M291 -6Q222 -6 167 17T79 92T46 230V495Q46 581 78 633T166 708T291 731Q360 731 416 708T504 633T537 495V230Q537 144 505 92T416 17T291 -6ZM291 130Q333 130 357 154T381 230V495Q381 547 357 571T291 595Q249
595 226 571T202 495V230Q202 178 225 154T291 130ZM371 809Q348 809 331 827T314 868Q314 891 331 908T371 926Q394 926 410 909T427 868Q427 845 411 827T371 809ZM211 809Q188 809 171 827T154 868Q154 891 171 908T211 926Q234 926 250 909T267 868Q267 845
251 827T211 809Z" />
<glyph unicode="&#xd7;" horiz-adv-x="410" d="M106 104Q90 104 74 115T46 143T34 177Q34 194 46 206L125 275L47 342Q36 353 36 371Q36 398 58 420T107 443Q124 443 137 432L204 364L272 432Q283 443 301 443Q328 443 350 421T373 372Q373 353 362 342L284 275L363
206Q375 194 375 176Q375 159 364 143T337 115T302 104Q285 104 273 116L204 185L136 116Q124 104 106 104Z" />
<glyph unicode="&#xd8;" horiz-adv-x="583" d="M291 -6Q222 -6 167 17T79 92T46 230V495Q46 581 78 633T166 708T291 731Q360 731 416 708T504 633T537 495V230Q537 144 505 92T416 17T291 -6ZM291 130Q333 130 357 154T381 230V495Q381 547 357 571T291 595Q249
595 226 571T202 495V230Q202 178 225 154T291 130ZM130 204Q105 204 90 221T74 257Q74 266 79 276L430 997Q442 1022 472 1022Q493 1022 512 1008T531 969Q531 958 527 950L175 229Q170 218 157 211T130 204Z" />
<glyph unicode="&#xd9;" horiz-adv-x="606" d="M303 -6Q232 -6 175 17T85 92T51 230V684Q51 709 75 720T129 731Q158 731 182 720T207 684V230Q207 179 232 155T303 130Q348 130 373 154T399 230V684Q399 709 423 720T477 731Q506 731 530 720T555 684V230Q555
144 522 92T431 17T303 -6ZM341 797Q337 797 334 798T326 801L186 866Q166 876 166 900Q166 920 179 939T213 958Q220 958 227 955L367 890Q387 880 387 855Q387 836 374 817T341 797Z" />
<glyph unicode="&#xda;" horiz-adv-x="606" d="M303 -6Q232 -6 175 17T85 92T51 230V684Q51 709 75 720T129 731Q158 731 182 720T207 684V230Q207 179 232 155T303 130Q348 130 373 154T399 230V684Q399 709 423 720T477 731Q506 731 530 720T555 684V230Q555
144 522 92T431 17T303 -6ZM273 798Q254 798 241 817T227 856Q227 881 247 891L387 956Q395 959 401 959Q421 959 434 940T448 901Q448 877 428 867L288 802Q284 801 281 800T273 798Z" />
<glyph unicode="&#xdb;" horiz-adv-x="606" d="M303 -6Q232 -6 175 17T85 92T51 230V684Q51 709 75 720T129 731Q158 731 182 720T207 684V230Q207 179 232 155T303 130Q348 130 373 154T399 230V684Q399 709 423 720T477 731Q506 731 530 720T555 684V230Q555
144 522 92T431 17T303 -6ZM188 807Q175 807 166 821T157 853Q157 866 163 878T182 897L286 953Q296 958 303 958Q310 958 320 953L424 897Q438 890 443 878T449 853Q449 836 441 822T418 807Q416 807 413 808T407 810L303 866L199 810Q196 809 193 808T188 807Z"
/>
<glyph unicode="&#xdc;" horiz-adv-x="606" d="M303 -6Q232 -6 175 17T85 92T51 230V684Q51 709 75 720T129 731Q158 731 182 720T207 684V230Q207 179 232 155T303 130Q348 130 373 154T399 230V684Q399 709 423 720T477 731Q506 731 530 720T555 684V230Q555
144 522 92T431 17T303 -6ZM382 809Q359 809 342 827T325 868Q325 891 342 908T382 926Q405 926 421 909T438 868Q438 845 422 827T382 809ZM222 809Q199 809 182 827T165 868Q165 891 182 908T222 926Q245 926 261 909T278 868Q278 845 262 827T222 809Z" />
<glyph unicode="&#xdd;" horiz-adv-x="590" d="M295 0Q266 0 242 12T217 48V299Q217 307 213 313L6 656Q5 659 5 662T4 667Q4 686 21 700T64 722T110 731Q129 731 138 724T155 702L295 445L434 702Q442 716 451 723T479 731Q501 731 525 723T567 700T585 667Q585
665 585 662T583 656L377 313Q373 307 373 299V48Q373 24 349 12T295 0ZM265 798Q246 798 233 817T219 856Q219 881 239 891L379 956Q387 959 393 959Q413 959 426 940T440 901Q440 877 420 867L280 802Q276 801 273 800T265 798Z" />
<glyph unicode="&#xde;" horiz-adv-x="529" d="M130 0Q97 0 76 15T54 48V701Q54 722 75 735T128 748Q163 748 186 735T209 701V547Q225 576 258 599T334 623Q385 623 425 595T489 519T513 413V343Q513 288 489 240T426 161T339 131Q310 131 284 142T238 172T209
211V48Q209 30 186 15T130 0ZM284 266Q304 266 320 277T347 306T358 343V413Q358 432 348 449T321 477T282 488Q264 488 248 479T220 454T209 413V330Q209 322 218 307T245 279T284 266Z" />
<glyph unicode="&#xdf;" horiz-adv-x="617" d="M359 -20Q340 -20 323 -19T292 -11T270 9T262 47Q262 61 265 78T277 107T298 120Q309 120 324 116T360 111Q399 111 420 134T442 200V211Q442 261 427 288T386 328T334 350Q315 356 304 367T292 413Q292 445 303
454T335 469Q348 473 355 481T367 501T372 524T374 547Q374 583 359 608T305 633Q280 633 266 623T247 596T241 560V47Q241 26 218 13T162 0Q130 0 108 13T86 47V366H37Q18 366 9 383T-1 421Q-1 441 8 458T37 476H86V560Q86 616 106 663T171 739T293 768Q350 768
397 748T472 687T500 582Q500 550 492 520T470 466T434 431Q471 425 507 398T569 327T594 225V214Q594 139 562 87T476 8T359 -20Z" />
<glyph unicode="&#xe0;" horiz-adv-x="484" d="M146 -10Q94 -10 56 22T18 123Q18 182 48 215T130 261T252 274H288V284Q288 301 281 318T258 346T213 358Q172 358 152 350T121 334T96 325Q71 325 58 350T44 402Q44 426 71 444T138 472T215 482Q297 482 347 454T420
382T443 286V48Q443 28 422 14T367 0Q338 0 318 14T298 48V70Q271 39 235 15T146 -10ZM213 103Q229 103 246 115T275 149T288 195V199H284Q256 199 231 196T190 181T174 145Q174 123 185 113T213 103ZM261 809Q257 809 254 810T246 813L106 878Q86 888 86 912Q86
932 99 951T133 970Q140 970 147 967L287 902Q307 892 307 867Q307 848 294 829T261 809Z" />
<glyph unicode="&#xe1;" horiz-adv-x="484" d="M146 -10Q94 -10 56 22T18 123Q18 182 48 215T130 261T252 274H288V284Q288 301 281 318T258 346T213 358Q172 358 152 350T121 334T96 325Q71 325 58 350T44 402Q44 426 71 444T138 472T215 482Q297 482 347 454T420
382T443 286V48Q443 28 422 14T367 0Q338 0 318 14T298 48V70Q271 39 235 15T146 -10ZM213 103Q229 103 246 115T275 149T288 195V199H284Q256 199 231 196T190 181T174 145Q174 123 185 113T213 103ZM193 554Q174 554 161 573T147 612Q147 637 167 647L307 712Q315
715 321 715Q341 715 354 696T368 657Q368 633 348 623L208 558Q204 557 201 556T193 554Z" />
<glyph unicode="&#xe2;" horiz-adv-x="484" d="M146 -10Q94 -10 56 22T18 123Q18 182 48 215T130 261T252 274H288V284Q288 301 281 318T258 346T213 358Q172 358 152 350T121 334T96 325Q71 325 58 350T44 402Q44 426 71 444T138 472T215 482Q297 482 347 454T420
382T443 286V48Q443 28 422 14T367 0Q338 0 318 14T298 48V70Q271 39 235 15T146 -10ZM213 103Q229 103 246 115T275 149T288 195V199H284Q256 199 231 196T190 181T174 145Q174 123 185 113T213 103ZM108 819Q95 819 86 833T77 865Q77 878 83 890T102 909L206
965Q216 970 223 970Q230 970 240 965L344 909Q358 902 363 890T369 865Q369 848 361 834T338 819Q336 819 333 820T327 822L223 878L119 822Q116 821 113 820T108 819Z" />
<glyph unicode="&#xe3;" horiz-adv-x="484" d="M146 -10Q94 -10 56 22T18 123Q18 182 48 215T130 261T252 274H288V284Q288 301 281 318T258 346T213 358Q172 358 152 350T121 334T96 325Q71 325 58 350T44 402Q44 426 71 444T138 472T215 482Q297 482 347 454T420
382T443 286V48Q443 28 422 14T367 0Q338 0 318 14T298 48V70Q271 39 235 15T146 -10ZM213 103Q229 103 246 115T275 149T288 195V199H284Q256 199 231 196T190 181T174 145Q174 123 185 113T213 103ZM315 829Q280 829 256 836T213 849T169 856Q148 856 133 851T107
841T83 835Q68 835 60 845T48 867T45 884Q45 911 55 925T80 947T109 955T130 957Q161 957 183 951T227 937T276 930Q297 930 312 935T339 946T362 951Q378 951 386 941T397 919T400 902Q400 875 390 861T365 839T336 831T315 829Z" />
<glyph unicode="&#xe4;" horiz-adv-x="484" d="M146 -10Q94 -10 56 22T18 123Q18 182 48 215T130 261T252 274H288V284Q288 301 281 318T258 346T213 358Q172 358 152 350T121 334T96 325Q71 325 58 350T44 402Q44 426 71 444T138 472T215 482Q297 482 347 454T420
382T443 286V48Q443 28 422 14T367 0Q338 0 318 14T298 48V70Q271 39 235 15T146 -10ZM213 103Q229 103 246 115T275 149T288 195V199H284Q256 199 231 196T190 181T174 145Q174 123 185 113T213 103ZM302 821Q279 821 262 839T245 880Q245 903 262 920T302 938Q325
938 341 921T358 880Q358 857 342 839T302 821ZM142 821Q119 821 102 839T85 880Q85 903 102 920T142 938Q165 938 181 921T198 880Q198 857 182 839T142 821Z" />
<glyph unicode="&#xe5;" horiz-adv-x="484" d="M146 -10Q94 -10 56 22T18 123Q18 182 48 215T130 261T252 274H288V284Q288 301 281 318T258 346T213 358Q172 358 152 350T121 334T96 325Q71 325 58 350T44 402Q44 426 71 444T138 472T215 482Q297 482 347 454T420
382T443 286V48Q443 28 422 14T367 0Q338 0 318 14T298 48V70Q271 39 235 15T146 -10ZM213 103Q229 103 246 115T275 149T288 195V199H284Q256 199 231 196T190 181T174 145Q174 123 185 113T213 103ZM222 811Q196 811 173 825T137 863T123 914Q123 940 136 963T172
1000T222 1015Q249 1015 272 1001T309 964T323 914Q323 887 309 864T272 826T222 811ZM223 871Q240 871 251 884T262 913Q262 928 251 940T223 952Q206 952 194 940T182 913Q182 898 194 885T223 871Z" />
<glyph unicode="&#xe6;" horiz-adv-x="756" d="M175 -10Q133 -10 97 4T39 48T17 123Q17 182 47 215T129 261T251 274H287V284Q287 301 280 318T257 346T212 358Q171 358 151 350T120 334T95 325Q70 325 57 350T43 402Q43 426 70 444T137 472T214 482Q268 482 307
463T372 410Q401 443 438 462T517 482Q560 482 599 469T668 430T715 369T732 292Q732 247 718 228T681 204T635 199H442V193Q442 156 470 134T544 111Q575 111 597 120T636 139T669 148Q687 148 699 136T719 108T726 80Q726 61 703 40T639 5T540 -10Q481 -10 433
15T351 84Q315 43 269 17T175 -10ZM212 103Q228 103 245 115T274 149T287 195V199H283Q255 199 230 196T189 181T173 145Q173 123 184 113T212 103ZM442 286H566Q577 286 582 291T587 310Q587 330 577 343T550 363T514 370Q496 370 480 364T453 344T442 310V286Z"
/>
<glyph unicode="&#xe7;" horiz-adv-x="442" d="M255 -10Q176 -10 126 18T52 94T28 202V270Q28 330 51 378T125 454T253 482Q302 482 340 471T400 440T422 399Q422 385 415 367T394 336T362 323Q350 323 339 329T310 341T266 347Q221 347 202 327T183 270V202Q183
165 202 145T267 125Q294 125 310 132T337 145T362 152Q383 152 398 140T420 111T428 78Q428 56 405 36T343 3T255 -10ZM260 -219Q242 -219 222 -216T187 -205T172 -188Q172 -184 174 -174T183 -155T198 -146Q207 -146 219 -153T256 -160Q276 -160 289 -153T302
-129Q302 -116 292 -107T259 -95L197 -89L226 9H290L271 -47Q322 -49 346 -71T371 -126Q371 -143 362 -165T328 -203T260 -219Z" />
<glyph unicode="&#xe8;" horiz-adv-x="496" d="M280 -10Q206 -10 149 16T60 91T27 202V275Q27 331 58 378T141 453T257 482Q315 482 363 458T442 392T472 292Q472 247 458 228T421 204T375 199H182V193Q182 156 210 134T284 111Q315 111 337 120T376 139T409 148Q427
148 440 136T459 108T466 80Q466 61 443 40T379 5T280 -10ZM182 286H306Q317 286 322 291T327 310Q327 330 317 343T290 363T254 370Q236 370 220 364T193 344T182 310V286ZM302 559Q298 559 295 560T287 563L147 628Q127 638 127 662Q127 682 140 701T174 720Q181
720 188 717L328 652Q348 642 348 617Q348 598 335 579T302 559Z" />
<glyph unicode="&#xe9;" horiz-adv-x="496" d="M280 -10Q206 -10 149 16T60 91T27 202V275Q27 331 58 378T141 453T257 482Q315 482 363 458T442 392T472 292Q472 247 458 228T421 204T375 199H182V193Q182 156 210 134T284 111Q315 111 337 120T376 139T409 148Q427
148 440 136T459 108T466 80Q466 61 443 40T379 5T280 -10ZM182 286H306Q317 286 322 291T327 310Q327 330 317 343T290 363T254 370Q236 370 220 364T193 344T182 310V286ZM204 558Q185 558 172 577T158 616Q158 641 178 651L318 716Q326 719 332 719Q352 719
365 700T379 661Q379 637 359 627L219 562Q215 561 212 560T204 558Z" />
<glyph unicode="&#xea;" horiz-adv-x="496" d="M280 -10Q206 -10 149 16T60 91T27 202V275Q27 331 58 378T141 453T257 482Q315 482 363 458T442 392T472 292Q472 247 458 228T421 204T375 199H182V193Q182 156 210 134T284 111Q315 111 337 120T376 139T409 148Q427
148 440 136T459 108T466 80Q466 61 443 40T379 5T280 -10ZM182 286H306Q317 286 322 291T327 310Q327 330 317 343T290 363T254 370Q236 370 220 364T193 344T182 310V286ZM140 823Q127 823 118 837T109 869Q109 882 115 894T134 913L238 969Q248 974 255 974Q262
974 272 969L376 913Q390 906 395 894T401 869Q401 852 393 838T370 823Q368 823 365 824T359 826L255 882L151 826Q148 825 145 824T140 823Z" />
<glyph unicode="&#xeb;" horiz-adv-x="496" d="M280 -10Q206 -10 149 16T60 91T27 202V275Q27 331 58 378T141 453T257 482Q315 482 363 458T442 392T472 292Q472 247 458 228T421 204T375 199H182V193Q182 156 210 134T284 111Q315 111 337 120T376 139T409 148Q427
148 440 136T459 108T466 80Q466 61 443 40T379 5T280 -10ZM182 286H306Q317 286 322 291T327 310Q327 330 317 343T290 363T254 370Q236 370 220 364T193 344T182 310V286ZM334 826Q311 826 294 844T277 885Q277 908 294 925T334 943Q357 943 373 926T390 885Q390
862 374 844T334 826ZM174 826Q151 826 134 844T117 885Q117 908 134 925T174 943Q197 943 213 926T230 885Q230 862 214 844T174 826Z" />
<glyph unicode="&#xec;" horiz-adv-x="244" d="M122 0Q88 0 67 15T45 48V429Q45 450 66 463T122 476Q154 476 177 463T200 429V48Q200 30 177 15T122 0ZM426 812Q422 812 419 813T411 816L271 881Q251 891 251 915Q251 935 264 954T298 973Q305 973 312 970L452
905Q472 895 472 870Q472 851 459 832T426 812Z" />
<glyph unicode="&#xed;" horiz-adv-x="244" d="M122 0Q88 0 67 15T45 48V429Q45 450 66 463T122 476Q154 476 177 463T200 429V48Q200 30 177 15T122 0ZM82 813Q63 813 50 832T36 871Q36 896 56 906L196 971Q204 974 210 974Q230 974 243 955T257 916Q257 892
237 882L97 817Q93 816 90 815T82 813Z" />
<glyph unicode="&#xee;" horiz-adv-x="244" d="M122 0Q88 0 67 15T45 48V429Q45 450 66 463T122 476Q154 476 177 463T200 429V48Q200 30 177 15T122 0ZM253 822Q240 822 231 836T222 868Q222 881 228 893T247 912L351 968Q361 973 368 973Q375 973 385 968L489
912Q503 905 508 893T514 868Q514 851 506 837T483 822Q481 822 478 823T472 825L368 881L264 825Q261 824 258 823T253 822Z" />
<glyph unicode="&#xef;" horiz-adv-x="244" d="M122 0Q88 0 67 15T45 48V429Q45 450 66 463T122 476Q154 476 177 463T200 429V48Q200 30 177 15T122 0ZM463 826Q440 826 423 844T406 885Q406 908 423 925T463 943Q486 943 502 926T519 885Q519 862 503 844T463
826ZM303 826Q280 826 263 844T246 885Q246 908 263 925T303 943Q326 943 342 926T359 885Q359 862 343 844T303 826Z" />
<glyph unicode="&#xf0;" horiz-adv-x="525" d="M257 -10Q211 -10 170 7T96 54T46 122T27 202V272Q27 330 51 377T115 453T204 482Q235 482 259 471T302 443T331 406Q331 441 321 474T296 535L255 510Q250 506 241 506Q222 506 205 526T188 567Q188 585 204 595L237
615Q236 617 233 619T228 623Q218 634 208 645T197 675Q197 688 204 705T227 736T272 749Q300 749 324 735T370 696L419 726Q426 730 434 730Q454 730 470 710T486 670Q486 651 470 641L423 612Q454 548 470 475T486 343V202Q486 146 455 98T371 20T257 -10ZM257
125Q278 125 294 136T321 164T331 202V272Q331 296 320 312T291 338T255 347Q235 347 218 336T192 308T182 272V202Q182 182 192 165T219 136T257 125Z" />
<glyph unicode="&#xf1;" horiz-adv-x="534" d="M122 0Q88 0 67 15T45 48V429Q45 450 66 463T122 476Q150 476 170 463T190 429V406Q204 435 239 458T324 482Q370 482 408 454T470 378T494 272V48Q494 24 470 12T416 0Q389 0 364 12T339 48V272Q339 291 330 308T304
336T267 347Q251 347 236 338T210 313T200 272V48Q200 30 177 15T122 0ZM359 818Q324 818 300 825T257 838T213 845Q192 845 177 840T151 830T127 824Q112 824 104 834T92 856T89 873Q89 900 99 914T124 936T153 944T174 946Q205 946 227 940T271 926T320 919Q341
919 356 924T383 935T406 940Q422 940 430 930T441 908T444 891Q444 864 434 850T409 828T380 820T359 818Z" />
<glyph unicode="&#xf2;" horiz-adv-x="509" d="M254 -10Q193 -10 142 19T59 97T27 202V272Q27 328 57 376T140 453T254 482Q315 482 367 454T450 378T482 272V202Q482 147 451 99T367 20T254 -10ZM254 125Q274 125 290 136T317 164T327 202V272Q327 291 317 308T291
336T254 347Q234 347 218 336T192 308T182 272V202Q182 182 191 165T217 136T254 125ZM303 559Q299 559 296 560T288 563L148 628Q128 638 128 662Q128 682 141 701T175 720Q182 720 189 717L329 652Q349 642 349 617Q349 598 336 579T303 559Z" />
<glyph unicode="&#xf3;" horiz-adv-x="509" d="M254 -10Q193 -10 142 19T59 97T27 202V272Q27 328 57 376T140 453T254 482Q315 482 367 454T450 378T482 272V202Q482 147 451 99T367 20T254 -10ZM254 125Q274 125 290 136T317 164T327 202V272Q327 291 317 308T291
336T254 347Q234 347 218 336T192 308T182 272V202Q182 182 191 165T217 136T254 125ZM193 557Q174 557 161 576T147 615Q147 640 167 650L307 715Q315 718 321 718Q341 718 354 699T368 660Q368 636 348 626L208 561Q204 560 201 559T193 557Z" />
<glyph unicode="&#xf4;" horiz-adv-x="509" d="M254 -10Q193 -10 142 19T59 97T27 202V272Q27 328 57 376T140 453T254 482Q315 482 367 454T450 378T482 272V202Q482 147 451 99T367 20T254 -10ZM254 125Q274 125 290 136T317 164T327 202V272Q327 291 317 308T291
336T254 347Q234 347 218 336T192 308T182 272V202Q182 182 191 165T217 136T254 125ZM139 569Q126 569 117 583T108 615Q108 628 114 640T133 659L237 715Q247 720 254 720Q261 720 271 715L375 659Q389 652 394 640T400 615Q400 598 392 584T369 569Q367 569
364 570T358 572L254 628L150 572Q147 571 144 570T139 569Z" />
<glyph unicode="&#xf5;" horiz-adv-x="509" d="M254 -10Q193 -10 142 19T59 97T27 202V272Q27 328 57 376T140 453T254 482Q315 482 367 454T450 378T482 272V202Q482 147 451 99T367 20T254 -10ZM254 125Q274 125 290 136T317 164T327 202V272Q327 291 317 308T291
336T254 347Q234 347 218 336T192 308T182 272V202Q182 182 191 165T217 136T254 125ZM348 580Q313 580 289 587T246 600T202 607Q181 607 166 602T140 592T116 586Q101 586 93 596T81 618T78 635Q78 662 88 676T113 698T142 706T163 708Q194 708 216 702T260 688T309
681Q330 681 345 686T372 697T395 702Q411 702 419 692T430 670T433 653Q433 626 423 612T398 590T369 582T348 580Z" />
<glyph unicode="&#xf6;" horiz-adv-x="509" d="M254 -10Q193 -10 142 19T59 97T27 202V272Q27 328 57 376T140 453T254 482Q315 482 367 454T450 378T482 272V202Q482 147 451 99T367 20T254 -10ZM254 125Q274 125 290 136T317 164T327 202V272Q327 291 317 308T291
336T254 347Q234 347 218 336T192 308T182 272V202Q182 182 191 165T217 136T254 125ZM337 826Q314 826 297 844T280 885Q280 908 297 925T337 943Q360 943 376 926T393 885Q393 862 377 844T337 826ZM177 826Q154 826 137 844T120 885Q120 908 137 925T177 943Q200
943 216 926T233 885Q233 862 217 844T177 826Z" />
<glyph unicode="&#xf7;" horiz-adv-x="455" d="M69 179Q47 179 34 195T20 238Q20 264 33 281T69 298H385Q404 298 419 281T435 238Q435 211 420 195T385 179H69ZM224 2Q198 2 178 21T157 66Q157 94 177 111T224 129Q248 129 269 112T290 66Q290 41 269 22T224
2ZM224 348Q198 348 178 366T157 411Q157 437 177 456T224 475Q248 475 269 456T290 411Q290 384 269 366T224 348Z" />
<glyph unicode="&#xf8;" horiz-adv-x="509" d="M254 -10Q193 -10 142 19T59 97T27 202V272Q27 328 57 376T140 453T254 482Q315 482 367 454T450 378T482 272V202Q482 147 451 99T367 20T254 -10ZM254 125Q274 125 290 136T317 164T327 202V272Q327 291 317 308T291
336T254 347Q234 347 218 336T192 308T182 272V202Q182 182 191 165T217 136T254 125ZM72 -32Q61 -32 51 -23T41 -2Q41 7 48 16L84 64L375 449L411 497Q420 510 433 510Q447 510 456 501T466 478Q466 468 458 457L423 411L128 27L89 -24Q83 -32 72 -32Z" />
<glyph unicode="&#xf9;" horiz-adv-x="535" d="M268 -10Q206 -10 154 19T71 97T40 200V428Q40 446 63 461T118 476Q149 476 172 461T195 428V200Q195 181 205 164T231 136T268 125Q288 125 304 136T330 164T340 200V429Q340 448 363 462T418 476Q452 476 473 462T495
429V200Q495 144 464 96T382 19T268 -10ZM306 542Q302 542 299 543T291 546L151 611Q131 621 131 645Q131 665 144 684T178 703Q185 703 192 700L332 635Q352 625 352 600Q352 581 339 562T306 542Z" />
<glyph unicode="&#xfa;" horiz-adv-x="535" d="M268 -10Q206 -10 154 19T71 97T40 200V428Q40 446 63 461T118 476Q149 476 172 461T195 428V200Q195 181 205 164T231 136T268 125Q288 125 304 136T330 164T340 200V429Q340 448 363 462T418 476Q452 476 473 462T495
429V200Q495 144 464 96T382 19T268 -10ZM238 543Q219 543 206 562T192 601Q192 626 212 636L352 701Q360 704 366 704Q386 704 399 685T413 646Q413 622 393 612L253 547Q249 546 246 545T238 543Z" />
<glyph unicode="&#xfb;" horiz-adv-x="535" d="M268 -10Q206 -10 154 19T71 97T40 200V428Q40 446 63 461T118 476Q149 476 172 461T195 428V200Q195 181 205 164T231 136T268 125Q288 125 304 136T330 164T340 200V429Q340 448 363 462T418 476Q452 476 473 462T495
429V200Q495 144 464 96T382 19T268 -10ZM153 808Q140 808 131 822T122 854Q122 867 128 879T147 898L251 954Q261 959 268 959Q275 959 285 954L389 898Q403 891 408 879T414 854Q414 837 406 823T383 808Q381 808 378 809T372 811L268 867L164 811Q161 810 158
809T153 808Z" />
<glyph unicode="&#xfc;" horiz-adv-x="535" d="M268 -10Q206 -10 154 19T71 97T40 200V428Q40 446 63 461T118 476Q149 476 172 461T195 428V200Q195 181 205 164T231 136T268 125Q288 125 304 136T330 164T340 200V429Q340 448 363 462T418 476Q452 476 473 462T495
429V200Q495 144 464 96T382 19T268 -10ZM347 554Q324 554 307 572T290 613Q290 636 307 653T347 671Q370 671 386 654T403 613Q403 590 387 572T347 554ZM187 554Q164 554 147 572T130 613Q130 636 147 653T187 671Q210 671 226 654T243 613Q243 590 227 572T187
554Z" />
<glyph unicode="&#xfd;" horiz-adv-x="496" d="M72 -217Q42 -217 22 -206T1 -151Q1 -125 9 -106T39 -87Q53 -87 76 -85T123 -71T164 -33T181 41L6 389Q1 399 1 409Q1 429 19 446T61 473T106 483Q120 483 132 478T149 458L262 187L345 458Q350 472 361 477T385
483Q403 483 428 473T473 445T492 406Q492 396 488 389L346 35Q327 -12 310 -57T267 -138T194 -195T72 -217ZM218 543Q199 543 186 562T172 601Q172 626 192 636L332 701Q340 704 346 704Q366 704 379 685T393 646Q393 622 373 612L233 547Q229 546 226 545T218
543Z" />
<glyph unicode="&#xfe;" horiz-adv-x="533" d="M122 -217Q89 -217 68 -202T46 -169V701Q46 722 67 735T120 748Q155 748 178 735T201 701V406Q217 435 250 458T326 482Q377 482 417 454T481 378T505 272V202Q505 147 481 99T418 20T331 -10Q287 -10 251 14T201
70V-169Q201 -187 178 -202T122 -217ZM276 125Q296 125 312 136T339 165T350 202V272Q350 291 340 308T313 336T274 347Q256 347 240 338T212 313T201 272V189Q201 181 210 166T237 138T276 125Z" />
<glyph unicode="&#xff;" horiz-adv-x="496" d="M72 -217Q42 -217 22 -206T1 -151Q1 -125 9 -106T39 -87Q53 -87 76 -85T123 -71T164 -33T181 41L6 389Q1 399 1 409Q1 429 19 446T61 473T106 483Q120 483 132 478T149 458L262 187L345 458Q350 472 361 477T385
483Q403 483 428 473T473 445T492 406Q492 396 488 389L346 35Q327 -12 310 -57T267 -138T194 -195T72 -217ZM327 810Q304 810 287 828T270 869Q270 892 287 909T327 927Q350 927 366 910T383 869Q383 846 367 828T327 810ZM167 810Q144 810 127 828T110 869Q110
892 127 909T167 927Q190 927 206 910T223 869Q223 846 207 828T167 810Z" />
<glyph unicode="&#x2013;" horiz-adv-x="476" d="M78 177Q57 177 44 194T31 240Q31 267 44 285T78 304H398Q416 304 431 286T446 240Q446 212 431 195T398 177H78Z" />
<glyph unicode="&#x2014;" horiz-adv-x="757" d="M78 177Q57 177 44 194T31 240Q31 267 44 285T78 304H679Q697 304 712 286T727 240Q727 212 712 195T679 177H78Z" />
<glyph unicode="&#x2018;" horiz-adv-x="191" d="M93 487Q62 487 39 509T16 563Q16 568 17 574T25 596T43 641T78 723Q83 734 91 737T108 741Q124 741 141 731T158 702Q158 694 154 686L129 632Q147 622 158 604T169 564Q169 533 147 510T93 487Z" />
<glyph unicode="&#x2019;" horiz-adv-x="190" d="M84 487Q68 487 51 497T34 526Q34 534 38 542L63 596Q45 607 34 624T23 664Q23 696 45 718T99 741Q131 741 153 719T176 665Q176 661 175 654T167 632T149 587T114 505Q110 495 101 491T84 487Z" />
<glyph unicode="&#x201a;" horiz-adv-x="199" d="M84 -106Q68 -106 51 -96T34 -67Q34 -59 38 -51L63 3Q45 14 34 31T23 71Q23 103 45 125T99 148Q131 148 153 126T176 72Q176 68 175 61T167 39T149 -6T114 -88Q110 -98 101 -102T84 -106Z" />
<glyph unicode="&#x201c;" horiz-adv-x="391" d="M293 487Q262 487 239 509T216 563Q216 568 217 574T225 596T243 641T278 723Q283 734 291 737T308 741Q324 741 341 731T358 702Q358 694 354 686L329 632Q347 622 358 604T369 564Q369 533 347 510T293 487ZM93
487Q62 487 39 509T16 563Q16 568 17 574T25 596T43 641T78 723Q83 734 91 737T108 741Q124 741 141 731T158 702Q158 694 154 686L129 632Q147 622 158 604T169 564Q169 533 147 510T93 487Z" />
<glyph unicode="&#x201d;" horiz-adv-x="390" d="M284 487Q268 487 251 497T234 526Q234 534 238 542L263 596Q245 607 234 624T223 664Q223 696 245 718T299 741Q331 741 353 719T376 665Q376 661 375 654T367 632T349 587T314 505Q310 495 301 491T284 487ZM84
487Q68 487 51 497T34 526Q34 534 38 542L63 596Q45 607 34 624T23 664Q23 696 45 718T99 741Q131 741 153 719T176 665Q176 661 175 654T167 632T149 587T114 505Q110 495 101 491T84 487Z" />
<glyph unicode="&#x201e;" horiz-adv-x="399" d="M284 -106Q268 -106 251 -96T234 -67Q234 -59 238 -51L263 3Q245 14 234 31T223 71Q223 103 245 125T299 148Q331 148 353 126T376 72Q376 68 375 61T367 39T349 -6T314 -88Q310 -98 301 -102T284 -106ZM84 -106Q68
-106 51 -96T34 -67Q34 -59 38 -51L63 3Q45 14 34 31T23 71Q23 103 45 125T99 148Q131 148 153 126T176 72Q176 68 175 61T167 39T149 -6T114 -88Q110 -98 101 -102T84 -106Z" />
<glyph unicode="&#x2022;" horiz-adv-x="335" d="M168 164Q130 164 98 183T46 233T26 300Q26 336 45 367T97 416T168 435Q206 435 238 417T289 367T309 300Q309 264 290 233T238 183T168 164Z" />
<glyph unicode="&#x2039;" horiz-adv-x="287" d="M158 74Q126 74 116 93L49 218Q37 241 29 252T21 276Q21 290 29 302T49 336L116 461Q126 480 158 480Q184 480 206 467T242 436T256 402Q256 394 253 388L194 277L253 166Q256 160 256 152Q256 137 243 119T207
87T158 74Z" />
<glyph unicode="&#x203a;" horiz-adv-x="287" d="M129 74Q103 74 81 87T45 118T31 152Q31 160 34 166L93 277L34 388Q31 394 31 402Q31 418 44 436T80 467T129 480Q162 480 171 461L238 336Q250 314 258 302T266 276Q266 263 258 252T238 218L171 93Q162 74 129 74Z" />
</font>
</defs>
</svg>
